<?xml version="1.0" encoding="utf-8"?>
<!-- Generator: Adobe Illustrator 26.1.0, SVG Export Plug-In . SVG Version: 6.00 Build 0)  -->
<svg version="1.1" id="drumkit" xmlns="http://www.w3.org/2000/svg" xmlns:xlink="http://www.w3.org/1999/xlink" x="0px" y="0px"
	 viewBox="0 0 892 844" style="enable-background:new 0 0 892 844;" xml:space="preserve">
<style type="text/css">
	.st0{fill:#BC6857;}
	.st1{fill:#F6E7E4;}
	.st2{fill:#D6C0BD;}
	.st3{fill:#212529;}
	.st4{fill:#C92A2A;}
	.st5{fill:#8B2E0D;}
	.st6{fill:#F5E6E2;}
	.st7{fill:#E9ECEF;}
	.st8{fill:#ADB5BD;}
	.st9{fill:#FEFEFE;}
	.st10{fill:#FF922B;}
	.st11{fill:none;stroke:#212529;stroke-width:6;stroke-miterlimit:10;}
	.st12{fill:none;stroke:#212529;stroke-width:7;stroke-linecap:round;stroke-linejoin:round;stroke-miterlimit:10;}
	.st13{fill:#E9ECEF;stroke:#020202;stroke-width:8;stroke-miterlimit:10;}
	.st14{fill:#020202;}
	.st15{fill:none;stroke:#020202;stroke-width:8;stroke-miterlimit:10;}
	.st16{fill:#F59F00;}
	.st17{fill:#E67700;}
</style>
<ellipse id="shhadow-stage" class="st0" cx="450.5" cy="759" rx="424" ry="59.5"/>
<g id="circle-back">
	<g>
		<circle class="st1" cx="467.1" cy="362.9" r="285.5"/>
		<g>
			<path class="st1" d="M704.2,206.4c16.5,24.6,29.2,51.7,37.4,80.2c8.1,28.1,12.1,57.8,10.7,87c-1.3,28.4-6.9,56.7-16.5,83.5
				c-9.7,27-23.4,52.5-40.7,75.3c-17.8,23.6-39.2,44.3-63.4,61.3c-24.3,17.1-51.2,30.5-79.6,39.4c-27.3,8.5-56,12.9-84.6,12.9
				c-28.3,0-56.6-4.2-83.6-12.4c-27.2-8.3-53.2-20.6-76.8-36.6c-24.4-16.5-46.1-36.7-64.2-59.8c-18.5-23.5-33.3-49.9-43.7-77.9
				c-10-27.1-15.9-55.8-17.3-84.7c-1.4-29,2.5-58.4,10.3-86.3c7.7-27.4,19.4-53.6,34.8-77.5c15.8-24.5,35.4-46.6,57.9-65.2
				c23.1-19.1,49.1-34.6,77-45.6c26.8-10.6,55.2-17.2,83.9-19.3c28.4-2.1,57,0.1,84.7,6.4c27.7,6.3,54.4,16.7,79,30.9
				c25.2,14.5,48,32.8,67.7,54.1C687.1,182.8,696.1,194.3,704.2,206.4c-0.8-1.1,0.8-3.8,0-5c-16.8-25-37.5-47.4-61.3-66
				c-22.9-17.9-48.6-32.3-75.9-42.4c-27-10.1-55.5-16-84.3-17.6c-29-1.6-58.3,1.2-86.4,8.4c-29.1,7.4-57,19.6-82.3,35.7
				c-25.5,16.2-48.5,36.5-67.7,59.9c-18.5,22.5-33.5,47.9-44.3,75c-10.7,26.8-17.3,55.1-19.6,83.9c-2.2,28-0.8,56.4,4.8,84
				c5.9,29.2,16.5,57.5,31.1,83.4c14.9,26.4,34,50.5,56.4,70.9c21.7,19.8,46.5,36.2,73.2,48.4c26.1,12,54,20,82.5,23.6
				c28.8,3.7,58.2,3.1,86.8-2c29.2-5.2,57.4-15,83.6-28.9c26.9-14.3,51.6-32.9,72.7-54.9c20.3-21.2,37.2-45.5,50.1-71.9
				c12.6-25.9,21.3-53.8,25.7-82.3c4.2-27.6,4.6-56.1,1.1-83.9c-3.7-29.3-11.9-58-24.4-84.7c-6.2-13.4-13.6-26.3-21.8-38.6
				C705,202.5,703.4,205.2,704.2,206.4z"/>
		</g>
	</g>
	<g>
		<g>
			<path class="st2" d="M704,218.5c21.5,32.1,36.5,68.4,43.6,106.4c2,10.4,3.3,20.9,4.1,31.5c0-0.2,0-0.4,0-0.5
				c0.2,2.9,0.4,5.9,0.5,8.8c0.1,1.5,0.1,2.9,0.2,4.4c0,0.7,0,0.8,0,0.4c0,0.4,0,0.8,0,1.3c0-1.3,0-1.5,0-0.5c0-3.1,0-6.2,0-9.2
				c0-2.1,0-4.2,0-6.3c0-1.3,0-1.5,0-0.5c0,0.8,0,1.1,0,1.3c0,1.5-0.1,2.9-0.2,4.4c-0.1,3-0.3,6.1-0.5,9.1c0-0.2,0-0.4,0-0.5
				c-2,27.2-7.9,54-17.5,79.5c-9.6,25.6-22.9,49.9-39.5,71.8c-17.1,22.6-37.5,42.5-60.4,59.1c-23.3,16.8-49,30.2-76.2,39.3
				c-26.2,8.8-53.6,13.8-81.3,14.7c-27.1,0.9-54.4-2.1-80.7-8.8c-26.4-6.8-51.8-17.3-75.2-31.2c-24-14.3-45.9-32.1-64.8-52.8
				c-19.4-21.3-35.6-45.5-47.8-71.6c-11.9-25.3-20-52.3-24-80c-0.9-6.6-1.7-13.2-2.2-19.8c0,0.2,0,0.4,0,0.5
				c-0.2-2.9-0.4-5.9-0.5-8.8c-0.1-1.5-0.1-2.9-0.1-4.4c0-0.7,0-0.8,0-0.4c0-0.4,0-0.8,0-1.3c0,1.3,0,1.5,0,0.5c0,3.1,0,6.2,0,9.2
				c0,2.1,0,4.2,0,6.3c0,1.3,0,1.5,0,0.5c0-0.8,0-1.1,0-1.3c0-1.5,0.1-2.9,0.1-4.4c0.1-3,0.3-6.1,0.5-9.1c0,0.2,0,0.4,0,0.5
				c1.7-22.5,6-44.7,12.9-66.2c6.9-21.6,16.4-42.3,28.1-61.6c12.1-19.8,26.6-38.1,43.1-54.4c17-16.8,36.1-31.4,56.8-43.5
				c20.2-11.8,42-21.2,64.5-27.7c21.9-6.3,44.6-10,67.4-11c22.5-0.9,45.2,0.8,67.3,5.2s43.7,11.3,64.2,20.7
				c20.7,9.5,40.3,21.5,58.2,35.7c18.4,14.6,34.9,31.5,49.1,50.1C697.2,208.7,700.7,213.6,704,218.5c-0.2-0.4,0.1-4.5,0.1-4.4
				c0-3.5,0-7.1,0-10.6c0-3.5,0-7.1,0-10.6c0-1,0.4-3.6-0.1-4.4c-16.8-25-37.5-47.4-61.3-66c-22.9-17.9-48.6-32.3-75.9-42.4
				c-27-10.1-55.5-16-84.3-17.6c-29-1.6-58.3,1.2-86.4,8.4c-29.1,7.4-57,19.6-82.3,35.7c-25.5,16.2-48.5,36.5-67.7,59.9
				c-18.5,22.5-33.5,47.9-44.3,75c-10.7,26.8-17.3,55.1-19.6,83.9c-0.6,8-0.9,15.9-1,23.9c-0.1,13.9-0.3,27.9,0.4,41.8
				c0.7,14.5,2.5,29,5.4,43.3c5.9,29.2,16.5,57.5,31.1,83.4c14.9,26.4,34,50.5,56.4,70.9c21.7,19.8,46.5,36.2,73.2,48.4
				c26.1,12,54,20,82.5,23.6c28.8,3.7,58.2,3.1,86.8-2c29.2-5.2,57.4-15,83.6-28.9c26.9-14.3,51.6-32.9,72.7-54.9
				c20.3-21.2,37.2-45.5,50.1-71.9c12.6-25.9,21.3-53.8,25.7-82.3c2.3-15,3.2-30.2,3.4-45.4c0.2-21.2,0.3-42.4-2.3-63.4
				c-3.7-29.3-11.9-58-24.4-84.7c-6.2-13.4-13.6-26.3-21.8-38.6c0.3,0.4-0.1,4.5-0.1,4.4c0,3.5,0,7.1,0,10.6c0,3.5,0,7.1,0,10.6
				C703.9,215.1,703.5,217.7,704,218.5z"/>
		</g>
	</g>
</g>
<g id="notes">
	<path id="stars2_00000132048105929036949070000017773159007569129099_" class="st3" d="M148.9,351.3c-3.3-2.1-5.5-5.3-8.3-8
		c-1.5-1.4-2.7-2.1-4.8-1.5c-3,0.8-6.1,1.1-9.2,1.7c-0.6,0.1-1.3,0.4-1.8-0.2c-0.5-0.6,0.1-1.2,0.4-1.8c1.4-2.7,2.7-5.4,4.3-8
		c1.3-2.1,1-4-0.1-6.1c-1.4-2.5-2.7-5.1-4.2-7.6c-1.1-1.9-0.3-2.4,1.4-2.1c3.2,0.5,6.4,1.1,9.5,1.8c1.7,0.4,3.1,0.1,4.3-1.3
		c2-2.4,4.7-4.1,6.3-6.9c1.9-1.3,2.8-1.1,2.9,1.5c0.2,3.2,0.9,6.4,1.2,9.5c0.1,1.4,0.9,2.1,2,2.6c2.9,1.4,5.8,2.9,8.6,4.3
		c0.6,0.3,1.6,0.5,1.6,1.4c0.1,1-0.9,1-1.6,1.3c-0.8,0.4-1.5,0.9-2.3,1.1c-7.9,1.9-9.4,7.9-9.6,14.8
		C149.5,349.1,149.8,350.3,148.9,351.3z"/>
	<path id="notes2_00000131347782218751548150000003731298689523616956_" class="st3" d="M379.2,331c-6.1,0-10.3-5.1-9-11
		c0.6-2.4,2.1-4,4.7-4.2c1.8-0.1,3.4,0.1,5.1,0.7c4.7,1.8,3.7,2.3,6.4-2.6c1.8-3.3,3.3-6.8,5-10.1c0.8-1.5,0.7-2.3-1.1-2.8
		c-5.4-1.4-10.9-2.7-16.2-4.4c-2.8-0.9-3.8,0.2-4.8,2.5c-2.7,5.8-5.6,11.4-8.5,17c-1.7,3.2-5.7,4.7-10.1,3.8c-3.9-0.7-8-4.4-8.4-7.6
		c-0.6-4.1,3.7-8.3,8.2-7.7c1.8,0.2,3.7,0.6,5.1,1.8c2.1,1.7,3,0.7,4-1.3c3.1-6.6,6.5-13.1,9.7-19.7c1.2-2.4,2.6-2.6,4.9-1.6
		c8.3,3.5,16.7,6.9,25.1,10.2c2.5,1,3,1.9,1.8,4.5c-4.2,8.9-8.1,17.9-12.5,26.6C386.7,329.1,383.6,331,379.2,331z"/>
	<path id="star1" class="st3" d="M696,209.6c0.5-5.1,0.8-9.9,1.5-14.8c0.3-2.2-0.4-3.7-2-5.1c-3.7-3.1-7.4-6.3-11-9.4
		c-0.5-0.5-1.5-0.8-1.2-1.7c0.3-0.9,1.1-0.8,1.9-1c4.6-1,9.2-2.1,13.9-3c2.3-0.4,3.6-1.4,4.5-3.6c1.7-4.5,3.6-9,5.5-13.4
		c0.3-0.7,0.2-1.6,1.2-1.7c0.9-0.1,1.2,0.8,1.6,1.4c2.4,4.2,4.9,8.4,7.2,12.6c1,1.8,2.4,2.8,4.6,2.9c4.8,0.2,9.7,0.6,14.5,0.9
		c0.7,0.1,1.6-0.3,2,0.6c0.5,1-0.3,1.6-0.9,2.2c-3.2,3.5-6.4,7-9.6,10.5c-1.5,1.6-2.1,3.3-1.5,5.6c1.3,4.6,2.4,9.2,3.5,13.8
		c0.2,0.8,0.7,1.8-0.2,2.4c-0.7,0.5-1.4-0.1-2.1-0.4c-4.1-1.8-8.3-3.5-12.4-5.6c-2.7-1.4-4.8-0.9-7.2,0.7c-3.6,2.5-7.4,4.8-11.2,7.1
		c-0.6,0.4-1.3,1-2.1,0.6C695.5,210.9,696,210,696,209.6z"/>
	<path id="note1" class="st3" d="M718.7,337c-4.3,0-6.7-1.7-7.5-5c-0.8-3.2,1.5-7,5-8.9c1.7-1,4.6-0.3,5-2.8c0.3-1.9-1-3.7-1.7-5.5
		c-2-5.9-3.8-11.9-5.8-17.8c-0.6-1.7-0.2-2.6,1.4-3.3c8.9-3.8,17.9-7.5,26.8-11.3c1.8-0.8,2.8-0.6,3.5,1.3
		c3.6,10,7.8,19.9,10.6,30.1c1.1,4.1-1.1,8.6-5.3,11.1c-3.1,1.9-7.5,1.2-10.4-1.6c-3.8-3.5-3.2-7.1,1.5-10.3c1.8-1.2,5-1,5.2-3.6
		c0.2-2-1.1-4.1-1.8-6.1c-0.9-2.8-1.9-5.5-2.8-8.2c-0.5-1.6-1.1-2.1-2.7-1.1c-5,3-10,5.9-15.2,8.6c-1.7,0.9-1.8,2-1.2,3.7
		c2,6,4.1,12,5.8,18.1c1.6,5.5-1.2,10.2-6.5,12C721.3,336.8,719.9,337,718.7,337z"/>
	<path id="note" class="st3" d="M400.6,97.9c0.1,5.5-2.2,9.6-7.4,11.7c-1.7,0.7-2.4,1.8-2.6,3.6c-1.1,9.6-2.4,19.2-3.6,28.8
		c-0.2,2,0.8,2.5,2.5,2.2c4.3-0.6,9.7-7.3,9.2-11.6c-0.1-0.9-0.5-1.9-1.1-2.6c-0.5-0.7-1.2-1.8-2.3-1.1c-1,0.6-1.3,1.7-0.9,2.8
		c0.2,0.6,0.5,1.2,0.7,1.8c0.4,1.4,0,2.6-1.5,3.1c-1.4,0.5-2.5,0-3-1.2c-0.9-2.7-2.5-5.3-0.5-8.3c1.5-2.2,3.4-3.8,6.2-3.2
		c3.3,0.7,5.6,2.7,6.4,6.1c1.8,7.4-3.7,19-13.6,19.1c-2.3,0-3.3,0.9-3.9,3.2c-2.7,10.1-9.1,15.1-18.2,14.3c-5.2-0.4-9.3-3-11.4-7.9
		c-1.8-3.9-1-7.9,1.5-11.3c2.4-3.2,6-3.5,9.6-3.4c2.9,0.1,4.3,2.2,5.3,4.5c1.3,2.9-1.1,7.3-4.3,7.7c-1.4,0.2-2.7,0-3.3-1.4
		c-0.6-1.4,0.3-2.2,1.3-2.9c0.8-0.5,2-0.9,1.5-2.1c-0.5-1.3-1.8-1-2.8-0.9c-2.1,0.3-3.7,1.3-4.4,3.3c-0.8,2.2-0.6,4.2,0.9,6.1
		c4.9,5.7,14.5,4.4,17.6-2.4c0.9-2,1.4-4.3,2-6.5c0.6-1.9-0.9-2.5-2.1-3.2c-2.1-1.2-4.5-2.2-6.5-3.6c-7.8-5.1-9.3-17.3-3-24.2
		c4-4.5,9.2-7.5,14.5-10.2c1.9-0.9,2.7-2.1,3-4.1c0.5-3.3,1.2-6.6,1.9-9.8c0.9-4.2,2.7-5.8,6.2-5.7c2.9,0.1,5,2.2,5.8,6
		C400.6,95.8,400.5,96.9,400.6,97.9z M385,116.8c-0.9-0.8,2.3-4.6-1.9-2.9c-5.5,2.2-10,6-11.9,12c-1,3.1-1.6,6.4,0.6,9.3
		c2.1,2.8,5,4.7,8,6.4c1.6,0.9,2.3,0.4,2.5-1.4C383.1,132.4,384,124.7,385,116.8z M395.8,97.6c0-0.3,0-0.9-0.1-1.4
		c-0.1-0.7-0.2-1.6-1-1.8c-1.3-0.2-1.3,0.9-1.5,1.7c-0.4,2.2-0.8,4.4-1.1,6.7c-0.1,0.5-0.2,1.1,0.5,1.4c0.6,0.2,1-0.2,1.4-0.6
		C395.4,101.8,395.7,99.8,395.8,97.6z"/>
	<path id="circle2" class="st3" d="M616.3,107.7c0,11.2-8.9,20.2-20,20.3c-10.9,0-20.2-9.2-20.2-20.1c0-10.8,9.5-20.3,20.3-20.2
		C607.3,87.7,616.3,96.8,616.3,107.7z"/>
	<path id="circle1" class="st3" d="M230.4,110.4c3.7,5.3,3.9,9.2,0.4,13.6c-3.1,4-7.3,4.2-11.8,2.9l0-0.1c-0.5-0.9-0.9-1.9-1.6-2.7
		c-3.1-3.7-5.2-7.6-1.8-12.2c0.4-0.5,0.5-1.2,0.7-1.8c0.1-0.1,0.3-0.2,0.5-0.3c1.6,0.6,2.6-0.7,3.8-1.2c3.2-1.3,5.9,0.6,8.8,1.3
		C229.7,110.1,230.1,110.3,230.4,110.4z"/>
	<path id="note3" class="st3" d="M540.3,322c-0.1,7.7-6.9,14.3-14.6,14.2c-8.3-0.1-15-6.8-14.6-15.2c0.5-8.8,6.8-13.7,14.7-14.1
		C533.7,306.6,540.4,313.9,540.3,322z"/>
</g>
<g id="drumkit_00000011017686708103337800000002057017895589855383_">
	<g id="drum-color">
		<path class="st4" d="M311.8,582.2c0,0.3,0,0.7,0,1c0,8.6,0,8.5,8.6,9c3.1,0.2,6.1-0.3,9.2-0.3c2.3,0,3.4-2.6,3.2-4.5
			c-0.3-4.4,2.5-7.9,2.5-12.1c0-1.1,1.4-1.4,2.4-1.2c3.8,0.8,7.7,0.5,11.6,0.6c0.8,0,1.5,0.2,1.7,1.1c0.2,0.8-0.5,1.1-0.9,1.6
			c-3.2,3.8-6.4,7.7-9.5,11.5c-0.3,0.4-0.5,1.1-0.9,1.3c-5.2,3.7-7.5,9.7-11,14.7c-3.7,5.3-5.8,11.5-8.3,17.5
			c-1.6,3.8-2.6,8.1-3.8,12.1c-1.5,4.8-2.3,9.8-3.2,14.7c-2.1,11.7-2.2,23.4-0.1,35.2c1.7,9.1,3.5,18.1,6.6,26.7
			c1.6,4.3,3.7,8.4,3.9,13.1c0,1.1,0.1,2.1-0.2,3.1c-0.5,1.4-1.1,1.7-2.3,0.8c-8.8-6.4-19.4-8.2-29.6-11c-6.3-1.7-12.6-3.2-19-4.1
			c-2.1-0.3-1.6-2.1-1.3-3.6c1-5.2,1.2-10.5,2.9-15.5c0.5-1.4-0.5-2.2-1.8-2.5c-6.8-2-13.6-4-20.4-6.2c-2.5-0.8-2.8,0.7-3.2,2.3
			c-1.7,5.8-3.4,11.6-4.9,17.4c-0.7,2.5-1.5,3.3-4.5,2.8c-9.6-1.5-19.3-2.8-29.1-3.6c-5.6-0.5-11.2-0.6-16.8-0.4
			c-3.1,0.1-3.8-1.2-3.4-3.8c0.9-5.2,1.9-10.3,2.8-15.5c3-17,5.9-34,8.9-51c2.3-12.9,4.8-25.7,7.1-38.6c2.2-12.6,4.3-25.1,6.5-37.7
			c0.2-1.2,0.5-2.3,0.8-3.4c0.4-1.4,1.3-2,2.7-1.2c4.4,2.5,9.4,3.6,14.1,5.4c2.3,0.9,2.7,1.9,1.8,4.1c-1.7,4.2-3.1,8.5-4.7,12.7
			c-0.7,1.9-0.5,2.7,1.7,3c5.9,0.8,11.9,1.8,17.8,2.7c1.6,0.2,2-0.8,2.5-2c1.5-3.6,3-7.1,4.5-10.7c0.7-1.7,1.5-2.5,3.9-2.2
			c9.3,1.4,18.7,2.3,28.1,3.6c3.3,0.4,6.3,2.1,9.8,2.2c3.4,0.2,6.7,1.2,10.2,1.1c2.1-0.1,3.1,1.2,3.1,3.3
			C311.8,577.7,311.8,579.9,311.8,582.2z M223.3,565.7c0-1.5,0.1-3,0-4.5c-0.1-1.3-0.4-2.7-2.1-2.8c-1.8-0.1-1.9,1.4-2.1,2.7
			c-1.7,9.6-3.5,19.3-5.2,28.9c-6.2,35-12.4,69.9-18.6,104.8c-0.5,2.6,0.8,3.8,2.9,4.7c2.1,0.9,3.3-0.5,4.2-2
			c1.1-1.7,1.2-3.7,1.5-5.6c1.9-11.5,3.9-22.9,5.7-34.4c1.9-12.1,3.4-24.3,5.4-36.4c2-12.1,3.1-24.3,5.6-36.3
			C222,578.5,223.2,572.2,223.3,565.7z M265.1,584.5c0-2.6,0-5.2,0-7.8c0-0.7,0-1.5-0.7-1.7c-1-0.3-1.2,0.8-1.4,1.4
			c-1.4,3.7-2.8,7.5-4.1,11.2c-3.7,10.4-4.6,21.4-6.5,32.2c-1.4,8.3-3.1,16.5-4.4,24.8c-0.3,2-1.4,5.3,1.4,5.9
			c2.4,0.5,3.1-2.6,3.8-4.5c3.4-8.7,5.3-17.7,7-26.8C262.4,607.8,264.9,596.3,265.1,584.5z"/>
		<path class="st4" d="M320.1,668.9c1.1-22.5,5.8-44,17.5-63.6c2.8-4.7,7.1-8.3,10.4-12.8c9.5-12.8,22-22,36.3-28.8
			c13.7-6.6,28.1-10.4,43.4-11.3c9-0.5,17.8,0,26.6,1.5c11.7,2.1,23.1,5.4,33.6,11.2c5.8,3.2,11.2,6.9,16.4,11
			c4.3,3.4,8.5,6.9,12.5,10.5c6.2,5.5,11.2,11.9,14.8,19.4c1.7,3.5,4.2,6.4,5.8,9.8c5.4,11.3,9.7,23.1,11.1,35.5
			c1.4,11.8,1.6,23.9-0.7,35.6c-2.4,12.3-6.1,24.2-12.6,35.2c-3.7,6.2-7.3,12.6-12,18c-8.2,9.5-17.6,17.7-28.5,24.3
			c-8.3,5.1-16.8,9.7-26.2,12.3c-7.1,1.9-14.2,3.9-21.7,4.2c-5.3,0.2-10.7,0.8-16,0.6c-21.6-0.7-41.4-7-59.4-18.9
			c-17.1-11.3-30.2-26-39.5-44.2c-2.5-4.9-3.3-10.2-4.8-15.3c-1.8-6.3-3.2-12.7-5-19C320.7,679.2,320,674.1,320.1,668.9z
			 M436.7,768.1c0.1,0,1,0,2,0c8.2,0.2,16.1-0.8,23.9-3.4c4.3-1.5,8.6-3.2,12.9-4.7c7.7-2.7,14.2-7.3,20.6-11.8
			c4.9-3.4,9.6-7.6,13.4-12.4c3.4-4.2,7-8.3,10.4-12.5c1.4-1.8,2.8-3.7,3.4-5.8c0.9-3.4,3-6.2,4.1-9.5c1.4-4.2,3.9-8,5-12.5
			c1.7-6.6,3-13.2,3.3-19.9c0.5-12.7,0.3-25.3-3.5-37.6c-0.4-1.3,0-2.8-0.8-4c-3.3-4.8-4.9-10.5-7.5-15.6
			c-3.5-7.2-8.3-13.4-13.4-19.3c-9.3-10.8-21-18.5-33.7-24.7c-4.2-2.1-8.7-3.1-13-4.7c-2.8-1-5.9-1-8.8-1.6c-13.8-3-27.5-3-41.2,0
			c-27,5.8-48.5,20.2-63.7,43.2c-15.9,24.2-20.6,50.7-14.1,78.9c6,26.2,20.6,46.7,42.9,61.5C395.9,763,415,768.6,436.7,768.1z"/>
		<path class="st5" d="M436.7,768.1c-21.6,0.6-40.8-5.1-57.9-16.5c-22.2-14.8-36.9-35.3-42.9-61.5c-6.5-28.2-1.8-54.8,14.1-78.9
			c15.2-23.1,36.7-37.4,63.7-43.2c13.7-3,27.5-3,41.2,0c2.9,0.7,6.1,0.6,8.8,1.6c4.3,1.6,8.8,2.7,13,4.7
			c12.7,6.3,24.4,13.9,33.7,24.7c5.1,5.9,9.8,12.1,13.4,19.3c2.5,5.2,4.1,10.9,7.5,15.6c0.9,1.3,0.4,2.7,0.8,4
			c3.9,12.3,4,24.9,3.5,37.6c-0.3,6.7-1.6,13.3-3.3,19.9c-1.1,4.5-3.6,8.3-5,12.5c-1.1,3.3-3.2,6.1-4.1,9.5c-0.5,2.1-2,4-3.4,5.8
			c-3.4,4.3-7,8.3-10.4,12.5c-3.9,4.8-8.5,9-13.4,12.4c-6.4,4.5-12.9,9.1-20.6,11.8c-4.3,1.5-8.5,3.2-12.9,4.7
			c-7.8,2.6-15.8,3.6-23.9,3.4C437.7,768.1,436.7,768.1,436.7,768.1z M434.8,761.1c2.8,1.1,5.6,0.2,8.4-0.3c2.2-0.2,4.5-0.1,6.7-0.5
			c17.9-3,33.8-10.3,47.1-22.5c24.6-22.5,35.2-50.5,31.1-83.8c-2.6-20.7-11.7-38.3-26-53.2c-10.9-11.3-24.1-19.3-39.2-24
			c-6.1-1.9-12.3-3.9-18.9-3.4c-7-2.3-14.1-1.3-21.1-0.4c-24.5,3.2-45,14.3-60.8,33.4c-19.5,23.6-26.8,50.9-19.8,80.7
			c8.9,38.2,33.4,62.2,71.3,72.2c5.6,1.5,11.6,2.4,17.5,1.6C432.3,760.9,433.5,761,434.8,761.1z"/>
	</g>
	<g id="shine">
		<path class="st6" d="M265.1,584.5c-0.2,11.8-2.7,23.3-4.8,34.8c-1.7,9.1-3.6,18.2-7,26.8c-0.8,1.9-1.4,5.1-3.8,4.5
			c-2.8-0.7-1.7-3.9-1.4-5.9c1.3-8.3,2.9-16.5,4.4-24.8c1.9-10.8,2.8-21.8,6.5-32.2c1.3-3.8,2.7-7.5,4.1-11.2
			c0.2-0.7,0.4-1.7,1.4-1.4c0.7,0.2,0.7,1,0.7,1.7C265.1,579.3,265.1,581.9,265.1,584.5z"/>
		<path class="st6" d="M582.2,431.6c2,1.3,2.1,2.6,2.4,3.7c5.5,21.2,10.9,42.5,16.3,63.8c0.8,3.3,1.5,6.7,1.5,10.2
			c0,1-0.1,2-0.4,2.8c-0.6,1.4-1.5,2.9-3.2,2.7c-1.6-0.2-2.5-1.5-2.8-3.1c-1.4-7.2-2.9-14.3-4.4-21.5c-2.2-10.7-4.8-21.4-6.6-32.2
			C583.5,449.5,583.1,440.9,582.2,431.6z"/>
		<path class="st6" d="M552.8,443.7c0.8,1.2,0.3,2.4,0,3.6c-1.6,6.8-2.2,13.8-3,20.7c-0.6,4.8,0.8,9.4,2.4,13.8
			c0.7,2,1.2,4.1,1.5,6.2c0.1,0.8,0.1,1.6-0.8,1.9c-0.9,0.4-1.4-0.2-1.9-0.8c-5.6-7.3-9.8-15-7.9-24.6c1.4-7.3,4.8-13.7,8.3-20.2
			C551.7,444,552.1,443.6,552.8,443.7z"/>
		<path class="st6" d="M297.7,450.3c-0.4,12.4-2.9,24.6-6.2,36.5c-2.9,10.1-4.3,20.4-5.4,30.8c-0.3,2.7-0.6,5.4-1.6,7.9
			c-1,2.5-2.6,2.8-4.3,0.6c-2-2.6-2.5-5.7-1.8-8.9c3.5-15.1,7-30.2,10.5-45.3c2.1-8.8,4.2-17.6,6.4-26.3c0.2-0.7-0.1-2,1.1-2
			c1.3,0.1,1.2,1.4,1.2,2.3C297.7,447.3,297.7,448.8,297.7,450.3z"/>
		<path class="st6" d="M309.1,514.5c-0.1-6.8-0.2-13.7,1.4-20.4c2.8-11.8,5.8-23.6,6-35.9c0-1.7,0.4-3.4,0.8-5.1
			c0.5-1.7,1.2-3.7,3.4-3c2,0.6,3.9,1.9,3.5,4.6c-0.8,7-1.5,14.1-2.4,21.2c-1.7,12.8-6.6,24.7-10.9,36.7c-0.2,0.7-0.7,1.3-1,1.9
			C309.6,514.6,309.4,514.6,309.1,514.5z"/>
		<path class="st6" d="M223.3,565.7c-0.1,6.5-1.4,12.8-2.6,19.2c-2.5,12-3.6,24.2-5.6,36.3c-2,12.1-3.6,24.3-5.4,36.4
			c-1.8,11.5-3.8,22.9-5.7,34.4c-0.3,1.9-0.5,3.9-1.5,5.6c-1,1.5-2.2,2.8-4.2,2c-2.1-0.8-3.3-2.1-2.9-4.7
			c6.2-34.9,12.4-69.9,18.6-104.8c1.7-9.6,3.5-19.3,5.2-28.9c0.2-1.3,0.3-2.8,2.1-2.7c1.6,0.1,2,1.5,2.1,2.8
			C223.4,562.6,223.3,564.2,223.3,565.7z"/>
		<path class="st6" d="M635.5,357.2c2.1-4.9,5.9-7.1,9.9-9c9.9-4.9,20.5-6.7,31.4-7.5C662.6,344.8,649.6,351.7,635.5,357.2z"/>
		<path class="st6" d="M319.7,578.2c0-1.1,0.1-2.2,0-3.2c-0.2-2.1,0.4-2.8,2.7-2.6c5.5,0.4,5.5,0.3,4.4,5.8c-0.2,1-0.4,2.1-0.6,3.2
			c-0.6,3.2-2.1,4-5.2,3.3c-1.1-0.3-1.4-0.9-1.4-1.8c0-1.5,0-3,0-4.5C319.6,578.2,319.6,578.2,319.7,578.2z"/>
		<path class="st6" d="M245.3,572.5c-6.8-0.4-6.8-0.4-4.6-6.5c2.2-6.3,3.4-6.8,9.5-4.2c1,0.4,1.5,0.8,1,1.9
			c-1.1,2.6-2.2,5.1-3.4,7.7C247.3,572.6,246.4,572.8,245.3,572.5z"/>
		<path class="st6" d="M319,544.2c-0.3-0.1-0.7-0.2-1-0.4c-0.7-2-0.3-3.5,2-4.2c0.5-0.1,1.1-0.5,1.2-0.9c0.7-3.6,4-5.2,5.9-7.8
			c0.5-0.7,1-1.2,1.8-0.8c0.7,0.3,1.4,0.8,1.4,1.7c0,4,1.8,7.6,2.4,11.4c0.1,0.8,0.4,1.4,1.4,1.5c0.1,0.3,0.2,0.6,0.2,0.9
			c-1.7,1.2-3.5,3.2-4.6-0.6c0-0.1-0.4-0.4-0.5-0.3c-3.2,1.6-5.7-1.2-8.6-1.4C319.8,543.3,319.2,543.2,319,544.2z"/>
		<path class="st6" d="M538.9,541.5c-1.8,0.2-2.2-0.4-2-1.7c0.9-4.3,1.8-8.6,2.6-13c0.3-1.7,0.9-1.8,2-0.7c3.7,3.6,7.4,7.2,11,10.8
			c0.9,0.8,1.3,1.7-0.3,2C547.7,539.9,543,540.7,538.9,541.5z"/>
		<path class="st6" d="M575.2,618.3c0.7-1.6,2.1-2,3.5-2.5c7.1-2.8,13.8-6.4,20.2-10.5c3.8-2.4,5.7-5.3,4.3-9.9
			c-0.4-1.2-0.3-2.5-0.4-3.8c0.3-1,0.5-1.9-0.4-2.7c-0.4-2.9,0.1-5.8,0.5-8.7c0.2-1.4,0.4-2.6,2.2-2.6c1.6-0.1,2.8,0.7,3.1,2.2
			c0.9,4.4,1.8,8.8,2.5,13.3c0.8,5,1.4,10,2.2,15c0.4,2.9-0.9,4.2-3.6,4.6c-7.1,1-14.1,2.8-21.2,3.8
			C583.7,617.2,579.4,617.8,575.2,618.3z"/>
	</g>
	<g id="top-drum">
		<path class="st7" d="M285.8,561.5c-12-1.5-23.8-3.8-35.5-6.4c-6.1-1.3-12.1-3-18.1-4.6c-2.1-0.5-4-1.3-6.3-2.1
			c1.1-1.3,2.4-0.9,3.5-0.9c10.4-0.2,20.7,0.2,30.9,1.6c8,1.1,16,2.1,23.7,4.4C284.2,556.2,287.1,558.3,285.8,561.5z"/>
		<path class="st8" d="M285.8,561.5c1.3-3.1-1.6-5.2-1.8-8c5.6-0.1,11,1.7,16.5,2.6c13.2,2.2,26.3,4.6,39.5,7
			c1.9,0.3,3.8,0.6,5.4,1.9c0.5,0.4,1.3,0.6,1.2,1.4c-0.1,0.8-1,0.7-1.6,0.7c-7-0.3-14-0.4-20.9-0.9c-7.5-0.6-14.9-1.5-22.3-2.4
			C296.4,563,291.1,562.2,285.8,561.5z"/>
		<path class="st8" d="M236.6,713c8.3,0.4,16.4,2.6,24.5,4.3c14.4,3,28.6,6.9,42.6,11.3c4.5,1.4,9.1,3,13.3,5.8
			c-6.4,0.6-12.8,1-19.1-0.2c-19.5-3.9-39-7.7-58.5-11.5c-0.5-0.1-0.9-0.5-1.3-0.7C238.7,718.8,237.3,716,236.6,713z"/>
		<path class="st7" d="M241.6,714.2c0.6,2.3,1.8,4.6,1.3,7.1c-7.9-0.5-15.6-2.7-23.4-3.8c-8.5-1.2-16.4-4.1-24.5-6.8
			c-0.6-0.2-1.1-0.6-1.6-1.5c3.6,0,7.3-0.2,10.9,0c10.7,0.5,21.3,2.3,32,3.6C238.1,713.1,239.8,713.6,241.6,714.2z"/>
		<path class="st6" d="M265.3,697c-1,4.3-1.9,8.1-2.7,11.8c-0.3,1.2-1,1.8-2.3,1.5c-3.2-0.7-6.3-1.3-9.5-1.8
			c-2.1-0.3-2.1-1.3-1.6-2.9c1.1-3.7,2.2-7.4,3.3-11.2c0.5-1.7,1.2-2.5,3.3-1.8c2.5,1,5.2,1.5,7.7,2.3
			C264.6,695.4,265.7,695.9,265.3,697z"/>
		<path class="st7" d="M442.1,759.8c-2.8,0.5-5.5,1.4-8.4,0.3c3.1-1.9,3.2-2.8,0.1-4.8c-2.4-1.6-5-2.9-7.7-4.1
			c-16.3-7.3-32.8-14.2-46.9-25.6c-7.5-6.1-13.7-13.2-15.9-22.9c-1.9-8.3-3.7-16.5-4.3-25.1c-0.7-10.9-0.5-21.7,2.6-32.3
			c5.2-17.6,16.2-31,30.6-42c5.8-4.4,12.6-6.9,18.9-10.3c3.8-2.1,7.6-4.1,10.7-7.2c2.2-2.1,1.9-3.1-0.8-4.1
			c-3.2-1.2-6.2-0.8-9.4,0.5c-16.6,7-31.6,16.3-43.6,29.9c-7.2,8.2-12.9,17.3-15.4,28c-3.7,15.9-4.9,32-2.9,48.3
			c3,24.4,15.9,42.4,36.1,55.3c12,7.7,26,11.4,39.8,14.8c1.4,0.3,3.1-0.6,4,1.2c-6,0.8-11.9-0.1-17.5-1.6
			c-37.9-10-62.4-34-71.3-72.2c-6.9-29.8,0.3-57,19.8-80.7c15.8-19.1,36.3-30.1,60.8-33.4c7-0.9,14.1-1.9,21.1,0.4
			c0.1,1.8,1.8,2.7,2.9,3.7c14.9,14.4,28.7,29.6,39.2,47.6c10.8,18.5,18.2,37.8,16.3,59.8c-0.6,7-2.1,13.8-4.8,20.3
			c-8.2,20.2-23.3,34.7-40.8,46.9C451.2,753.8,446.4,756.4,442.1,759.8z"/>
		<path class="st8" d="M442.1,759.8c4.2-3.5,9-6,13.5-9.1c17.5-12.2,32.6-26.7,40.8-46.9c2.6-6.4,4.1-13.2,4.8-20.3
			c1.9-22-5.5-41.3-16.3-59.8c-10.5-18-24.3-33.2-39.2-47.6c-1.1-1.1-2.7-1.9-2.9-3.7c6.6-0.5,12.8,1.5,18.9,3.4
			c15,4.7,28.2,12.7,39.2,24c14.4,14.9,23.5,32.5,26,53.2c4.1,33.2-6.5,61.3-31,83.8c-13.3,12.2-29.2,19.5-47.1,22.5
			C446.6,759.7,444.4,759.7,442.1,759.8z"/>
		<path class="st9" d="M430,759.8c-0.9-1.8-2.7-0.9-4-1.2c-13.8-3.4-27.7-7.1-39.8-14.8c-20.1-12.9-33-30.9-36.1-55.3
			c-2-16.3-0.9-32.4,2.9-48.3c2.5-10.7,8.2-19.8,15.4-28c12-13.6,27-22.9,43.6-29.9c3.1-1.3,6.1-1.7,9.4-0.5c2.7,1,3,2,0.8,4.1
			c-3.1,3-6.9,5.1-10.7,7.2c-6.3,3.4-13.1,5.9-18.9,10.3c-14.5,11-25.5,24.3-30.6,42c-3.1,10.6-3.3,21.3-2.6,32.3
			c0.6,8.5,2.4,16.8,4.3,25.1c2.2,9.7,8.4,16.8,15.9,22.9c14.1,11.4,30.6,18.3,46.9,25.6c2.6,1.2,5.3,2.5,7.7,4.1
			c3.1,2,3,2.9-0.1,4.8C432.5,760,431.3,759.9,430,759.8z"/>
	</g>
	<path id="chair" class="st10" d="M575.2,618.3c-5.1,0.8-10.1,1.7-15.2,2.2c-2.1,0.2-3.7,1.3-5.8,1.5c-4.6,0.4-6.7-0.3-8.8-4.4
		c-1.6-3.1-2.6-6.6-4.7-9.5c-1.6-2.2-0.5-4.4,0.5-6.3c2.3-4.2,4.8-8.3,6.7-12.7c0.5-1.2,1.6-2.4,3.1-2.7c8.7-1.6,17.5-3.2,26.4-3.9
		c1.6-0.1,2.8-0.9,4.2-1.3c4.9-1.5,6.8,2.2,9.1,5.2c2.6,3.4,5.2,6.8,7.8,10.2c0.4,0.5,0.8,1.2,1.5,1c0.8-0.2,1-1.1,1.1-1.8
		c0.3-1.7-0.2-3.5,0.9-5c0.3,0.3,0.6,0.5,0.9,0.8c0.1,1.3,0.1,2.6,0.4,3.8c1.4,4.6-0.5,7.5-4.3,9.9c-6.4,4.1-13.1,7.6-20.2,10.5
		C577.3,616.3,575.8,616.8,575.2,618.3z"/>
	<path class="st3" d="M150.2,388.7c15.5-16.1,30.7-32.4,46.5-48.1c7.2-7.2,13.4-14.7,15.7-24.7c-2.1-1.1-4.1-2.2-6.1-3.3
		c-1.2,3.7-2.5,7.3-3.7,11c-0.3,0.9-0.7,1.9-1.4,2.5c-15.9,16.5-31.9,32.9-47.9,49.3c-5.6,5.8-11.1,11.7-16.7,17.5
		c-25.2,26.1-50.5,52.2-75.8,78.3c-7.9,8.1-15.7,16.3-23.7,24.4c-1.6,1.7-2.2,3.1-0.4,5c2,2.1,3.5,1.6,5.4-0.3
		c11.7-12.2,23.5-24.3,35.2-36.5c19.7-20.4,39.4-40.8,59.1-61.2c0.6-0.6,1-2,2.1-1.5c1,0.5,0.5,1.7,0.5,2.6c0,83,0,166,0,249.1
		c0,3.9,0.1,7.4-3,10.9c-5,5.5-8.8,12.1-13.4,18c-8.3,10.5-15.8,21.5-23.9,32c-2.8,3.6-4.7,7.9-8.8,10.4c-1,3.5-3.7,6-5.8,8.8
		c-1.4,1.8-1.8,3.5,0.4,4.8c1.8,1,3.7,2.2,5.1-0.6c0.4-0.8,1.1-1.6,1.7-2.3c3.7-4.3,6.4-9.3,10.4-13.3c1.4-3.7,4.3-6.3,6.5-9.5
		c0.6-0.8,1.4-1,2.2-0.2c2,2.2,4.7,3.7,6.3,6.4c1.4,0.3,2.1,1.5,3,2.3c3.9,3.5,7.6,7.3,11.7,10.6c5,4.1,9.3,8.3,7.8,15.6
		c-0.3,1.5,0.1,3.2-0.1,4.8c-0.1,2,0.4,3.4,2.7,3.6c2.2,0.2,3.8-0.4,4.2-2.9c0.3-1.6,0.2-3.2-0.1-4.8c-0.9-5.1-0.6-9.7,3.6-13.5
		c1.7-1.5,3-3.6,4.5-5.4c4.1-4.9,8.3-9.8,12.5-14.7c1.4-1.6,2.3-1.6,3.3,0.4c1.3,2.6,2.9,5,4.4,7.5c3.4,5.8,6.9,11.6,10.3,17.5
		c1.2,2.2,2.9,1.6,4.4,0.6c1.4-0.8,2.8-2.1,1.6-4c-5.6-8.5-9.7-17.9-15.7-26.1c-6.5-11-13-22.1-19.4-33.1c-3-5.2-6.3-10.2-8.8-15.7
		c-0.6-1.4-0.9-2.8-0.9-4.3c0-87,0-174,0-261C145.7,392.2,147.4,390.1,150.2,388.7z M137.1,681c0,12.6-0.1,25.1-0.2,37.7
		c0.1,3.4,0.1,6.9,0.2,10.3c0,2-0.8,2.8-2.4,1.3c-3.6-3.3-8.2-5.5-11.1-9.5c-3.9-2.6-6.7-6.3-10-9.4c-1.1-1-1.1-2.2-1.1-3.5
		c-0.8-1-0.2-1.1,0.6-1.2c3.9-6.5,8.9-12.2,13.2-18.4c2.1-3,4.4-5.8,6.6-8.7c0.8-1,1.8-2.1,3.2-1.7C137.8,678.5,137.1,680,137.1,681
		z M144.2,678.5c0.7,0,1,0.5,1.1,1.1c0.7,1.1,1.4,2.1,2,3.2c0.9,0.1,1.3,0.5,1,1.5c4.1,7,8.1,14.1,12.1,21.1
		c2.4,2.6,2.3,4.9-0.1,7.1c-1.4,1.4-2.4,3.3-4.4,4.1c-0.2,2.6-2.6,3.6-3.9,5.3c-1.9,2.5-3.9,4.8-6,7.1c-0.5,0.5-1.1,1.1-1.9,0.7
		c-0.7-0.3-0.6-1.1-0.6-1.7c0.1-3.5-0.3-7.1,0.3-10.6c-0.1-11.1-0.1-22.2-0.2-33.4c0-1.5,0-3-0.1-4.5
		C143.6,679,143.6,678.5,144.2,678.5z"/>
	<path class="st3" d="M619.3,610.9c-0.9-1.1-0.9-2.2,0-3.3c0-0.6,0-1.3,0-1.9c-0.1-0.2-0.2-0.4-0.3-0.6c-0.8-0.2-1.2-0.6-0.3-1.3
		c0.1-0.5,0.1-0.9,0.2-1.3c-0.1-0.2-0.2-0.4-0.3-0.6c-1.3-0.3-1.4-1-0.5-1.9c0-0.6,0.1-1.3,0.1-1.9c-0.1-0.2-0.2-0.5-0.3-0.7
		c-1.2-0.4-1.2-1.1-0.4-1.9c0.1-0.4,0.1-0.9,0.2-1.3h-0.2c-1.6-0.6-1.2-1.5-0.5-2.5c0-0.4,0.1-0.9,0.1-1.3c-0.1-0.9-0.2-1.7-0.4-2.6
		c-0.6-0.6-0.6-1.2-0.3-1.9c-0.1-0.7-0.2-1.3-0.3-2c-0.6-0.5-0.6-1.2-0.4-1.9c-0.2-0.5-0.3-0.9-0.5-1.4c-0.8-0.3-1.1-0.6-0.2-1.2
		c-0.5-4.1-2.8-6.6-6.6-7.9c-1.9,0-3.8,0-5.7,0c-0.5,0.1-0.9,0.2-1.4,0.2c-0.6,0.6-1.2,0.6-1.9,0.3c-0.9,0.1-1.8,0.2-2.7,0.3
		c-0.5,0.6-1.2,0.6-1.9,0.3c-0.7,0.1-1.3,0.2-2,0.2c-0.7,0.7-1.6,0.7-2.5,0.4c-0.5,0.1-1,0.2-1.4,0.3c-1.8,0.9-3.8,1.1-5.8,1
		c-0.6,0.1-1.3,0.2-1.9,0.3c-0.5,0.6-1.2,0.6-1.9,0.3c-0.9,0.1-1.8,0.2-2.7,0.4c-0.6,0.6-1.2,0.7-1.9,0.3c-0.7,0.1-1.3,0.2-2,0.4
		c-0.8,0.8-1.6,0.6-2.5,0.4c-0.7,0.1-1.3,0.2-2,0.2c-1.6,0.9-3.4,1.1-5.2,0.9c-0.9,0.1-1.8,0.2-2.7,0.4c-0.7,0.7-1.6,0.7-2.5,0.4
		c-0.5,0.1-0.9,0.1-1.4,0.2c-0.6,0.6-1.2,0.6-1.9,0.3c-0.7,0.1-1.3,0.2-1.9,0.3c-0.7,0.8-1.6,0.7-2.5,0.5c-0.7,0.1-1.3,0.2-2,0.3
		c-0.5,0.6-1.2,0.6-1.9,0.3c-0.5,0.1-0.9,0.2-1.4,0.2c-0.7,0.8-1.6,0.7-2.5,0.4c-0.7,0.1-1.3,0.2-2,0.3c-0.6,0.6-1.2,0.7-1.9,0.3
		c-0.5,0.1-0.9,0.2-1.3,0.3c-0.7,0.8-1.6,0.6-2.5,0.4c-0.7,0.1-1.3,0.2-2,0.3c-0.5,0.6-1.2,0.7-1.9,0.3c-0.7,0.1-1.3,0.2-2,0.3
		c-1,0.8-2.1,0.5-3.2,0.4c-1.4,0.7-2.4,0.3-3.4-0.8c-7.6-8-16.3-14.7-25.7-20.5c-1.1-0.1-2.1-0.6-2.8-1.6c-4.3-2.1-8.5-4.1-12.8-6.2
		c-0.7,0.2-1.2-0.1-1.6-0.7c-0.8-0.3-1.7-0.6-2.5-0.8c-0.2-0.1-0.5-0.2-0.7-0.3c-0.8-0.3-1.5-0.5-2.3-0.8c-1.2,0.1-2.2-0.4-3.2-1.1
		c-1.8-0.5-3.5-1-5.3-1.4c-0.7,0.2-1.4,0.2-1.9-0.5c-0.4-0.1-0.9-0.2-1.3-0.3c-0.9,0.2-1.4,0-1.4-1c0.1-0.7,0.2-1.3,0.2-2
		c-0.2-0.5-0.2-0.9,0.3-1.3c0.1-0.7,0.2-1.3,0.4-2c-0.3-0.5-0.2-0.9,0.2-1.2c0.1-0.5,0.2-0.9,0.3-1.4c-0.2-0.7-0.2-1.3,0.4-1.8
		c0.6-3,1.1-6.1,1.7-9.1c-0.2-0.5-0.2-0.9,0.3-1.2c0.1-0.5,0.2-0.9,0.2-1.4c-0.3-0.7-0.2-1.3,0.4-1.8c0.1-0.7,0.2-1.3,0.3-2
		c-0.2-0.5-0.2-0.9,0.3-1.3c0.1-0.7,0.3-1.3,0.4-1.9c-0.3-0.5-0.2-0.9,0.2-1.3c0.1-0.8,0.3-1.7,0.4-2.5c-0.2-0.5-0.2-1,0.2-1.3
		c0.1-0.5,0.2-0.9,0.3-1.4c-0.2-1.1-0.1-2.1,0.8-3c0,0,0.1,0,0.1,0.1c-0.5-3.7-1.3-7.4-1.8-11.1c-0.9,0.1-1.8,0-2.6-0.4
		c0,0.4-0.2,0.7-0.6,0.9c-0.1,0.7-0.3,1.4-0.4,2c0.5,0.5,0.4,0.9-0.2,1.1c-0.1,0.4-0.2,0.8-0.3,1.2c0.3,0.8,0.4,1.5-0.4,2
		c-0.1,0.4-0.1,0.8-0.2,1.2c0.3,0.8,0.4,1.5-0.4,2.1c-0.1,0.6-0.2,1.1-0.4,1.7c0.3,0.6,0.4,1.1-0.2,1.5c-0.1,0.6-0.2,1.2-0.3,1.8
		c0.4,0.8,0.5,1.6-0.4,2.2c-0.1,0.5-0.2,0.9-0.3,1.4c0.6,0.7,0.5,1.3-0.3,1.7c-0.1,0.6-0.2,1.2-0.3,1.8c0.4,0.6,0.3,1.1-0.3,1.5
		c-0.1,0.7-0.3,1.4-0.4,2c0.5,0.5,0.4,0.8-0.2,1.1c-0.1,0.4-0.2,0.8-0.3,1.3c0.3,0.8,0.4,1.5-0.4,2.1c-0.1,0.7-0.3,1.4-0.4,2
		c0.6,0.7,0.5,1.4-0.4,1.8c-0.1,0.5-0.2,0.9-0.3,1.4c0.5,0.5,0.4,0.8-0.2,1.1c-0.1,0.8-0.3,1.7-0.4,2.5c0.3,0.5,0.4,1-0.3,1.4
		c-0.1,0.4-0.2,0.8-0.3,1.2c0.3,0.8,0.4,1.5-0.4,2c-0.1,0.6-0.2,1.2-0.3,1.8c-0.2,3.6-0.6,4-3.6,2.7c-0.5-0.1-0.9-0.2-1.4-0.2
		c-1.3,0.5-2.5,0.7-3.7-0.4c-0.8,0-1.7-0.1-2.5-0.1c-5.9,0.3-11.8,0.3-17.8,0c-0.8,0.1-1.7,0.1-2.5,0.2c-0.9,1-1.8,1.1-2.6-0.2
		c-0.4-1-0.7-2-1.1-3c-0.7-0.3-0.8-0.9-0.5-1.5c-0.1-0.4-0.2-0.8-0.3-1.2c-0.6-0.2-0.8-0.6-0.2-1.1c-0.1-0.5-0.3-0.9-0.4-1.4
		c-0.7-0.4-0.7-0.9-0.4-1.5c-0.3-1-0.6-2-0.9-3c-1.1-1.7-1.7-3.7-1.5-5.7c-0.1-0.5-0.2-0.9-0.3-1.4c-0.7-0.4-0.8-0.9-0.5-1.5
		c-0.1-0.4-0.2-0.8-0.3-1.1c-0.6-0.3-0.8-0.6-0.3-1.1c-0.1-0.5-0.3-0.9-0.4-1.3c-0.9-0.9-1.2-1.9-0.9-3.2c-0.1-0.5-0.3-1-0.4-1.4
		c-0.6-0.3-0.7-0.8-0.4-1.4c-0.1-0.4-0.2-0.8-0.3-1.3c-0.9-1-1.2-2.1-0.9-3.4c-0.1-0.4-0.2-0.8-0.3-1.2c-0.6-0.3-0.6-0.8-0.4-1.4
		c-0.3-1.2-0.6-2.4-0.9-3.6c-0.2,0.6-0.4,1.3-0.5,1.9c-1,3.4-2,6.8-3,10.2c0.8,2.9,1.6,5.9,2.4,8.8c1.8,6.5,3.5,13.1,5.4,19.6
		c0.4,1.5,0.5,2.5-1.4,2.8c-7.2,1.3-14.2,3.3-21.1,6c0,0-0.1,0-0.1,0c-1.9,1.9-4.1,3.5-6.9,4.7c-10.5,4.4-22.5,2.4-33.5,1.6
		c-13.7-1-27.4-2.3-39.8-8.5c-0.8-0.4-1.4-1.1-1.9-1.9c-0.8-0.2-1.7-0.3-2.5-0.4c-0.4-0.2-0.9-0.4-1.3-0.6c-0.8,0.3-1.4,0.2-2-0.4
		c-0.6-0.1-1.2-0.2-1.9-0.3c-0.8,0.4-1.4,0.3-2-0.3c-0.8-0.1-1.7-0.2-2.5-0.4c-0.7,0.3-1.4,0.4-2-0.3c-0.4-0.1-0.9-0.2-1.3-0.2
		c-2.3,0.2-4.4,0-6.5-1c-0.8-0.1-1.7-0.2-2.5-0.4c-0.7,0.4-1.4,0.4-2-0.3c-0.6-0.1-1.2-0.2-1.9-0.2c-1.1,0.3-2.3,0.4-3.3-0.4
		c-0.6-0.1-1.3-0.2-1.9-0.2c-2.9,0.3-5.7-0.1-8.5-1c-0.6-0.1-1.3-0.2-1.9-0.2c-1.4,0.3-2.7,0.5-3.9-0.4c-1.1-0.1-2.1-0.2-3.2-0.3
		c-1.6,0.3-3.1,0.5-4.6-0.4c-1.1-0.1-2.1-0.2-3.2-0.2c-1.8,0.2-3.6,0.7-5.2-0.4c-3.5-0.1-7-0.2-10.4-0.3c-1.1,0.5-2.1,0.5-3.1-0.2
		c-0.9,0-1.8,0-2.7,0c-1,0.8-2.1,0.6-3.2,0.2c-0.6,0.1-1.3,0.2-1.9,0.3c-0.5,0.8-1.2,0.7-2,0.5c-0.4,0.1-0.8,0.2-1.3,0.3
		c-0.3,0.5-0.8,0.6-1.3,0.4c-5,2.6-8.5,6.3-9.2,12.3c-0.4,3.1-1,6.2-1.5,9.2c-1.9,10.7-3.9,21.3-5.9,32c-1.9,10.9-3.7,21.8-5.6,32.7
		c-4.6,25.5-9.2,51-13.8,76.5c-0.5,2.7-0.3,5.3,1.2,7.8c4.9,3.8,10.4,6.7,16.3,8.2c13.3,3.5,26.6,7,40.1,9.7
		c12.8,2.5,25.7,4.8,38.7,6.6c10.1,1.4,20.3,2,30.3,4.2c7.5,1.6,13.8-1.2,18.9-6.5c2.9-3,2.7-3.2,5.4,0.3c0.1,0.1,0.1,0.2,0.2,0.2
		c2.9,3.8,2.8,4.1-0.8,7.2c-9.3,7.8-18.5,15.7-27.8,23.5c-1.1,1-2.1,2.2-2.2,3.8c0,4.5,0,9.1,0,13.6c0,2.2,1.4,2.9,3.4,2.9
		c2.1,0,3.6-0.6,3.6-3c0-2.8,0.2-5.6,0-8.4c-0.3-3,0.9-4.9,3-6.7c8.7-7.3,17.4-14.7,26-22.2c1.3-1.2,2.1-1,3.2,0.2
		c1.5,1.8,3,3.6,4.7,5.3c9.3,9.2,19.5,17,31.1,23.2c16.7,9,34.6,13.1,53.4,14.1c6.4,0.3,12.6-0.4,19-1.2
		c14.7-1.8,28.5-6.2,41.5-13.2c8.8-4.8,17-10.5,24.5-17.2c5.7-5.2,5.8-4.9,10.8,1.2c3.1,3.8,5.1,7.7,4.5,12.8
		c-0.5,3.7,0.1,7.5-0.1,11.3c-0.2,2.9,1.6,3.6,3.8,3.7c2.3,0.1,3.5-1.2,3.4-3.7c-0.1-5.2-0.2-10.4,0-15.5c0.2-3.6-0.7-6.5-3.1-9.1
		c-1.6-1.8-3-3.7-4.7-5.3c-1.8-1.7-1.8-3,0-4.9c8.5-9.2,17.5-17.9,26.2-26.8c0.5-0.6,0.9-1.5,2.2-1.2c0,3.6,0.1,7.3,0,10.9
		c-0.1,2.7,0.8,3.9,3.7,4c3.2,0.1,3.5-1.5,3.4-4c-0.1-2.7,0-5.3,0-8c3.6,3.9,6.3,7.9,9,11.9c3.8,5.6,7.6,11.2,11.4,16.8
		c2.3,3.3,4,3.4,6.4,0.8c1.3-1.4,1.1-2.5,0.1-4c-8.6-12.4-17-24.8-25.6-37.2c-1-1.5-1.6-3-1.1-4.8c0.3-1.2,0.2-2.5,0.3-3.8
		c-0.3-8,0.9-16,0.9-24c0-1.5-0.1-3-0.1-4.5c-0.5-2-1.5-4,0.5-5.7l0.2,0c-0.5-1.5-0.2-3-0.1-4.6c-0.5-2-1.4-4,0.6-5.7
		c0.1-2.4,0.2-4.8,0.3-7.2c-1.2-1.2-1.3-2.2,0.2-3.1c0.4-2.2,0.6-4.3,0.4-6.5c-1.2-1.5-1.3-3.1,0.2-4.5c0.2-1.7,0.3-3.4,0.5-5.1
		c-0.5-1.3-0.2-2.7-0.2-4c-0.7-1-0.3-1.2,0.7-1.1c0.2,0,0.4-0.2,0.5-0.3c1.2-1.6,2.7-2,4.5-1.1c0.6,0,1.3,0,1.9,0.1
		c0.2-0.1,0.5-0.2,0.7-0.3c1.5-1.4,3.2-2,5.2-1c0.4,0,0.8,0.1,1.2,0.1c0.3-0.1,0.5-0.2,0.8-0.3c0.6-1.5,1.4-1.3,2.4-0.4
		c0.7-0.1,1.4-0.3,2-0.4c0.2-0.9,0.6-1,1.3-0.3c0.4,0,0.8,0.1,1.3,0.1c0.4-0.1,0.9-0.3,1.3-0.4c0.2-0.9,0.6-1.2,1.3-0.4
		c0.6,0,1.3,0,1.9,0c0.2-0.1,0.4-0.2,0.7-0.3c0.3-0.9,0.7-1.1,1.3-0.2c0.7-0.1,1.3-0.2,2-0.3c0.3-1.3,1-1.3,1.9-0.5
		c0.7,0,1.3,0,1.9,0l0-0.2c0.4-1.2,1.1-1.2,2-0.4c0.4,0,0.9,0.1,1.3,0.1l0-0.2c0.5-1.6,1.5-1.2,2.5-0.5c0.4,0,0.8,0.1,1.2,0.1
		c3.6-1,6-3.2,7.3-6.7L619.3,610.9z M595.1,578.8c1.1,0,1.3,0.8,1.4,1.7c-0.1,0.6,0.1,1.5-0.7,1.5c-1.1,0-1.7-0.9-1.8-1.9
		C594,579.5,594.4,578.9,595.1,578.8z M530.1,589.4c3.1-0.5,6.2-0.9,9.2-1.4c1.6-0.2,1.8,0.6,1.1,1.9c-1.4,2.5-2.8,5.1-4.1,7.7
		c-0.6,1.1-1.3,1.5-2.2,0.5c-1.9-2.2-2.9-5-5-7.1C528.5,590.2,529.3,589.5,530.1,589.4z M229.3,547.4c10.4-0.2,20.7,0.2,30.9,1.6
		c8,1.1,16,2.1,23.7,4.4c5.6-0.1,11,1.7,16.5,2.6c13.2,2.2,26.3,4.6,39.5,7c1.9,0.3,3.8,0.6,5.4,1.9c0.5,0.4,1.3,0.6,1.2,1.4
		c-0.1,0.8-1,0.7-1.6,0.7c-7-0.3-14-0.4-20.9-0.9c-7.5-0.6-14.9-1.5-22.3-2.4c-5.3-0.6-10.6-1.5-15.9-2.2c-12-1.5-23.8-3.8-35.5-6.4
		c-6.1-1.3-12.1-3-18.1-4.6c-2.1-0.5-4-1.3-6.3-2.1C227,547,228.2,547.5,229.3,547.4z M319.6,575c-0.2-2.1,0.4-2.8,2.7-2.6
		c5.5,0.4,5.5,0.3,4.4,5.8c-0.2,1-0.4,2.1-0.6,3.2c-0.6,3.2-2.1,4-5.2,3.3c-1.1-0.3-1.4-0.9-1.4-1.8c0-1.5,0-3,0-4.5
		c0,0,0.1,0,0.1,0C319.7,577.1,319.8,576,319.6,575z M251.2,563.7c-1.1,2.6-2.2,5.1-3.4,7.7c-0.5,1.2-1.4,1.5-2.6,1.2
		c-6.8-0.4-6.8-0.4-4.6-6.5c2.2-6.3,3.4-6.8,9.5-4.2C251.1,562.2,251.6,562.6,251.2,563.7z M295.6,731.9c-16.9-3-33.7-6-50.6-9.1
		c-0.4-0.1-0.8-0.3-1.1-0.5c-7.9-0.5-15.6-2.7-23.4-3.8c-8.5-1.2-16.4-4.1-24.5-6.8c-0.6-0.2-1.1-0.6-1.6-1.5c3.6,0,7.3-0.2,10.9,0
		c10.7,0.5,21.3,2.3,32,3.6c1.8,0.2,3.6,0.8,5.3,1.3c7.2,0.3,14.2,2.1,21.2,3.4c12.5,2.3,24.7,5.4,36.9,8.9
		c3.9,1.1,7.9,2.4,11.5,4.6C306.6,732.6,301.1,732.9,295.6,731.9z M250.1,706.7c1.1-3.7,2.2-7.4,3.3-11.2c0.5-1.7,1.2-2.5,3.3-1.8
		c2.5,1,5.2,1.5,7.7,2.3c1.2,0.3,2.3,0.8,1.9,2c-1,4.3-1.9,8.1-2.7,11.8c-0.3,1.2-1,1.8-2.3,1.5c-3.2-0.7-6.3-1.3-9.5-1.8
		C249.7,709.3,249.6,708.3,250.1,706.7z M323.6,727.2c-0.5,1.4-1.1,1.7-2.3,0.8c-8.8-6.4-19.4-8.2-29.6-11c-6.3-1.7-12.6-3.2-19-4.1
		c-2.1-0.3-1.6-2.1-1.3-3.6c1-5.2,1.2-10.5,2.9-15.5c0.5-1.4-0.5-2.2-1.8-2.5c-6.8-2-13.6-4-20.4-6.2c-2.5-0.8-2.8,0.7-3.2,2.3
		c-1.7,5.8-3.4,11.6-4.9,17.4c-0.7,2.5-1.5,3.3-4.5,2.8c-9.6-1.5-19.3-2.8-29.1-3.6c-5.6-0.5-11.2-0.6-16.8-0.4
		c-3.1,0.1-3.8-1.2-3.4-3.8c0.9-5.2,1.9-10.3,2.8-15.5c3-17,5.9-34,8.9-51c2.3-12.9,4.8-25.7,7.1-38.6c2.2-12.6,4.3-25.1,6.5-37.7
		c0.2-1.2,0.5-2.3,0.8-3.4c0.4-1.4,1.3-2,2.7-1.2c4.4,2.5,9.4,3.6,14.1,5.4c2.3,0.9,2.7,1.9,1.8,4.1c-1.7,4.2-3.1,8.5-4.7,12.7
		c-0.7,1.9-0.5,2.7,1.7,3c5.9,0.8,11.9,1.8,17.8,2.7c1.6,0.2,2-0.8,2.5-2c1.5-3.6,3-7.1,4.5-10.7c0.7-1.7,1.5-2.5,3.9-2.2
		c9.3,1.4,18.7,2.3,28.1,3.6c3.3,0.4,6.3,2.1,9.8,2.2c3.4,0.2,6.7,1.2,10.2,1.1c2.1-0.1,3.1,1.2,3.1,3.3c0,2.3,0,4.5,0,6.8
		c0,0.3,0,0.7,0,1c0,8.6,0,8.5,8.6,9c3.1,0.2,6.1-0.3,9.2-0.3c2.3,0,3.4-2.6,3.2-4.5c-0.3-4.4,2.5-7.9,2.5-12.1
		c0-1.1,1.4-1.4,2.4-1.2c3.8,0.8,7.7,0.5,11.6,0.6c0.8,0,1.5,0.2,1.7,1.1c0.2,0.8-0.5,1.1-0.9,1.6c-3.2,3.8-6.4,7.7-9.5,11.5
		c-0.3,0.4-0.5,1.1-0.9,1.3c-5.2,3.7-7.5,9.7-11,14.7c-3.7,5.3-5.8,11.5-8.3,17.5c-1.6,3.8-2.6,8.1-3.8,12.1
		c-1.5,4.8-2.3,9.8-3.2,14.7c-2.1,11.7-2.2,23.4-0.1,35.2c1.7,9.1,3.5,18.1,6.6,26.7c1.6,4.3,3.7,8.4,3.9,13.1
		C323.9,725.2,324,726.1,323.6,727.2z M523.1,740.2c-8.2,9.5-17.6,17.7-28.5,24.3c-8.3,5.1-16.8,9.7-26.2,12.3
		c-7.1,1.9-14.2,3.9-21.7,4.2c-5.3,0.2-10.7,0.8-16,0.6c-21.6-0.7-41.4-7-59.4-18.9c-17.1-11.3-30.2-26-39.5-44.2
		c-2.5-4.9-3.3-10.2-4.8-15.3c-1.8-6.3-3.2-12.7-5-19c-1.4-5-2-10.1-1.9-15.3c1.1-22.5,5.8-44,17.5-63.6c2.8-4.7,7.1-8.3,10.4-12.8
		c9.5-12.8,22-22,36.3-28.8c13.7-6.6,28.1-10.4,43.4-11.3c9-0.5,17.8,0,26.6,1.5c11.7,2.1,23.1,5.4,33.6,11.2
		c5.8,3.2,11.2,6.9,16.4,11c4.3,3.4,8.5,6.9,12.5,10.5c6.2,5.5,11.2,11.9,14.8,19.4c1.7,3.5,4.2,6.4,5.8,9.8
		c5.4,11.3,9.7,23.1,11.1,35.5c1.4,11.8,1.6,23.9-0.7,35.6c-2.4,12.3-6.1,24.2-12.6,35.2C531.4,728.4,527.8,734.8,523.1,740.2z
		 M563,641.9c-0.1,2.8-0.3,5.6-0.4,8.4c0.3,1.6,0.8,3.1-0.4,4.6c-0.1,2.3-0.2,4.7-0.3,7.1c0.3,2.6,0.7,5.3-0.4,7.8
		c0,1.1-0.1,2.1-0.1,3.2c0.2,2,0.6,4-0.4,5.8c-0.1,1.1-0.1,2.2-0.2,3.2c0.2,0.5,0.2,0.9-0.1,1.4c-0.1,6.2-0.4,12.4-1.1,18.6
		c0.8,4.2-0.5,7.3-3.7,10.2c-5,4.5-9.6,9.4-14.7,14c4.1-8,7.2-16.3,10.2-24.7c0.9-4.1,1.8-8.2,2.6-12.4c0.3-1.7,0.5-3.4,0.7-5.1
		c-0.1-0.9-0.3-1.8,0.5-2.6c0.1-0.8,0.2-1.7,0.3-2.5c-0.3-1.3-0.6-2.7,0.3-3.9c0.2-5.4,0.3-10.8,0-16.3c-0.8-0.8-0.7-1.7-0.2-2.6
		c-0.1-1.1-0.2-2.1-0.3-3.2c-0.7-0.6-0.6-1.3-0.2-2c-0.1-1.1-0.3-2.1-0.4-3.2c-0.7-0.5-0.7-1.2-0.4-2c-0.1-0.6-0.2-1.3-0.3-1.9
		c-0.5-0.4-0.5-0.8-0.2-1.4c-0.1-0.6-0.3-1.2-0.4-1.9c-0.6-0.3-0.6-0.8-0.4-1.3c-0.5-1.9-1-3.9-1.5-5.8c-0.7-1-1.3-1.9-0.9-3.2
		l0.2-0.8c2.8-2.2,6.3-1.6,9.4-2.3c4.4-1.1,5-0.2,3.6,4.3c-0.1,2.2-0.3,4.4-0.4,6.5C563.7,639.4,563.8,640.7,563,641.9z
		 M609.2,612.7c-7.1,1-14.1,2.8-21.2,3.8c-4.2,0.6-8.5,1.3-12.7,1.8c-5.1,0.8-10.1,1.7-15.2,2.2c-2.1,0.2-3.7,1.3-5.8,1.5
		c-4.6,0.4-6.7-0.3-8.8-4.4c-1.6-3.1-2.6-6.6-4.7-9.5c-1.6-2.2-0.5-4.4,0.5-6.3c2.3-4.2,4.8-8.3,6.7-12.7c0.5-1.2,1.6-2.4,3.1-2.7
		c8.7-1.6,17.5-3.2,26.4-3.9c1.6-0.1,2.8-0.9,4.2-1.3c4.9-1.5,6.8,2.2,9.1,5.2c2.6,3.4,5.2,6.8,7.8,10.2c0.4,0.5,0.8,1.2,1.5,1
		c0.8-0.2,1-1.1,1.1-1.8c0.3-1.7-0.2-3.5,0.9-5c0-0.7-0.2-1.4,0.5-1.9c-0.4-2.9,0.1-5.8,0.5-8.7c0.2-1.4,0.4-2.6,2.2-2.6
		c1.6-0.1,2.8,0.7,3.1,2.2c0.9,4.4,1.8,8.8,2.5,13.3c0.8,5,1.4,10,2.2,15C613.2,610.9,611.8,612.3,609.2,612.7z"/>
	<path class="st3" d="M839.3,588c-0.9-0.6-1.8-1.3-2.7-1.8c-37.1-23.8-74.2-47.6-111.2-71.5c-6.1-4-12.6-7.4-18.3-12.1
		c-6.1-3-11.5-7.1-17.3-10.7c-7.6-4.7-15.1-9.6-22.7-14.3c-1.7-1-2-2.2-1.8-4c2.1-17.7,4-35.3,6.1-53c0.5-4-1.1-7.4-2-11
		c-2.1-8.7-4.4-17.3-6.8-25.8c-2.3,0.2-4.5,0.5-6.8,0.8c0.2,0.3,0.3,0.7,0.4,1.1c2.1,8.3,4.1,16.7,6.6,25c1.9,6.1,1.7,12,0.9,18.1
		c-1.9,14.8-3.5,29.7-5.3,44.6c-0.5,3.8,0.6,6.8,3.8,8.9c14.2,9.2,28.3,18.3,42.5,27.5c4.3,2.1,8.2,5,12,8c2.1,1.7,3,4.2,2.9,7.2
		c-0.6,26.3-1.1,52.5-1.6,78.8c-0.4,21.2-0.9,42.4-1.3,63.6c-0.1,5.1-1.2,9.4-4.7,13.5c-7.6,8.9-14.7,18.3-22,27.4
		c-0.7,0.8-1.1,1.9-2.4,2c-0.3,1.2-1,2.1-1.7,3c-10.2,13-20.4,26-30.7,38.9c-1.6,2-1.5,3.3,0.3,4.9c2,1.7,3.6,1.5,5.2-0.6
		c0.6-0.9,1.3-1.7,1.9-2.6c8-10.2,15.9-20.5,24.2-30.5c3.4-4.1,6.2-8.7,10.2-12.3c1.2-4.3,2.8-4.8,6-2c0.7,0.6,1.4,1.3,2.1,2
		c2.6,2.3,5,4.7,7.8,6.7c2.2,1.6,2.8,3.5,2.4,5.8c-1.1,6.6-0.2,13.3-0.5,19.9c-0.1,2.7,1.8,3.1,3.9,3.2c2.1,0,3.2-1,3.2-3.2
		c-0.1-6.4,0.6-12.9,0.5-19.3c-0.1-4.7,1.5-7.5,5.6-9.3c0.6-2.5,3-3.1,4.6-4.6c0.9-0.8,1.5,0.1,2,0.9c0.7,1.4,1.4,2.8,1.6,4.4
		c5.1,7.5,8.4,15.9,12.8,23.8c3.6,6.4,6.9,12.9,10.1,19.5c1.4,2.8,3.2,2,5.1,1.2c2.1-1,2.7-2.5,1.3-4.6c-1.2-1.9-2.3-3.9-3.3-5.9
		c-3.1-6-6.4-11.9-9.4-18c-2.4-4.8-5.5-9.3-6.9-14.5c-1.4-0.5-1.7-1.8-2.3-3c-6.3-12.1-12.6-24.3-19-36.4c-0.9-1.7-1.3-3.3-1.3-5.2
		c0.2-6.9,0.4-13.8,0.5-20.7c0.4-19.8,0.8-39.7,1.3-59.5c0.4-21,0.9-42,1.3-63c0.1-4,1.5-4.8,5-2.7c2.9,1.7,5.6,3.6,8.4,5.4
		c23,14.8,46.1,29.5,69.2,44.3c8.8,5.6,17.6,11.3,26.4,17c1.9,1.2,3.4,1.2,4.8-0.6C841.6,590.7,841.1,589.2,839.3,588z M716.4,699.2
		c-0.1,0-0.2,0-0.3,0c0,2.8,0,5.6,0,8.4c0,2.3-1,2.7-2.8,1.3c-2.6-2.1-5.1-4.2-7.7-6.3c-0.9-0.7-1.2-1.5-0.4-2.5
		c2.8-3.4,5.5-6.8,8.3-10.2c0.5-0.7,1.2-1.5,2.1-1.2c1.2,0.4,0.7,1.6,0.7,2.5C716.4,693.9,716.4,696.6,716.4,699.2z M724.8,692.3
		c1.7,3.2,3.3,6.5,5.1,9.7c0.6,1.2,0.4,2-0.6,2.8c-1.3,1.1-2.7,2.2-4,3.2c-0.7,0.5-1.2,1.5-2.2,1.1c-1.1-0.5-0.7-1.7-0.8-2.5
		c0.6-4.5,0.3-9,0.4-13.5c0-0.7-0.4-1.7,0.5-2C724.2,690.7,724.5,691.6,724.8,692.3z"/>
</g>
<g id="tom2">
	<g>
		<path class="st4" d="M421.4,553.8c-5.1-1.3-11.4,0.3-17.8-1.5c-3.3-0.9-7.5-0.5-11.4-0.4c-2.8,0-3.4-1.8-3.9-3.9
			c-3-11.5-5.9-23-8.9-34.6c-0.2-1,0-2.4-1.3-2.6c-1-0.2-1.5,1-2,1.6c-7.3,9-14.6,18-21.7,27.1c-1.8,2.4-3.6,2.6-6.1,1.7
			c-7.2-2.5-14.4-4.9-21.7-7.3c-7.5-2.4-10.4-7.5-8.9-15.8c3.6-20.3,7.1-40.5,10.7-60.8c1.5-8.2,3-16.4,4.4-24.5
			c0.5-3.2,1.8-3.9,4.6-2.7c11.1,4.5,22.5,7.2,34.1,9.5c2.3,0.4,3.7,1.6,4.5,4.1c2,5.6,4.4,11,6.5,16.6c1,2.5,2.1,2.6,4,1.2
			c6.5-4.8,13-9.5,19.5-14.3c1.3-1,2.4-1.3,4-1c9.6,1.7,19.3,2.5,29,2.1c2.5-0.1,5,0.7,7.6,0.5c1.9-0.1,2.5,1.4,2.8,3.3
			c0.3,2.7,0.1,5.4-0.5,7.8c-1.3,5.2-1.3,10.6-2.5,15.8c-1.5,6.7-2.4,13.5-3.7,20.3c-1.5,8-3.4,16-4.4,24c-1,8-2.8,15.8-3.9,23.8
			C433.7,549.8,429.1,553.5,421.4,553.8z M339.8,446.5c-0.1-1.5-0.1-3-0.2-4.5c-0.1-0.9-0.1-2.2-1.3-2.2c-1.2,0-0.9,1.3-1,2
			c-1.8,8.9-3.5,17.7-5.2,26.6c-2.9,15.2-5.7,30.4-8.5,45.7c-0.6,3.2,0.1,6.3,2.2,8.8c1.7,2.1,3.3,1.8,4.2-0.8
			c0.9-2.5,1.1-5.2,1.3-7.9c0.6-10.4,1.6-20.7,4-31C338,471.2,339.9,458.9,339.8,446.5z M354,510.2c0.3,0,0.5,0,0.8,0
			c0.3-0.7,0.7-1.3,1-2c3.8-12.2,8.2-24.3,9.3-37.2c0.6-7.1,0.9-14.2,1.5-21.2c0.2-2.8-1.7-3.9-3.8-4.5c-2.2-0.6-2.9,1.5-3.3,3.2
			c-0.4,1.7-0.6,3.4-0.6,5.1c0.3,12.3-2.1,24.2-4.4,36.1C353.2,496.5,353.6,503.4,354,510.2z"/>
		<path class="st8" d="M397,440.6c1.7-3.5-0.1-6.5-1.4-9.6c5.5-0.5,10.6,1.7,15.8,2.7c11.4,2,22.1,6.9,33.1,10.3
			c0.4,0.1,0.6,0.5,1.6,1.2c-4.8,1.3-8.9,0.1-13-0.2c-10.4-0.8-20.8-2.1-31.2-3.1C400.2,441.7,398.5,441.6,397,440.6z"/>
		<path class="st7" d="M406.2,443.1c-1.9-0.1-3.8-0.3-5.8-0.5c-1.5-1.3-3.2-1.8-5.1-1.1c-19-3.1-37.7-7.5-56.1-13.6
			c-1.2-0.4-3.3-0.2-3-2.2c0.2-1.7,2.2-1.5,3.5-1.4c7.7,0.5,15.4,1,23,1.9c10.7,1.2,21.5,1.1,32,3.8c3.3,0.9,6.6,1.7,9.9,2.5
			C406,435.9,407.9,439.2,406.2,443.1z"/>
		<polyline class="st11" points="376.2,441.3 384.8,460.3 402.2,447.5 		"/>
		<polygon class="st12" points="316.7,517.5 334.1,430.5 367.1,438.5 413.7,446.5 453.4,446.9 449.4,472.6 433.7,549.4 422.6,553.1 
			375.8,546.7 319.2,528.7 		"/>
		<path class="st11" d="M452.4,446.9l-1.7-2c0,0-16.4-8.3-58.3-17s-58-0.2-58-0.2c-2.9,5.9,68.6,16.4,70.7,17"/>
		<polyline class="st11" points="352.9,539.4 376.1,513.7 386.1,548.7 		"/>
	</g>
</g>
<g id="tom1_00000115510957715049395460000002804853025740481202_">
	<g id="color">
		<path id="tom1_00000125561989404692285600000002077405831096080049_" class="st8" d="M513.2,428.6c-1.9,4.6-3.2,9.2-1.8,13.8
			c-11.4,1.8-22.3,0.6-33.4,0.4c-5-0.1-9.9-0.6-14.8-1.1c-1.1-0.1-2.7,0.1-2.8-1.5c-0.1-2.2,1.8-2.9,2.9-3.2
			c4.9-1.3,9.9-2.4,14.8-3.3c10.5-2,21-3.8,31.4-5.7C510.9,427.7,512.1,427.8,513.2,428.6z"/>
		<path id="fil" class="st4" d="M604.6,525.8c-0.9,5.8-4.8,9.7-10.5,10.9c-13.1,2.8-26.3,5.6-39.4,8.5c-2.5,0.6-3.7-0.2-5.2-2.1
			c-6.5-8.2-12.4-17-18.6-25.4c-0.6-0.8-0.9-2.1-2.2-1.8c-1.1,0.2-1,1.4-1.3,2.3c-3.3,8.9-6.7,17.7-9.9,26.6
			c-0.6,1.7-1.3,2.5-3.1,2.5c-9.2,0-18.4,0.1-27.6,0.1c-3.6,0-7.2,0.9-10.8-0.9c-3.3-1.6-5.5-4-6.3-7.2c-0.8-3.4-1.7-6.7-1.8-10.4
			c-0.1-5-0.5-10.1-1.5-15c-1.2-5.2-0.6-10.3-1.2-15.5c-0.5-4.4-0.8-8.9-1.2-13.3c-0.9-9.7-1.8-19.4-2.8-29.1
			c-0.2-2.3,0.6-4.7-0.9-7c-0.9-1.2,0.1-2.7,1.9-2.7c3,0,5.9,0,8.9,0.1c9,0,18.1-0.2,27.1-1.1c5.2-0.5,10.5-0.5,15.7-1.1
			c1.7-0.2,2.7,0.9,3.7,2.1c4.2,5.8,8.5,11.5,12.8,17.2c0.7,0.9,1.1,2.2,2.6,1.9c1.2-0.3,1.2-1.6,1.5-2.5c2.5-6.3,5-12.7,7.4-19
			c0.9-2.3,2.4-3.3,4.8-3.7c13.8-2,27.4-4.7,40.9-8.1c0.7-0.2,1.3-0.4,2-0.6c5.6-1.7,6.3-1.3,6.8,4.7c2.1,22,4.2,43.9,6.2,65.8
			c0.7,7.3,1.3,14.7,1.9,22C604.7,524.6,604.6,525.6,604.6,525.8z M587.8,442.3c-0.6,9.4-1.7,18-1.7,26.6c0,11,0.8,22.1,1.3,33.1
			c0.3,7.4,0.6,14.7,0.8,22.1c0,1.7,0.6,3.1,2.2,3.5c1.7,0.5,2.8-0.8,3.6-2.2c0.5-0.8,0.7-1.8,0.9-2.8c0.6-3.4,0.5-6.9,0.2-10.4
			c-1.8-22-3.7-44-5.6-66C589.4,445.2,589.5,443.9,587.8,442.3z M556.9,449.6c-0.7-0.3-1.2,0.1-1.5,0.5c-4.5,5.8-9,11.7-11.5,18.7
			c-3.4,9.2-0.5,17.6,3.8,25.8c0.4,0.7,0.8,1.3,1.8,1.1c0.9-0.2,1-1,1.1-1.8c0.1-2.2,0-4.3-0.4-6.5c-0.9-4.7-1.5-9.4-0.1-14.1
			c2-6.7,3.7-13.6,6.3-20.1C556.8,452.1,557.4,450.9,556.9,449.6z"/>
		<path id="tom1" class="st7" d="M490.1,428.6c12.6-4.2,24.9-4.1,37.3-5.8c23.3-3.2,45.4,0.5,67.9,1.9c0.6,0,1.2,0.3,1.8,0.5
			c-0.5,2.6-1.9,2.6-3.1,2.9c-35,8.8-69.7,14.4-104.3,16.7c-0.5,0-0.9-0.2-1.4-0.3C486.8,439.3,488.1,434,490.1,428.6z"/>
	</g>
	<g id="Lines_00000065762284614862189100000011904904205908610986_">
		<polyline class="st13" points="519,446 534.7,465.3 547,443.1 		"/>
		<polyline class="st13" points="515.8,550.2 530.6,513.6 554.5,546.8 		"/>
		<g>
			<g>
				<path class="st14" d="M459.2,436.9c0,0.1,0,4.7,0,4.7c0,0,0,0,0-0.1c0,0,0-0.1,0-0.2c0.1-0.1,0.1-0.2,0.2-0.4
					c0.1-0.3,0.4-0.5,0.6-0.7c0.6-0.6,1.4-1,2.2-1.4c2.5-1.2,5.1-2.1,7.8-2.8c8.6-2.4,17.5-3.9,26.4-5.3c11.4-1.7,22.8-3,34.3-3.9
					c11.6-1,23.3-1.6,35-1.6c5.1,0,10.2,0.1,15.3,0.4c2.5,0.1,5,0.3,7.5,0.6c2.8,0.3,5.7,0.6,8.4,1.5c0.5,0.2,1.2,0.4,1.6,0.9
					c0.1,0.1,0.2,0.3,0.3,0.4c0,0.1,0,0.1,0.1,0.2c0,0,0,0.1,0,0.1c0,0,0.1-4.7,0-4.6c-0.5,0.9-1,1.4-2,1.9c-3.2,2-7.1,3.1-10.7,4.2
					c-7.9,2.4-15.9,4.3-24,6c-13.7,2.9-27.7,4.8-41.7,5.6c-9.5,0.5-19.1,0.5-28.6-0.2c-6.2-0.5-12.4-1-18.6-1.6
					c-2.6-0.3-5.2-0.6-7.8-1c-1.6-0.3-3.2-0.6-4.7-1.2C460.2,438.1,459.3,437.7,459.2,436.9c0.2,1.6-0.2,3.4,0,5
					c0.1,0.9,1.1,1.3,1.9,1.6c1.6,0.6,3.3,0.9,5,1.2c6.5,1.1,13.1,1.5,19.7,2c9.2,0.8,18.4,1.2,27.6,1c15.8-0.4,31.5-2.4,47-5.5
					c7.5-1.5,14.9-3.3,22.3-5.4c4.2-1.2,8.5-2.4,12.4-4.3c1.1-0.5,2.4-1.1,3.2-2.1c0.3-0.3,0.4-0.6,0.5-1c0.1-0.8,0-1.7,0-2.5
					c0-0.8,0.1-1.8,0-2.6c-0.2-1-1.5-1.4-2.3-1.7c-3-1-6.2-1.3-9.3-1.6c-4.9-0.5-9.8-0.7-14.8-0.8c-11.7-0.2-23.4,0.2-35.1,1.1
					c-12.1,0.8-24.1,2-36.1,3.7c-9.6,1.3-19.2,2.9-28.7,5.3c-3,0.8-6.1,1.6-9,2.9c-1.4,0.6-3.5,1.4-4.2,2.9
					c-0.1,0.3-0.2,0.6-0.2,0.9c-0.1,1.6-0.1,3.3,0,4.9C459.1,440.2,459.4,438.5,459.2,436.9z"/>
			</g>
		</g>
		<path class="st15" d="M467.5,443.1c16.4,1.9,36.3,3,58.9,1.3c27.5-2,50.8-7.5,68.7-13.1c1.8,13.3,4.1,32,5.9,54.6
			c2.5,31,1.6,36.8-1.9,42.4c-9.6,15.7-31.7,17.9-60.8,20.9c-32.5,3.3-46.6,1-59.3-3.1c-12.6-4.1-14.8-106.9-14.8-106.9"/>
	</g>
</g>
<g id="symbals2">
	<path class="st9" d="M178.1,282.9c-0.5,2.1-2.3,1.4-3.4,1.4c-3.7,0-6.9,1-10.1,2.6c-4.2,2.1-4.7,4.9-1.5,8.4c3.8,4,8.4,7,13.1,9.8
		c9,5.3,18.5,9.4,28.6,12.1c0.7,0.2,1.3,0.5,2.2,1c-1.2,1.2-2.7,0.7-3.8,1.2c-2-0.4-3.9-1.2-5.9-1c-0.6-0.2-1.1-0.4-1.7-0.5
		c-0.6-0.7-1.4-1.1-2.4-0.8c-1-0.3-2.1-0.6-3.1-1c-0.8-0.9-1.8-1.1-3-1.1c-0.4-0.1-0.7-0.3-1.1-0.4c-1.4-0.8-2.8-1.3-4.4-1.5
		c-1.3-0.5-2.6-0.9-3.9-1.3c-0.4-0.5-0.9-0.8-1.6-0.6c-0.2-0.1-0.4-0.2-0.7-0.2c-1.6-1.2-3.6-1.9-5.6-2.2c-0.6-0.2-1.3-0.5-1.9-0.7
		c-1.2-1.1-2.6-1.6-4.2-1.7c-0.4-0.2-0.8-0.3-1.1-0.5c-1.1-0.9-2.3-1.5-3.7-1.5c-1.8-0.9-3.5-1.9-5.4-2.3c-0.3-0.6-0.8-0.9-1.5-0.7
		c-1.4-0.6-2.7-1.2-4.1-1.8c-0.3-0.6-0.8-0.9-1.4-0.8c-0.2-0.1-0.4-0.2-0.6-0.3c-0.4-0.6-0.9-0.8-1.5-0.7c-0.2-0.1-0.4-0.2-0.6-0.3
		c-0.3-0.6-0.8-0.9-1.5-0.8c-0.2-0.1-0.4-0.2-0.6-0.3c-1-1-2.2-1.6-3.6-1.8c-0.1-0.2-0.3-0.3-0.5-0.3c-0.4-0.5-0.8-0.8-1.5-0.7
		c-0.2-0.1-0.4-0.2-0.6-0.4c-0.6-0.8-1.3-1.3-2.3-1.2c-0.5-0.2-0.9-0.5-1.4-0.8c-0.3-0.6-0.8-0.9-1.4-0.8c-0.7-0.4-1.4-0.9-2.1-1.3
		c-0.3-0.6-0.7-0.9-1.4-0.8c-0.3-0.2-0.7-0.5-1-0.7c-0.9-1-1.9-1.8-3.2-2.2c-0.3-0.2-0.6-0.4-0.9-0.6c-0.7-1.2-1.7-2-2.9-2.6
		l-0.2-0.2c-0.1-0.6-0.4-1-1.1-1.2c-0.2-0.2-0.3-0.4-0.4-0.5c-1-3,1.4-3.1,3.2-3.5c7.9-1.4,15.8-0.5,23.7,0.3
		c11,1.1,21.8,3.6,32.6,5.4C177.2,282.6,177.7,282.7,178.1,282.9z"/>
	<path class="st16" d="M225.9,296.5c1.4-0.5,2.5,0.2,3.7,0.6c6.6,2.3,13.4,4.1,19.5,7.5c0.6,3,3.2,4.7,4.7,7.1
		c3.9,6.4,2.4,12.3-4,16c-1.9,1.1-4.3,1.4-5.8,3.1c-13.5-2.2-26.4-6.6-39.4-10.5c-0.5-0.4-0.9-0.7-1.4-1.1c1.1-0.5,2.5,0,3.8-1.2
		c-0.9-0.4-1.6-0.8-2.2-1c-10.1-2.8-19.6-6.9-28.6-12.1c-4.7-2.8-9.3-5.8-13.1-9.8c-3.2-3.4-2.7-6.3,1.5-8.4
		c3.2-1.6,6.5-2.7,10.1-2.6c1.2,0,3,0.7,3.4-1.4c10.3,2.3,20.6,4.9,30.8,8c3,0.9,6.4,1,8.9,3.3c-2,0.9-4,0-6-0.2
		c-3.4-0.4-6.8-0.8-10.3-0.4c-0.9,0.1-1.9,0.2-1.8,1.4c0,1,1,1,1.7,1.1c1.3,0.2,2.6,0.4,3.8,0.7c9.5,1.9,19.6,2.2,27.1,9.8
		c0.6,0.6,1.5,1.1,2.2,0.1c0.6-1,0.3-1.9-0.5-2.6c-2-2-4-3.9-6.5-5.3C226.6,298.1,225.6,297.9,225.9,296.5z"/>
	<path class="st17" d="M244.1,330.9c1.6-1.7,3.9-2,5.8-3.1c6.4-3.7,7.9-9.6,4-16c-1.5-2.4-4.1-4.1-4.7-7.1
		c6.1,0.9,11.4,3.7,16.9,6.1c11.2,4.9,22.5,9.7,32.7,16.6c3.1,2.1,5.7,4.6,8.2,7.2c1.6,1.6,0.2,2.2-1.1,2.7
		c-3.7,1.6-7.6,1.3-11.4,1.2C277.4,337.9,260.6,335.1,244.1,330.9z"/>
	<g>
		<g>
			<path class="st3" d="M109.8,275.4c-1.1,3.7,1.9,7.2,4.4,9.6c4.1,3.9,9.1,7,13.9,9.9c15,8.9,31.3,15.9,47.6,22.2
				c18,6.9,36.5,12.6,55.3,16.9c16.9,3.9,34,7,51.3,8.4c6.1,0.5,12.3,0.9,18.4,0.3c3.7-0.3,8.4-0.8,11.1-3.7c2.8-3.1,1.2-7-1.1-9.8
				c-3-3.7-7.2-6.5-11.1-9c-13.5-8.8-28.5-15.4-43.4-21.5c-18.4-7.5-37.4-13.8-56.7-18.5c-16.8-4.1-33.9-7.4-51.1-9.4
				c-6.9-0.8-14-1.5-21-1.4c-4.6,0-9.9,0.1-14.1,2.2C111.7,272.3,110.4,273.6,109.8,275.4c-0.5,1.5,0.6,3.3,2.1,3.7
				c1.6,0.5,3.2-0.5,3.7-2.1c0.2-0.5-0.3,0.7-0.1,0.3c0-0.1,0.1-0.2,0.2-0.3c0.2-0.2-0.6,0.6-0.2,0.2c0.1-0.1,0.3-0.2,0.3-0.3
				c0,0.1-0.7,0.4-0.2,0.1c0.1-0.1,0.3-0.2,0.4-0.2c0.1-0.1,0.3-0.1,0.4-0.2c0.7-0.4-0.4,0.1-0.1,0c0.8-0.2,1.6-0.5,2.5-0.7
				c0.5-0.1,0.9-0.2,1.4-0.2c0.1,0,0.2,0,0.4-0.1c0.4-0.1-0.6,0.1-0.2,0c0.3,0,0.6-0.1,0.9-0.1c5.9-0.6,11.8-0.2,17.7,0.2
				c16,1.3,31.8,4.1,47.6,7.5c18.3,4,36.2,9.3,53.8,15.7c15.9,5.8,31.7,12.5,46.5,20.7c2.8,1.6,5.6,3.2,8.4,4.9
				c1.1,0.7,2.3,1.5,3.4,2.3c0.5,0.4,1,0.7,1.5,1.1c0.2,0.2,0.5,0.4,0.7,0.5c0.1,0.1,0.2,0.2,0.4,0.3c0.6,0.5-0.5-0.4,0.1,0.1
				c1.5,1.2,3.1,2.5,4.4,4c0.1,0.1,0.3,0.3,0.4,0.5c0.1,0.1,0.5,0.7,0.2,0.2c-0.3-0.5,0.1,0.1,0.1,0.2c0.1,0.2,0.2,0.3,0.3,0.5
				c0.2,0.3,0.3,0.5,0.4,0.8c0.2,0.4-0.2-0.8-0.1-0.2c0,0.1,0.1,0.3,0.1,0.4c0.3,0.9,0-0.6,0,0c0,0.9,0.2-0.7,0,0
				c-0.2,0.7,0.5-0.7,0,0c-0.3,0.4,0.5-0.4,0.2-0.2c-0.1,0.1-0.2,0.2-0.3,0.3c-0.4,0.4,0.2-0.1,0.2-0.1c-0.1,0-0.2,0.2-0.4,0.2
				c-0.3,0.2-0.6,0.3-0.9,0.5c-0.4,0.2,0.8-0.3,0.1,0c-0.2,0.1-0.4,0.1-0.5,0.2c-0.4,0.1-0.8,0.2-1.2,0.4c-0.4,0.1-0.8,0.2-1.2,0.3
				c-0.2,0-0.5,0.1-0.7,0.1c-0.2,0-1.3,0.1-0.3,0c-1.1,0.1-2.2,0.2-3.3,0.3c-2.8,0.2-5.6,0.1-8.4,0c-15.6-0.5-30.8-3.1-46.1-6.1
				c-17.9-3.6-35.6-8.3-52.9-14.2c-17-5.8-33.7-12.6-49.6-20.9c-6-3.1-11.9-6.4-17.5-10.2c-1.1-0.8-2.2-1.5-3.2-2.3
				c-0.3-0.3,0.4,0.3,0.1,0.1c-0.1-0.1-0.2-0.2-0.3-0.3c-0.2-0.2-0.4-0.4-0.7-0.5c-0.4-0.4-0.9-0.7-1.3-1.1c-0.7-0.6-1.4-1.3-2.1-2
				c-0.1-0.1-0.3-0.3-0.4-0.5c-0.1-0.1-0.5-0.7-0.2-0.2c0.3,0.4,0,0-0.1-0.1c-0.1-0.2-0.2-0.4-0.3-0.5c0-0.1-0.5-0.8-0.4-0.8
				s0.3,0.9,0.1,0.2c0-0.1-0.1-0.3-0.1-0.4c-0.1-0.1-0.1-0.6,0,0c0.1,0.8,0,0.1,0,0c0,0,0.1-0.8,0,0c-0.1,0.7,0,0.1,0,0
				C116.7,273.2,110.9,271.6,109.8,275.4z"/>
		</g>
	</g>
</g>
<g id="symbals1">
	<path class="st16" d="M617.2,355.5c6.8-2.4,14-2.5,21-3.2c20.6-2.2,41.3-3.1,62-2.2c2.4,0.1,4.8,0.5,7.2,0.7c0,0.8,0,1.6,1,1.9
		c1,1.5,0.7,3.2,0.8,4.9c-1.2,1.8-1.7,3.8-1.6,5.9c-0.3,0.7-0.6,1.4-0.9,2.1c-1.5,0.5-2.2,1.6-2.3,3.2c-0.2,0.4-0.5,0.8-0.7,1.2
		c-2,0.4-3,2-3.8,3.7c-2.4,1.3-4.5,3.2-7.2,3.8c-4,0.2-7.8,0.6-11.3,2.9c-0.5,0.1-1,0.1-1.5,0.2c-0.4-0.1-0.9-0.5-1.3-0.4
		c-7,1.3-13.9,2.6-20.9,3.9c-2.8-0.7-5.6-0.6-8.8,1.2c3.2,1.3,5.8,1.5,8.5,0.2c1.2,0,2.4,0.1,3.6,0.1c0.3-0.1,0.6-0.2,0.9-0.3
		c1.3,0.3,2.6,0.1,4,0c5.6-0.2,11.2-1.6,16.8-0.4c-5.5,2.5-11.5,2.5-17.3,3.2c-16.6,2.1-33.3,3.2-50,3.4c-1.3,0-2.6-0.3-3.9-0.5
		c-1.6-2.7-4.8-4-6-7.2c-2.6-6.7-0.1-12.2,3.6-17.6C611.4,362.5,615.1,359.6,617.2,355.5z M633.9,366.5c15.1-1.7,29.4-5,44.1-5.2
		c-10.8-2.1-21.5-3.1-32.3-1C641.4,361.2,637.2,362.3,633.9,366.5z"/>
	<path class="st17" d="M627.8,354c-1.9,4.2-5.3,7-7.7,10.8c-3.4,5.4-5.8,10.9-3.6,17.4c1,3.1,3.8,4.2,5.2,6.9
		c-7.6,1.2-15.1,0.3-22.6-0.1c-8.2-0.5-16.3-1.7-24.1-4c-2.5-0.7-4.4-2.2-6.3-3.8c-1.9-1.5-1.9-3.2,0.1-5.1c3.9-3.7,8.3-6.4,13-8.5
		c14.6-6.7,29.8-10.1,45-13.8C627,353.6,627.4,353.9,627.8,354z"/>
	<g>
		<path class="st3" d="M681.3,351.9c18,0,34.3,1.6,46.1,4.5c14.1,3.5,16.2,7.3,16.4,7.6c-0.2,1.3-4.7,7-23.4,13.3
			c-17,5.7-39.6,9.9-63.7,11.9c-9.3,0.8-18.6,1.1-27.5,1.1c-18,0-34.3-1.6-46.1-4.5c-14.1-3.5-16.2-7.3-16.4-7.6
			c0.2-1.3,4.7-7,23.4-13.3c17-5.7,39.6-9.9,63.7-11.9C663.2,352.2,672.5,351.9,681.3,351.9 M681.3,344.9c-8.9,0-18.3,0.4-28,1.1
			c-52.8,4.2-94.7,18.9-93.5,32.7c0.9,11.3,30.1,18.5,69.5,18.5c8.9,0,18.3-0.4,28-1.1c52.8-4.2,94.7-18.9,93.5-32.7
			C750,352.1,720.7,344.9,681.3,344.9L681.3,344.9z"/>
	</g>
</g>
</svg>
