<?xml version="1.0" encoding="UTF-8"?><svg id="a" xmlns="http://www.w3.org/2000/svg" viewBox="0 0 1407 1080"><defs><style>.aa{fill:#f5e6e2;}.ab{fill:#212529;}.ac{fill:#bc6857;}.ad{fill:#ff922b;}.ae{stroke-linecap:round;stroke-linejoin:round;stroke-width:7px;}.ae,.af,.ag{fill:none;}.ae,.ag{stroke:#212529;}.ah{fill:#020202;}.ai{fill:#c92a2a;}.aj{fill:#d6c0bd;}.ak{fill:#f6e7e4;}.al{fill:#adb5bd;}.am{fill:#f59f00;}.af,.ag,.an{stroke-miterlimit:10;}.af,.an{stroke:#020202;stroke-width:8px;}.ao,.an{fill:#e9ecef;}.ag{stroke-width:6px;}.ap{fill:#8b2e0d;}.aq{fill:#fefefe;}.ar{fill:#e67700;}</style></defs><g id="b"><g id="c"><g><circle class="ak" cx="708.12" cy="335.9" r="285.5"/><path class="ak" d="M945.22,179.36c16.48,24.63,29.19,51.71,37.38,80.2,8.08,28.12,12.1,57.78,10.73,87.05-1.33,28.43-6.94,56.66-16.55,83.45s-23.42,52.46-40.68,75.33c-17.78,23.56-39.25,44.27-63.37,61.28-24.3,17.13-51.22,30.49-79.61,39.36s-55.95,12.88-84.59,12.9c-28.29,.02-56.57-4.19-83.64-12.42s-53.21-20.63-76.79-36.58-46.08-36.72-64.25-59.83-33.31-49.88-43.67-77.92-15.86-55.81-17.26-84.71c-1.39-28.98,2.5-58.35,10.32-86.26,7.67-27.38,19.44-53.59,34.83-77.5s35.4-46.6,57.91-65.19,49.15-34.56,76.99-45.61c26.79-10.64,55.18-17.15,83.92-19.26,28.36-2.09,57,.09,84.72,6.41,27.67,6.31,54.38,16.73,78.98,30.87,25.15,14.45,48.04,32.77,67.65,54.14,9.85,10.73,18.85,22.22,26.98,34.31-.76-1.13,.78-3.84,0-5-16.84-25.04-37.51-47.42-61.29-66.01-22.93-17.92-48.63-32.26-75.9-42.43-27-10.06-55.51-16.02-84.27-17.62-29.01-1.61-58.26,1.21-86.41,8.42s-56.97,19.56-82.32,35.69c-25.55,16.25-48.51,36.49-67.72,59.9-18.5,22.54-33.46,47.93-44.27,75-10.68,26.76-17.29,55.13-19.56,83.85-2.2,27.99-.81,56.44,4.77,83.98,5.91,29.22,16.48,57.46,31.14,83.42s34,50.47,56.41,70.92,46.49,36.18,73.2,48.42c26.12,11.96,54.03,19.95,82.52,23.64,28.81,3.74,58.18,3.07,86.78-2.02,29.15-5.19,57.44-14.97,83.58-28.87,26.92-14.32,51.58-32.92,72.67-54.94,20.29-21.19,37.24-45.53,50.11-71.9,12.64-25.93,21.32-53.76,25.69-82.27,4.23-27.62,4.57-56.14,1.09-83.86-3.67-29.3-11.94-57.98-24.43-84.74-6.25-13.4-13.56-26.29-21.78-38.57,.76,1.13-.78,3.83,0,5Z"/></g><path class="aj" d="M944.98,191.5c21.48,32.11,36.46,68.37,43.57,106.35,1.95,10.4,3.3,20.9,4.09,31.45l-.04-.54c.21,2.94,.39,5.89,.51,8.83,.06,1.47,.11,2.94,.15,4.42,.02,.71,.02,.84,0,.38,0,.42,.02,.84,.02,1.26-.01-1.29-.02-1.45,0-.45-.03-3.08-.04-6.16-.02-9.25,0-2.1,0-4.2,.02-6.29,.02-1.3,.02-1.45,0-.46-.02,.83-.02,1.09-.03,1.32-.04,1.47-.09,2.94-.15,4.4-.13,3.04-.31,6.07-.53,9.11l.04-.54c-2.05,27.17-7.92,54.01-17.49,79.53s-22.94,49.9-39.47,71.75c-17.06,22.56-37.51,42.51-60.44,59.07-23.26,16.81-49.01,30.15-76.2,39.32-26.19,8.83-53.65,13.8-81.27,14.73-27.14,.91-54.39-2.06-80.69-8.79s-51.8-17.26-75.22-31.18c-24.03-14.28-45.92-32.12-64.75-52.79-19.4-21.27-35.58-45.5-47.82-71.56-11.88-25.29-19.99-52.33-23.99-79.99-.95-6.59-1.67-13.21-2.16-19.84l.04,.54c-.21-2.94-.39-5.89-.51-8.83-.06-1.47-.11-2.94-.15-4.42-.02-.71-.02-.84,0-.38,0-.42-.02-.84-.02-1.26,.01,1.29,.02,1.45,0,.45,.03,3.08,.04,6.16,.02,9.25,0,2.1,0,4.2-.02,6.29-.02,1.3-.02,1.45,0,.46,.02-.83,.02-1.09,.03-1.32,.04-1.47,.09-2.94,.15-4.4,.13-3.04,.31-6.07,.53-9.11l-.04,.54c1.69-22.46,5.99-44.7,12.85-66.16,6.89-21.56,16.35-42.3,28.13-61.63,12.06-19.79,26.55-38.09,43.06-54.36,17.02-16.78,36.15-31.39,56.78-43.46,20.25-11.84,41.95-21.2,64.48-27.73,21.91-6.35,44.58-10.04,67.37-10.98,22.53-.93,45.16,.81,67.28,5.17s43.72,11.33,64.21,20.74c20.73,9.52,40.3,21.53,58.17,35.72s34.9,31.47,49.14,50.12c3.61,4.72,7.07,9.56,10.38,14.5-.25-.38,.11-4.53,.11-4.39,.04-3.54,.05-7.07,.04-10.61s0-7.07-.04-10.61c-.01-.98,.42-3.62-.11-4.39-16.84-25.04-37.51-47.42-61.29-66.01s-48.63-32.26-75.9-42.43c-27-10.06-55.51-16.02-84.27-17.62-29.01-1.61-58.26,1.21-86.41,8.42s-56.97,19.56-82.32,35.69c-25.55,16.25-48.51,36.49-67.72,59.9s-33.46,47.93-44.27,75c-10.68,26.76-17.29,55.13-19.56,83.85-.63,7.95-.89,15.91-.97,23.88-.15,13.91-.29,27.88,.38,41.78s2.47,29.04,5.36,43.31c5.91,29.22,16.48,57.46,31.14,83.42s34,50.47,56.41,70.92c21.7,19.81,46.49,36.18,73.2,48.42,26.12,11.96,54.03,19.95,82.52,23.64,28.81,3.74,58.18,3.07,86.78-2.02,29.15-5.19,57.44-14.97,83.58-28.87,26.92-14.32,51.58-32.92,72.67-54.94,20.29-21.19,37.24-45.53,50.11-71.9,12.64-25.93,21.32-53.76,25.69-82.27,2.3-15.05,3.25-30.2,3.4-45.42,.21-21.17,.33-42.4-2.31-63.44-3.67-29.3-11.94-57.98-24.43-84.74-6.25-13.4-13.56-26.29-21.78-38.57,.26,.38-.11,4.53-.11,4.39-.04,3.54-.05,7.07-.04,10.61s0,7.07,.04,10.61c.01,.99-.42,3.61,.11,4.39Z"/></g><ellipse id="d" class="ac" cx="691.5" cy="732" rx="424" ry="59.5"/><g id="e"><path class="ai" d="M552.8,555.19c0,.32,0,.65,0,.97,0,8.62,0,8.55,8.59,9.02,3.1,.17,6.15-.31,9.24-.27,2.31,.03,3.37-2.64,3.22-4.55-.34-4.36,2.53-7.91,2.49-12.14-.01-1.08,1.38-1.36,2.35-1.16,3.83,.8,7.7,.55,11.57,.63,.78,.02,1.55,.2,1.74,1.11,.16,.75-.49,1.11-.9,1.6-3.18,3.82-6.35,7.65-9.5,11.49-.34,.41-.46,1.06-.86,1.34-5.25,3.7-7.46,9.66-10.95,14.66-3.72,5.34-5.84,11.54-8.3,17.47-1.59,3.83-2.61,8.06-3.84,12.08-1.49,4.85-2.33,9.75-3.21,14.66-2.1,11.7-2.25,23.36-.08,35.16,1.67,9.06,3.46,18.07,6.57,26.71,1.56,4.32,3.71,8.37,3.89,13.1,.04,1.09,.12,2.06-.22,3.12-.45,1.41-1.09,1.74-2.33,.84-8.84-6.39-19.42-8.2-29.59-10.95-6.26-1.69-12.59-3.2-19.04-4.11-2.15-.3-1.61-2.1-1.32-3.62,.98-5.17,1.23-10.47,2.87-15.52,.45-1.4-.55-2.15-1.83-2.54-6.8-2.03-13.63-3.97-20.37-6.17-2.48-.81-2.78,.68-3.24,2.27-1.67,5.78-3.36,11.56-4.93,17.36-.67,2.46-1.54,3.27-4.5,2.82-9.64-1.48-19.32-2.75-29.06-3.61-5.6-.49-11.18-.62-16.76-.43-3.11,.1-3.81-1.16-3.35-3.77,.91-5.17,1.9-10.34,2.81-15.51,2.98-16.98,5.9-33.98,8.93-50.96,2.3-12.88,4.82-25.73,7.11-38.61,2.24-12.56,4.31-25.14,6.47-37.71,.2-1.16,.48-2.32,.83-3.44,.42-1.36,1.34-2.01,2.71-1.23,4.44,2.52,9.43,3.62,14.15,5.38,2.32,.86,2.69,1.9,1.82,4.09-1.67,4.19-3.05,8.49-4.7,12.69-.74,1.88-.47,2.7,1.66,2.98,5.95,.8,11.87,1.75,17.8,2.66,1.58,.24,2.02-.83,2.49-1.95,1.5-3.57,3.03-7.13,4.53-10.7,.73-1.74,1.5-2.52,3.85-2.17,9.33,1.41,18.73,2.32,28.09,3.57,3.31,.44,6.29,2.06,9.83,2.22,3.35,.15,6.72,1.18,10.19,1.06,2.15-.07,3.1,1.17,3.08,3.26-.02,2.26,0,4.53,0,6.79Zm-88.5-16.53c0-1.51,.06-3.02-.02-4.52-.07-1.35-.43-2.72-2.06-2.82-1.79-.11-1.86,1.37-2.09,2.67-1.72,9.64-3.49,19.26-5.2,28.9-6.21,34.95-12.38,69.91-18.63,104.85-.47,2.62,.81,3.83,2.86,4.69,2.07,.86,3.28-.48,4.24-1.97,1.07-1.67,1.21-3.67,1.53-5.57,1.92-11.45,3.88-22.9,5.67-34.38,1.89-12.11,3.45-24.27,5.43-36.37,1.98-12.09,3.15-24.31,5.62-36.33,1.3-6.32,2.57-12.66,2.64-19.15Zm41.76,18.83c0-2.59,0-5.17,0-7.76,0-.66-.05-1.49-.71-1.67-1-.27-1.18,.75-1.43,1.4-1.39,3.72-2.75,7.46-4.09,11.21-3.72,10.43-4.61,21.43-6.48,32.23-1.43,8.27-3.09,16.49-4.39,24.78-.31,2.01-1.42,5.26,1.39,5.91,2.4,.55,3.07-2.61,3.82-4.52,3.38-8.65,5.32-17.71,7.04-26.8,2.17-11.51,4.68-22.98,4.84-34.77Z"/><path class="ai" d="M561.1,641.93c1.06-22.51,5.82-44.02,17.48-63.62,2.82-4.73,7.08-8.35,10.36-12.75,9.54-12.8,22.05-21.96,36.26-28.84,13.68-6.62,28.1-10.37,43.39-11.3,9-.55,17.83-.02,26.59,1.53,11.7,2.07,23.08,5.4,33.57,11.19,5.78,3.19,11.18,6.92,16.42,11.03,4.31,3.38,8.46,6.93,12.54,10.54,6.15,5.46,11.23,11.93,14.75,19.38,1.66,3.51,4.19,6.38,5.84,9.85,5.37,11.32,9.65,23.06,11.09,35.49,1.38,11.83,1.61,23.89-.68,35.6-2.4,12.26-6.08,24.22-12.6,35.15-3.71,6.24-7.29,12.62-12.02,18.05-8.25,9.48-17.64,17.72-28.5,24.34-8.33,5.08-16.83,9.74-26.19,12.31-7.08,1.94-14.2,3.91-21.69,4.25-5.33,.24-10.66,.78-16,.6-21.57-.72-41.36-7.05-59.38-18.94-17.07-11.26-30.23-25.97-39.55-44.17-2.49-4.86-3.3-10.21-4.79-15.35-1.83-6.29-3.22-12.7-4.95-19.02-1.37-5.02-1.99-10.11-1.93-15.32Zm116.56,99.15c.08,0,1.05-.02,2.02,0,8.17,.22,16.14-.77,23.94-3.4,4.33-1.46,8.56-3.16,12.85-4.66,7.66-2.68,14.16-7.31,20.6-11.78,4.9-3.41,9.57-7.56,13.42-12.38,3.38-4.24,7.02-8.29,10.38-12.54,1.38-1.75,2.83-3.7,3.37-5.79,.89-3.41,3.02-6.18,4.14-9.51,1.42-4.21,3.86-8.05,4.99-12.54,1.65-6.56,3.03-13.17,3.29-19.89,.5-12.66,.35-25.33-3.54-37.6-.42-1.33,.05-2.78-.85-4.05-3.35-4.78-4.94-10.45-7.47-15.64-3.51-7.18-8.26-13.36-13.36-19.28-9.3-10.78-20.98-18.46-33.69-24.72-4.18-2.06-8.66-3.13-12.97-4.72-2.77-1.02-5.91-.98-8.84-1.62-13.75-3.05-27.55-2.99-41.24-.05-27,5.82-48.5,20.17-63.68,43.25-15.91,24.18-20.61,50.71-14.14,78.94,6,26.16,20.65,46.65,42.86,61.48,17.16,11.46,36.26,17.08,57.91,16.52Z"/><path class="ap" d="M677.66,741.08c-21.65,.56-40.75-5.06-57.91-16.52-22.21-14.83-36.86-35.32-42.86-61.48-6.48-28.23-1.77-54.77,14.14-78.94,15.18-23.07,36.67-37.43,63.68-43.25,13.69-2.95,27.49-3,41.24,.05,2.93,.65,6.07,.6,8.84,1.62,4.31,1.59,8.8,2.67,12.97,4.72,12.71,6.26,24.39,13.94,33.69,24.72,5.1,5.92,9.85,12.1,13.36,19.28,2.54,5.19,4.12,10.86,7.47,15.64,.89,1.27,.42,2.72,.85,4.05,3.89,12.27,4.04,24.94,3.54,37.6-.26,6.72-1.64,13.32-3.29,19.89-1.13,4.49-3.57,8.33-4.99,12.54-1.13,3.33-3.25,6.1-4.14,9.51-.55,2.09-1.99,4.04-3.37,5.79-3.36,4.26-7,8.3-10.38,12.54-3.85,4.82-8.52,8.98-13.42,12.38-6.44,4.48-12.94,9.1-20.6,11.78-4.29,1.5-8.52,3.2-12.85,4.66-7.81,2.64-15.77,3.62-23.94,3.4-.97-.03-1.94,0-2.02,0Zm-1.9-6.99c2.84,1.14,5.61,.23,8.39-.27,2.24-.16,4.5-.14,6.7-.51,17.85-2.97,33.79-10.31,47.09-22.47,24.6-22.5,35.19-50.53,31.05-83.78-2.57-20.67-11.68-38.32-26.05-53.22-10.94-11.35-24.14-19.32-39.17-24.02-6.11-1.91-12.32-3.93-18.92-3.38-6.99-2.27-14.12-1.3-21.11-.38-24.52,3.25-44.98,14.28-60.78,33.36-19.55,23.62-26.77,50.9-19.83,80.65,8.91,38.18,33.4,62.2,71.34,72.18,5.65,1.49,11.56,2.42,17.52,1.59,1.25,.08,2.51,.16,3.76,.24Z"/></g><g id="f"><path class="aa" d="M506.07,557.49c-.16,11.79-2.67,23.26-4.84,34.77-1.71,9.09-3.65,18.15-7.04,26.8-.75,1.91-1.42,5.07-3.82,4.52-2.81-.65-1.7-3.9-1.39-5.91,1.29-8.29,2.95-16.52,4.39-24.78,1.87-10.8,2.76-21.8,6.48-32.23,1.33-3.75,2.69-7.48,4.09-11.21,.24-.65,.42-1.67,1.43-1.4,.66,.18,.7,1.02,.71,1.67,0,2.59,0,5.17,0,7.76Z"/><path class="aa" d="M823.15,404.58c1.96,1.33,2.08,2.56,2.36,3.66,5.46,21.25,10.93,42.5,16.32,63.78,.84,3.33,1.47,6.73,1.45,10.2,0,.95-.07,1.97-.42,2.84-.56,1.43-1.48,2.88-3.21,2.71-1.64-.16-2.45-1.46-2.78-3.12-1.42-7.17-2.9-14.34-4.39-21.5-2.23-10.74-4.85-21.41-6.63-32.23-1.4-8.44-1.78-17.05-2.69-26.35Z"/><path class="aa" d="M793.84,416.74c.75,1.16,.33,2.41,.05,3.62-1.56,6.82-2.16,13.77-3,20.69-.58,4.84,.81,9.38,2.44,13.83,.74,2.04,1.17,4.12,1.45,6.25,.1,.75,.09,1.57-.77,1.94-.86,.37-1.44-.17-1.91-.78-5.59-7.26-9.75-15.04-7.94-24.64,1.37-7.27,4.84-13.74,8.29-20.18,.24-.45,.63-.88,1.39-.73Z"/><path class="aa" d="M538.66,423.29c-.42,12.43-2.88,24.58-6.25,36.47-2.87,10.11-4.31,20.38-5.35,30.76-.27,2.69-.6,5.37-1.61,7.87-1.03,2.53-2.63,2.78-4.28,.57-1.95-2.61-2.53-5.71-1.8-8.88,3.46-15.1,6.97-30.18,10.52-45.26,2.07-8.79,4.22-17.57,6.37-26.34,.18-.74-.06-2.05,1.14-1.98,1.26,.07,1.19,1.35,1.24,2.27,.07,1.5,.02,3.01,.02,4.52Z"/><path class="aa" d="M550.09,487.54c-.08-6.83-.23-13.68,1.38-20.42,2.81-11.83,5.78-23.62,6-35.89,.03-1.7,.35-3.43,.8-5.08,.45-1.67,1.24-3.69,3.42-3.02,1.99,.61,3.88,1.85,3.55,4.63-.83,7.05-1.45,14.13-2.37,21.16-1.67,12.81-6.62,24.68-10.91,36.72-.24,.68-.69,1.29-1.04,1.94l-.82-.05Z"/><path class="aa" d="M464.3,538.66c-.08,6.49-1.35,12.83-2.64,19.15-2.47,12.02-3.64,24.24-5.62,36.33-1.98,12.1-3.55,24.26-5.43,36.37-1.79,11.47-3.75,22.92-5.67,34.38-.32,1.9-.46,3.9-1.53,5.57-.96,1.49-2.17,2.84-4.24,1.97-2.05-.85-3.33-2.06-2.86-4.69,6.25-34.94,12.42-69.9,18.63-104.85,1.71-9.64,3.48-19.26,5.2-28.9,.23-1.3,.3-2.78,2.09-2.67,1.63,.1,1.99,1.47,2.06,2.82,.08,1.5,.02,3.01,.02,4.52Z"/><path class="aa" d="M876.45,330.25c2.09-4.94,5.91-7.09,9.86-9.03,9.87-4.86,20.5-6.67,31.41-7.46-14.17,4-27.13,10.95-41.28,16.5Z"/><path class="aa" d="M560.66,551.2c0-1.07,.1-2.16-.02-3.22-.24-2.11,.42-2.79,2.68-2.62,5.52,.42,5.52,.29,4.38,5.76-.22,1.05-.35,2.12-.56,3.17-.63,3.17-2.06,4.03-5.18,3.26-1.06-.26-1.39-.91-1.4-1.84-.03-1.5,0-3,0-4.5h.11Z"/><path class="aa" d="M486.26,545.54q-6.75-.44-4.64-6.5c2.19-6.29,3.4-6.81,9.54-4.23,.96,.4,1.48,.84,1.03,1.89-1.11,2.56-2.24,5.11-3.35,7.66-.52,1.21-1.45,1.47-2.57,1.18Z"/><path class="aa" d="M559.98,517.19c-.33-.13-.66-.25-.98-.38-.67-2.03-.34-3.55,2-4.17,.46-.12,1.13-.53,1.21-.9,.73-3.57,3.97-5.2,5.9-7.83,.49-.67,.97-1.19,1.83-.78,.7,.33,1.37,.83,1.36,1.65-.05,3.99,1.77,7.57,2.4,11.41,.13,.8,.44,1.44,1.39,1.46,.08,.31,.16,.62,.24,.93-1.7,1.24-3.49,3.15-4.56-.59-.04-.14-.37-.36-.46-.32-3.21,1.58-5.71-1.25-8.65-1.37-.84-.04-1.48-.12-1.66,.89Z"/><path class="aa" d="M779.91,514.49c-1.83,.15-2.24-.41-1.97-1.7,.91-4.31,1.78-8.63,2.6-12.96,.31-1.65,.92-1.76,2.05-.65,3.67,3.61,7.36,7.21,11.05,10.8,.86,.84,1.32,1.68-.3,2-4.64,.92-9.29,1.74-13.43,2.51Z"/><path class="aa" d="M816.19,591.31c.65-1.56,2.09-1.98,3.5-2.55,7.06-2.85,13.77-6.38,20.2-10.46,3.76-2.39,5.7-5.33,4.29-9.92-.37-1.2-.3-2.54-.43-3.82,.32-.95,.5-1.88-.4-2.65-.36-2.92,.14-5.78,.53-8.66,.19-1.39,.42-2.56,2.16-2.63,1.63-.06,2.76,.69,3.08,2.24,.89,4.41,1.75,8.83,2.46,13.27,.8,4.97,1.4,9.97,2.16,14.95,.44,2.86-.92,4.24-3.57,4.6-7.14,.97-14.14,2.82-21.25,3.85-4.23,.61-8.47,1.27-12.72,1.78Z"/></g><g id="g"><path class="ao" d="M526.8,534.45c-11.95-1.49-23.76-3.83-35.51-6.39-6.09-1.33-12.11-2.99-18.14-4.58-2.05-.54-4.04-1.34-6.29-2.1,1.13-1.35,2.38-.91,3.46-.94,10.35-.22,20.69,.18,30.93,1.56,7.96,1.07,15.99,2.12,23.74,4.43,.18,2.77,3.16,4.9,1.82,8.02Z"/><path class="al" d="M526.8,534.45c1.34-3.11-1.64-5.25-1.82-8.02,5.63-.09,10.97,1.69,16.45,2.59,13.19,2.16,26.34,4.62,39.5,6.98,1.89,.34,3.8,.64,5.41,1.87,.51,.39,1.27,.64,1.16,1.37-.13,.84-.96,.72-1.58,.69-6.97-.27-13.95-.36-20.91-.89-7.46-.57-14.9-1.5-22.33-2.39-5.31-.63-10.59-1.46-15.89-2.2Z"/><path class="al" d="M477.57,686c8.32,.42,16.38,2.64,24.52,4.33,14.39,2.98,28.59,6.86,42.65,11.29,4.54,1.43,9.08,3.01,13.26,5.8-6.43,.61-12.77,1.03-19.12-.23-19.49-3.87-39-7.66-58.49-11.5-.46-.09-.87-.45-1.3-.68,.59-3.22-.76-6.05-1.51-9Z"/><path class="ao" d="M482.57,687.17c.65,2.33,1.82,4.56,1.31,7.1-7.94-.52-15.61-2.71-23.44-3.84-8.46-1.23-16.44-4.09-24.48-6.77-.58-.19-1.08-.6-1.56-1.47,3.64,0,7.29-.15,10.92,.03,10.73,.52,21.33,2.29,31.97,3.62,1.84,.23,3.56,.75,5.29,1.33Z"/><path class="aa" d="M506.33,669.97c-.99,4.3-1.86,8.08-2.73,11.85-.29,1.25-.96,1.81-2.32,1.53-3.16-.65-6.32-1.33-9.52-1.77-2.07-.29-2.12-1.29-1.63-2.91,1.14-3.7,2.21-7.43,3.28-11.15,.5-1.72,1.24-2.54,3.26-1.77,2.51,.95,5.16,1.52,7.74,2.27,1.22,.35,2.31,.84,1.92,1.95Z"/><path class="ao" d="M683.15,732.82c-2.78,.5-5.55,1.41-8.39,.27,3.07-1.86,3.18-2.76,.1-4.77-2.42-1.58-5.04-2.89-7.68-4.08-16.29-7.31-32.79-14.24-46.85-25.61-7.51-6.07-13.68-13.2-15.91-22.88-1.9-8.26-3.72-16.53-4.28-25.07-.72-10.93-.52-21.72,2.59-32.28,5.19-17.64,16.19-31.04,30.65-41.99,5.84-4.42,12.63-6.9,18.94-10.34,3.79-2.06,7.57-4.14,10.7-7.15,2.17-2.09,1.89-3.1-.79-4.11-3.21-1.2-6.23-.84-9.36,.47-16.6,6.95-31.58,16.26-43.56,29.88-7.18,8.17-12.89,17.34-15.38,28.02-3.7,15.9-4.89,31.97-2.85,48.32,3.05,24.42,15.94,42.41,36.09,55.32,12.05,7.72,25.95,11.38,39.78,14.81,1.35,.34,3.12-.6,4.05,1.19-5.96,.83-11.88-.1-17.52-1.59-37.94-9.98-62.43-34.01-71.34-72.18-6.94-29.75,.28-57.03,19.83-80.65,15.79-19.08,36.26-30.11,60.78-33.36,6.98-.92,14.12-1.89,21.11,.38,.15,1.85,1.75,2.65,2.87,3.72,14.91,14.36,28.71,29.61,39.21,47.6,10.79,18.48,18.2,37.82,16.29,59.8-.61,7.04-2.12,13.83-4.75,20.27-8.24,20.23-23.27,34.7-40.82,46.91-4.45,3.1-9.28,5.63-13.5,9.08Z"/><path class="al" d="M683.15,732.82c4.21-3.45,9.05-5.98,13.5-9.08,17.55-12.21,32.57-26.68,40.82-46.91,2.62-6.44,4.13-13.23,4.75-20.27,1.92-21.98-5.49-41.32-16.29-59.8-10.5-17.99-24.3-33.24-39.21-47.6-1.12-1.08-2.71-1.87-2.87-3.72,6.6-.55,12.81,1.47,18.92,3.38,15.03,4.7,28.23,12.67,39.17,24.02,14.36,14.9,23.47,32.55,26.05,53.22,4.14,33.25-6.46,61.28-31.05,83.78-13.29,12.16-29.24,19.5-47.09,22.47-2.2,.37-4.47,.35-6.7,.51Z"/><path class="aq" d="M671,732.85c-.93-1.79-2.69-.86-4.05-1.19-13.83-3.43-27.72-7.09-39.78-14.81-20.15-12.92-33.04-30.9-36.09-55.32-2.04-16.35-.86-32.42,2.85-48.32,2.49-10.68,8.19-19.85,15.38-28.02,11.98-13.62,26.97-22.93,43.56-29.88,3.13-1.31,6.15-1.68,9.36-.47,2.68,1,2.96,2.02,.79,4.11-3.13,3.01-6.91,5.09-10.7,7.15-6.32,3.43-13.11,5.92-18.94,10.34-14.46,10.95-25.46,24.35-30.65,41.99-3.11,10.56-3.31,21.35-2.59,32.28,.56,8.54,2.38,16.81,4.28,25.07,2.23,9.68,8.4,16.81,15.91,22.88,14.06,11.37,30.56,18.29,46.85,25.61,2.64,1.19,5.26,2.5,7.68,4.08,3.08,2.01,2.96,2.91-.1,4.77-1.25-.08-2.51-.16-3.76-.24Z"/></g><path id="h" class="ad" d="M816.19,591.31c-5.07,.75-10.12,1.65-15.21,2.16-2.07,.21-3.74,1.33-5.84,1.52-4.56,.41-6.68-.28-8.8-4.4-1.61-3.13-2.61-6.56-4.73-9.46-1.61-2.2-.54-4.43,.53-6.35,2.32-4.18,4.77-8.27,6.68-12.67,.52-1.2,1.59-2.41,3.08-2.68,8.74-1.6,17.48-3.23,26.36-3.88,1.61-.12,2.82-.9,4.23-1.32,4.9-1.47,6.78,2.24,9.08,5.24,2.6,3.39,5.18,6.81,7.8,10.19,.38,.49,.78,1.17,1.53,.96,.85-.25,.95-1.12,1.07-1.84,.28-1.67-.23-3.48,.89-5.01,.29,.26,.59,.52,.88,.78,.13,1.28,.06,2.62,.44,3.82,1.42,4.59-.53,7.53-4.29,9.92-6.43,4.08-13.14,7.62-20.2,10.46-1.41,.57-2.85,.99-3.5,2.55Z"/><g id="i"><path id="j" class="ab" d="M389.88,324.31c-3.32-2.06-5.53-5.3-8.26-7.98-1.47-1.44-2.7-2.08-4.8-1.55-3.02,.76-6.13,1.12-9.2,1.67-.63,.11-1.31,.42-1.78-.23-.47-.65,.08-1.22,.37-1.77,1.4-2.67,2.67-5.42,4.25-7.97,1.33-2.15,1-4.05-.09-6.06-1.39-2.55-2.72-5.14-4.19-7.64-1.13-1.92-.27-2.36,1.44-2.08,3.18,.53,6.35,1.14,9.51,1.82,1.74,.37,3.14,.11,4.32-1.33,1.98-2.4,4.7-4.12,6.28-6.88,1.85-1.26,2.77-1.15,2.91,1.46,.18,3.2,.88,6.36,1.2,9.55,.14,1.4,.87,2.07,2.01,2.63,2.9,1.41,5.78,2.87,8.65,4.34,.64,.33,1.55,.48,1.6,1.41,.06,1.03-.92,1.02-1.56,1.32-.77,.38-1.52,.89-2.34,1.09-7.93,1.89-9.45,7.9-9.65,14.81-.03,1.15,.21,2.4-.68,3.39Z"/><path id="k" class="ab" d="M620.2,303.96c-6.08,.05-10.34-5.15-8.95-11.05,.56-2.41,2.08-3.96,4.72-4.16,1.75-.13,3.44,.1,5.08,.72,4.68,1.75,3.71,2.29,6.39-2.64,1.79-3.3,3.28-6.77,5.02-10.11,.79-1.51,.69-2.33-1.1-2.8-5.41-1.39-10.85-2.7-16.16-4.37-2.78-.88-3.75,.18-4.82,2.49-2.68,5.75-5.56,11.41-8.51,17.03-1.71,3.25-5.73,4.66-10.07,3.84-3.85-.73-7.95-4.42-8.42-7.59-.61-4.15,3.72-8.27,8.19-7.72,1.83,.22,3.68,.65,5.13,1.8,2.15,1.71,2.97,.74,3.95-1.31,3.14-6.6,6.55-13.08,9.69-19.68,1.16-2.44,2.58-2.6,4.85-1.65,8.34,3.48,16.71,6.91,25.14,10.19,2.47,.96,3.05,1.91,1.84,4.47-4.19,8.85-8.07,17.85-12.46,26.62-2.03,4.06-5.09,5.95-9.49,5.94Z"/><path id="l" class="ab" d="M936.96,182.61c.49-5.12,.84-9.95,1.47-14.75,.29-2.2-.39-3.71-2-5.06-3.71-3.11-7.37-6.27-11.04-9.42-.54-.46-1.46-.77-1.18-1.72,.26-.89,1.14-.83,1.87-.99,4.63-1,9.23-2.11,13.88-2.96,2.26-.41,3.63-1.4,4.45-3.58,1.71-4.52,3.64-8.97,5.46-13.45,.27-.67,.21-1.65,1.18-1.71,.88-.06,1.2,.8,1.56,1.43,2.43,4.18,4.88,8.36,7.25,12.58,1.03,1.84,2.38,2.83,4.59,2.93,4.84,.2,9.66,.6,14.49,.94,.71,.05,1.63-.28,2.03,.58,.45,.97-.33,1.57-.91,2.2-3.2,3.49-6.36,7.01-9.59,10.47-1.52,1.63-2.1,3.29-1.45,5.55,1.3,4.55,2.36,9.16,3.49,13.75,.19,.79,.69,1.75-.19,2.38-.71,.51-1.43-.07-2.11-.37-4.13-1.84-8.33-3.53-12.36-5.55-2.69-1.35-4.83-.88-7.17,.72-3.64,2.48-7.42,4.75-11.16,7.09-.62,.39-1.27,.98-2.06,.62-.9-.41-.45-1.31-.49-1.7Z"/><path id="m" class="ab" d="M956.53,311.51c-4.27,.01-6.7-1.66-7.49-5.01-.75-3.19,1.49-6.96,5.01-8.94,1.69-.95,4.56-.26,4.98-2.81,.31-1.88-1.05-3.67-1.66-5.5-1.97-5.92-3.82-11.89-5.84-17.79-.58-1.7-.19-2.62,1.41-3.29,8.93-3.75,17.87-7.49,26.77-11.33,1.78-.77,2.76-.6,3.45,1.3,3.61,10.03,7.8,19.85,10.62,30.15,1.12,4.1-1.09,8.61-5.29,11.12-3.14,1.88-7.45,1.22-10.42-1.59-3.75-3.54-3.18-7.1,1.47-10.34,1.78-1.24,5.01-1.02,5.22-3.65,.16-1.99-1.11-4.09-1.78-6.14-.9-2.75-1.89-5.47-2.75-8.23-.5-1.6-1.1-2.08-2.74-1.1-4.99,2.97-10.05,5.85-15.15,8.65-1.72,.94-1.78,2.03-1.2,3.71,2.04,6.01,4.1,12.02,5.84,18.12,1.56,5.46-1.16,10.18-6.52,12.04-1.34,.46-2.71,.7-3.92,.63Z"/><path id="n" class="ab" d="M641.62,70.95c.1,5.54-2.19,9.58-7.4,11.73-1.68,.69-2.42,1.76-2.63,3.61-1.11,9.61-2.35,19.2-3.57,28.79-.25,2,.75,2.5,2.49,2.25,4.3-.62,9.67-7.28,9.24-11.61-.09-.91-.55-1.88-1.09-2.64-.51-.73-1.21-1.82-2.33-1.14-.99,.59-1.31,1.67-.88,2.84,.22,.61,.55,1.18,.72,1.8,.41,1.44,.05,2.56-1.47,3.11-1.35,.49-2.54,.03-2.95-1.2-.91-2.67-2.52-5.34-.47-8.26,1.54-2.19,3.39-3.76,6.18-3.21,3.34,.66,5.6,2.72,6.43,6.08,1.82,7.36-3.74,18.96-13.59,19.12-2.34,.04-3.32,.87-3.94,3.2-2.7,10.11-9.07,15.08-18.25,14.3-5.2-.44-9.27-3.04-11.41-7.85-1.75-3.92-1.02-7.88,1.49-11.31,2.37-3.24,6.01-3.51,9.63-3.39,2.9,.09,4.31,2.17,5.34,4.54,1.28,2.95-1.15,7.27-4.29,7.69-1.37,.18-2.67-.01-3.31-1.4-.64-1.37,.27-2.23,1.3-2.92,.79-.53,1.96-.91,1.5-2.12-.49-1.31-1.77-1-2.81-.87-2.07,.26-3.66,1.26-4.42,3.29-.82,2.18-.64,4.24,.93,6.05,4.94,5.71,14.45,4.44,17.57-2.44,.93-2.04,1.39-4.3,2.05-6.46,.58-1.86-.86-2.48-2.06-3.16-2.15-1.23-4.45-2.21-6.52-3.56-7.8-5.07-9.31-17.3-3.05-24.21,4.05-4.47,9.17-7.47,14.45-10.17,1.85-.94,2.74-2.13,3.04-4.13,.51-3.29,1.18-6.57,1.91-9.82,.94-4.2,2.74-5.8,6.16-5.69,2.94,.09,5.02,2.19,5.75,5.96,.2,1.05,.18,2.14,.26,3.21Zm-15.67,18.84c-.86-.75,2.27-4.55-1.85-2.89-5.51,2.22-10.04,5.98-11.91,11.96-.96,3.08-1.61,6.38,.61,9.28,2.13,2.78,5.02,4.69,8.05,6.37,1.62,.9,2.28,.41,2.47-1.43,.81-7.7,1.72-15.39,2.62-23.3Zm10.8-19.24c-.02-.33,0-.87-.07-1.4-.09-.74-.16-1.64-1.05-1.8-1.26-.23-1.3,.93-1.45,1.69-.44,2.2-.78,4.43-1.13,6.65-.08,.5-.17,1.12,.49,1.36,.6,.21,1.02-.21,1.37-.6,1.45-1.62,1.77-3.62,1.84-5.9Z"/><path id="o" class="ab" d="M857.33,80.69c0,11.22-8.9,20.25-19.97,20.28-10.94,.03-20.19-9.19-20.21-20.13-.02-10.8,9.47-20.26,20.26-20.19,10.88,.06,19.93,9.17,19.92,20.04Z"/><path id="p" class="ab" d="M471.41,83.39c3.74,5.35,3.9,9.21,.39,13.63-3.15,3.96-7.32,4.24-11.84,2.95l.03-.09c-.52-.91-.91-1.93-1.57-2.72-3.09-3.74-5.16-7.56-1.75-12.23,.36-.49,.47-1.17,.69-1.76,.14-.13,.29-.24,.46-.34,1.56,.63,2.61-.67,3.81-1.15,3.25-1.29,5.9,.56,8.77,1.33l1.01,.37Z"/><path id="q" class="ab" d="M781.31,294.95c-.1,7.7-6.87,14.31-14.6,14.25-8.33-.06-15.04-6.8-14.61-15.16,.45-8.84,6.79-13.66,14.67-14.07,7.92-.41,14.65,6.91,14.54,14.98Z"/></g><path class="ab" d="M391.23,361.68c15.47-16.06,30.7-32.37,46.52-48.09,7.25-7.2,13.4-14.69,15.71-24.71-2.06-1.07-4.08-2.19-6.08-3.34-1.25,3.66-2.46,7.33-3.73,10.99-.31,.9-.73,1.86-1.37,2.52-15.94,16.47-31.92,32.9-47.89,49.34-5.57,5.84-11.12,11.7-16.73,17.5-25.25,26.11-50.52,52.21-75.79,78.31-7.87,8.13-15.72,16.29-23.65,24.37-1.64,1.67-2.17,3.09-.4,4.95,1.97,2.08,3.52,1.64,5.39-.31,11.68-12.19,23.46-24.3,35.19-36.44,19.69-20.39,39.37-40.8,59.09-61.17,.61-.63,1.01-2.05,2.15-1.54,1.04,.46,.47,1.74,.47,2.65,.02,83.02,.01,166.05,.01,249.07,0,3.9,.09,7.42-3.02,10.89-4.98,5.55-8.78,12.14-13.42,18.02-8.27,10.47-15.78,21.5-23.95,32.03-2.76,3.56-4.72,7.87-8.77,10.37-1.02,3.52-3.71,5.96-5.79,8.78-1.36,1.85-1.83,3.46,.41,4.79,1.76,1.05,3.66,2.2,5.06-.63,.42-.85,1.11-1.57,1.73-2.3,3.65-4.3,6.39-9.31,10.42-13.32,1.37-3.69,4.33-6.3,6.47-9.46,.57-.84,1.39-1.01,2.16-.18,2.03,2.19,4.7,3.74,6.26,6.38,1.39,.28,2.06,1.5,2.99,2.35,3.9,3.53,7.6,7.3,11.68,10.61,5.02,4.08,9.26,8.29,7.76,15.58-.32,1.55,.05,3.23-.07,4.83-.14,2.02,.4,3.38,2.66,3.56,2.19,.18,3.84-.39,4.24-2.86,.26-1.61,.25-3.19-.05-4.8-.95-5.06-.64-9.73,3.58-13.51,1.74-1.55,3.01-3.62,4.54-5.42,4.15-4.91,8.34-9.8,12.48-14.72,1.35-1.6,2.28-1.57,3.29,.4,1.32,2.57,2.88,5.03,4.36,7.52,3.44,5.82,6.93,11.62,10.32,17.47,1.25,2.16,2.89,1.57,4.36,.64,1.35-.85,2.84-2.12,1.64-3.96-5.57-8.51-9.72-17.87-15.67-26.14-6.48-11.04-13.01-22.06-19.43-33.14-2.99-5.17-6.32-10.16-8.77-15.65-.64-1.44-.92-2.81-.92-4.34,.01-86.98,.01-173.97,0-260.95,0-3.34,1.71-5.46,4.53-6.91Zm-13.14,292.37c-.03,12.57-.13,25.13-.2,37.7,.07,3.43,.13,6.87,.2,10.3,.04,1.99-.76,2.83-2.43,1.33-3.63-3.27-8.17-5.46-11.13-9.5-3.86-2.58-6.68-6.26-9.99-9.43-1.1-1.05-1.11-2.23-1.05-3.52-.82-.95-.15-1.13,.64-1.25,3.88-6.52,8.91-12.2,13.25-18.39,2.08-2.97,4.36-5.79,6.58-8.66,.81-1.04,1.8-2.1,3.23-1.65,1.56,.49,.91,2.01,.9,3.08Zm7.16-2.58c.67-.02,1.04,.45,1.11,1.13,.68,1.06,1.36,2.12,2.04,3.17,.94,.09,1.34,.54,.96,1.48,4.05,7.03,8.09,14.06,12.14,21.08,2.36,2.62,2.32,4.94-.13,7.09-1.43,1.41-2.38,3.32-4.39,4.11-.2,2.56-2.55,3.58-3.87,5.33-1.86,2.47-3.95,4.76-5.98,7.1-.48,.55-1.08,1.14-1.93,.73-.73-.35-.58-1.09-.56-1.7,.14-3.52-.34-7.07,.27-10.58-.06-11.12-.12-22.24-.18-33.36,0-1.5-.03-2.99-.05-4.49-.07-.51-.09-1.08,.59-1.09Z"/><path class="ab" d="M860.29,583.92c-.87-1.08-.87-2.17-.02-3.26,.01-.64,.02-1.29,.03-1.93-.1-.21-.21-.43-.31-.64-.83-.25-1.15-.63-.33-1.3,.06-.45,.12-.9,.17-1.34l-.32-.63c-1.33-.3-1.4-.96-.54-1.89,.03-.64,.06-1.28,.1-1.93-.11-.24-.23-.48-.35-.73-1.23-.39-1.16-1.07-.43-1.9,.06-.44,.11-.89,.17-1.33h-.25c-1.6-.56-1.24-1.52-.52-2.55,.05-.43,.09-.87,.14-1.3-.12-.86-.25-1.73-.37-2.59-.59-.56-.58-1.21-.3-1.91-.12-.66-.23-1.33-.35-1.99-.58-.53-.6-1.18-.36-1.87-.15-.46-.3-.92-.45-1.38-.81-.26-1.1-.61-.2-1.16-.5-4.07-2.83-6.63-6.64-7.94-1.91-.02-3.82-.04-5.74-.05-.46,.08-.92,.17-1.37,.25-.56,.6-1.21,.59-1.91,.3-.88,.12-1.77,.24-2.65,.35-.54,.58-1.17,.61-1.86,.34-.66,.08-1.33,.17-1.99,.25-.74,.69-1.59,.72-2.49,.38-.47,.09-.95,.17-1.43,.26-1.83,.92-3.78,1.11-5.78,.97-.64,.1-1.29,.2-1.94,.3-.54,.64-1.19,.64-1.9,.33-.88,.12-1.76,.24-2.65,.36-.56,.61-1.2,.65-1.91,.3-.65,.12-1.31,.24-1.96,.36-.75,.76-1.64,.63-2.55,.42-.66,.08-1.31,.16-1.97,.24-1.61,.92-3.36,1.09-5.16,.94-.88,.12-1.77,.24-2.65,.37-.74,.68-1.59,.68-2.48,.43-.45,.07-.91,.13-1.36,.2-.57,.61-1.23,.61-1.94,.3-.65,.09-1.3,.19-1.94,.28-.72,.77-1.6,.74-2.52,.49-.67,.1-1.34,.2-2.01,.3-.55,.59-1.19,.6-1.88,.3-.46,.08-.93,.16-1.39,.24-.73,.75-1.59,.65-2.48,.4-.67,.1-1.33,.19-2,.29-.56,.59-1.21,.65-1.93,.32-.45,.09-.89,.18-1.34,.27-.74,.75-1.62,.62-2.51,.39-.67,.09-1.34,.18-2.01,.27-.54,.62-1.19,.66-1.89,.34-.66,.11-1.33,.22-1.99,.33-.98,.77-2.07,.53-3.16,.36-1.36,.7-2.38,.31-3.42-.78-7.62-8.01-16.34-14.67-25.73-20.46-1.15-.11-2.08-.62-2.75-1.57-4.27-2.07-8.54-4.14-12.81-6.2-.7,.16-1.2-.13-1.59-.68-.83-.28-1.66-.57-2.49-.85-.22-.1-.45-.19-.67-.28-.77-.26-1.55-.53-2.32-.79-1.21,.06-2.25-.36-3.2-1.08-1.75-.48-3.51-.95-5.26-1.43-.73,.2-1.39,.16-1.85-.54-.44-.09-.88-.18-1.32-.27-.85,.21-1.41,.04-1.36-.99,.08-.67,.17-1.33,.25-2-.23-.5-.19-.93,.3-1.26,.12-.67,.25-1.33,.37-2-.27-.47-.22-.89,.22-1.24l.26-1.39c-.2-.69-.21-1.34,.43-1.83,.57-3.04,1.14-6.08,1.71-9.12-.25-.49-.21-.92,.28-1.24l.25-1.41c-.26-.69-.23-1.31,.37-1.82,.11-.67,.23-1.34,.34-2.01-.23-.5-.21-.93,.29-1.26,.14-.65,.28-1.29,.42-1.94-.3-.5-.24-.94,.23-1.3,.14-.85,.28-1.7,.42-2.55-.25-.51-.23-.97,.25-1.34,.09-.46,.18-.91,.27-1.37-.25-1.1-.1-2.09,.8-3.05,.04,.02,.07,.05,.1,.07-.51-3.71-1.28-7.38-1.76-11.09-.9,.11-1.8,0-2.57-.38-.05,.35-.23,.67-.64,.94-.13,.68-.27,1.35-.41,2.03,.54,.5,.38,.86-.24,1.12-.09,.4-.17,.8-.26,1.2,.32,.77,.4,1.49-.41,2.03-.07,.39-.14,.79-.21,1.18,.29,.77,.43,1.51-.39,2.07-.12,.57-.24,1.14-.36,1.71,.34,.57,.37,1.1-.25,1.52-.11,.59-.23,1.19-.34,1.78,.35,.82,.49,1.61-.42,2.19-.11,.46-.21,.93-.32,1.39,.56,.69,.47,1.28-.3,1.74-.1,.6-.21,1.19-.31,1.79,.37,.61,.33,1.14-.32,1.53-.14,.68-.27,1.36-.41,2.04,.54,.47,.4,.82-.19,1.09-.09,.43-.18,.85-.27,1.28,.33,.77,.42,1.5-.39,2.06-.13,.68-.26,1.36-.38,2.05,.57,.74,.47,1.36-.35,1.84-.1,.46-.21,.93-.31,1.4,.53,.47,.36,.81-.21,1.06-.14,.83-.29,1.66-.43,2.5,.34,.55,.35,1.03-.27,1.4-.1,.4-.19,.8-.29,1.2,.32,.76,.43,1.49-.38,2.04-.11,.62-.22,1.23-.33,1.85-.17,3.62-.62,3.96-3.56,2.65-.47-.08-.94-.16-1.41-.23-1.3,.54-2.55,.7-3.68-.38-.83-.04-1.67-.09-2.5-.13-5.92,.27-11.83,.34-17.75-.05-.84,.07-1.68,.14-2.52,.2-.92,.99-1.78,1.06-2.56-.17-.37-.99-.74-1.97-1.12-2.96-.7-.35-.81-.88-.47-1.55-.09-.39-.18-.78-.28-1.17-.59-.25-.79-.59-.25-1.1-.14-.46-.27-.91-.41-1.37-.66-.38-.73-.91-.42-1.55-.29-1-.58-1.99-.87-2.99-1.15-1.74-1.69-3.65-1.55-5.74-.11-.46-.22-.92-.32-1.38-.67-.36-.79-.88-.45-1.53-.09-.38-.18-.76-.27-1.14-.61-.26-.8-.61-.27-1.14-.13-.45-.26-.9-.39-1.34-.86-.89-1.24-1.92-.88-3.15-.14-.48-.28-.95-.42-1.43-.62-.32-.71-.81-.42-1.4-.1-.42-.2-.85-.3-1.28-.85-.97-1.24-2.07-.94-3.36-.11-.39-.23-.78-.34-1.17-.58-.33-.62-.8-.35-1.35-.3-1.19-.6-2.38-.9-3.56-.18,.64-.35,1.27-.53,1.89-.95,3.41-1.95,6.81-2.98,10.2,.8,2.94,1.6,5.88,2.4,8.82,1.78,6.54,3.53,13.08,5.36,19.6,.41,1.45,.52,2.47-1.37,2.82-7.21,1.34-14.25,3.28-21.07,5.98-.03,.01-.07,.01-.11,.01-1.87,1.92-4.13,3.54-6.92,4.7-10.47,4.39-22.48,2.4-33.45,1.62-13.67-.97-27.35-2.27-39.79-8.45-.81-.4-1.44-1.11-1.86-1.94-.84-.15-1.68-.29-2.52-.43-.43-.19-.86-.38-1.29-.58-.76,.28-1.44,.24-1.98-.44-.62-.11-1.23-.22-1.85-.33-.75,.36-1.44,.33-2.04-.31-.84-.12-1.69-.24-2.53-.36-.73,.33-1.42,.4-1.96-.34-.44-.07-.87-.15-1.31-.22-2.26,.25-4.42-.05-6.48-1.04-.84-.12-1.69-.24-2.53-.36-.74,.38-1.42,.4-2.02-.27l-1.88-.24c-1.15,.26-2.29,.43-3.29-.44-.63-.08-1.27-.16-1.9-.23-2.89,.26-5.7-.13-8.45-1.03-.64-.07-1.28-.15-1.92-.22-1.35,.31-2.68,.45-3.91-.41-1.07-.1-2.14-.2-3.21-.3-1.56,.3-3.11,.49-4.57-.39-1.06-.07-2.12-.15-3.19-.22-1.77,.23-3.55,.65-5.21-.42-3.48-.12-6.97-.23-10.45-.35-1.08,.49-2.13,.5-3.12-.24-.91,0-1.81-.01-2.72-.02-1.03,.8-2.13,.64-3.24,.23-.64,.11-1.29,.21-1.93,.32-.51,.78-1.21,.73-1.96,.46-.42,.09-.84,.18-1.26,.27-.32,.51-.76,.63-1.3,.42-5.03,2.62-8.53,6.34-9.23,12.27-.36,3.09-.96,6.15-1.52,9.22-1.94,10.66-3.91,21.32-5.86,31.98-1.88,10.9-3.71,21.8-5.65,32.69-4.56,25.49-9.19,50.96-13.76,76.45-.48,2.7-.29,5.35,1.23,7.77,4.89,3.83,10.42,6.69,16.3,8.22,13.28,3.47,26.56,6.99,40.05,9.66,12.83,2.54,25.7,4.85,38.65,6.63,10.09,1.38,20.27,2,30.26,4.15,7.52,1.62,13.76-1.24,18.92-6.51,2.94-3,2.74-3.19,5.35,.27,.06,.09,.15,.16,.22,.24,2.91,3.82,2.84,4.11-.82,7.19-9.28,7.82-18.55,15.65-27.77,23.53-1.13,.96-2.15,2.2-2.16,3.83-.04,4.53-.04,9.06,0,13.59,.02,2.22,1.37,2.93,3.4,2.93,2.13,0,3.62-.62,3.63-3.05,.01-2.8,.25-5.63-.05-8.4-.31-2.95,.91-4.87,3.02-6.65,8.7-7.34,17.38-14.71,25.99-22.16,1.34-1.16,2.14-1.03,3.17,.18,1.53,1.8,3.04,3.64,4.71,5.3,9.27,9.23,19.54,17.04,31.14,23.25,16.74,8.96,34.63,13.11,53.39,14.08,6.35,.33,12.65-.42,18.95-1.19,14.68-1.79,28.49-6.22,41.49-13.21,8.84-4.76,16.98-10.48,24.46-17.22,5.71-5.15,5.8-4.89,10.76,1.17,3.1,3.78,5.09,7.68,4.46,12.82-.45,3.72,.09,7.55-.13,11.31-.17,2.93,1.64,3.58,3.76,3.67,2.29,.09,3.45-1.15,3.38-3.65-.13-5.17-.25-10.36,.03-15.52,.2-3.58-.73-6.52-3.07-9.14-1.58-1.76-2.98-3.69-4.66-5.35-1.75-1.73-1.75-3.03-.04-4.89,8.46-9.21,17.45-17.9,26.25-26.77,.55-.56,.94-1.52,2.21-1.21,0,3.63,.08,7.29-.03,10.94-.08,2.67,.84,3.93,3.69,4.03,3.15,.12,3.54-1.52,3.42-4.03-.13-2.67-.03-5.35-.03-8.02,3.6,3.94,6.34,7.91,9.04,11.9,3.8,5.6,7.56,11.23,11.39,16.81,2.26,3.29,4.02,3.44,6.41,.84,1.27-1.39,1.1-2.5,.07-3.98-8.57-12.36-17.05-24.78-25.6-37.16-1.04-1.51-1.56-2.97-1.07-4.83,.32-1.22,.25-2.55,.35-3.83-.28-8.03,.9-16,.89-24.01-.03-1.51-.07-3.03-.1-4.54-.52-1.98-1.45-3.99,.55-5.73l.2-.05c-.47-1.51-.19-3.05-.13-4.58-.55-1.98-1.41-3.99,.56-5.72,.11-2.41,.22-4.83,.33-7.24-1.21-1.15-1.28-2.21,.25-3.14,.36-2.16,.56-4.34,.4-6.54-1.21-1.55-1.32-3.06,.18-4.5,.15-1.7,.31-3.41,.46-5.12-.48-1.31-.17-2.66-.2-4-.74-.97-.28-1.19,.69-1.1,.21-.05,.38-.16,.53-.31,1.22-1.58,2.71-2.05,4.53-1.06,.64,.02,1.27,.05,1.91,.07,.23-.11,.45-.21,.68-.32,1.51-1.44,3.2-1.99,5.18-1.04,.41,.05,.82,.1,1.23,.14,.26-.11,.52-.22,.78-.34,.58-1.5,1.43-1.33,2.41-.39,.68-.13,1.36-.26,2.04-.39,.21-.92,.63-1.03,1.27-.34,.42,.04,.85,.08,1.27,.12,.44-.13,.88-.26,1.32-.39,.19-.88,.57-1.17,1.27-.38,.64,.01,1.29,.03,1.93,.04,.22-.12,.44-.24,.67-.35,.28-.87,.67-1.12,1.26-.22,.68-.1,1.35-.19,2.03-.29,.32-1.29,1-1.31,1.89-.52,.65,.01,1.29,.03,1.94,.04l-.04-.25c.44-1.17,1.12-1.24,1.99-.42,.44,.05,.89,.09,1.33,.14v-.25c.56-1.58,1.52-1.24,2.56-.54,.42,.03,.83,.07,1.25,.1,3.59-.95,5.97-3.23,7.31-6.65l-.07-1.26Zm-24.16-32.07c1.11-.04,1.35,.81,1.41,1.72-.09,.59,.14,1.52-.73,1.51-1.08-.02-1.66-.89-1.77-1.91-.07-.7,.38-1.29,1.09-1.32Zm-64.99,10.53c3.07-.48,6.15-.92,9.23-1.37,1.64-.19,1.82,.58,1.13,1.87-1.37,2.55-2.75,5.1-4.09,7.67-.58,1.11-1.27,1.5-2.19,.45-1.9-2.18-2.91-4.99-4.97-7.09-.73-.74,.03-1.4,.89-1.53Zm-300.83-41.93c10.35-.22,20.69,.18,30.93,1.56,7.97,1.07,15.99,2.12,23.74,4.43,5.63-.1,10.97,1.69,16.45,2.58,13.19,2.16,26.34,4.62,39.5,6.98,1.89,.34,3.8,.64,5.41,1.87,.51,.39,1.27,.64,1.16,1.37-.13,.84-.96,.72-1.58,.69-6.97-.27-13.95-.36-20.91-.89-7.46-.57-14.9-1.5-22.33-2.39-5.31-.63-10.59-1.46-15.89-2.2-11.95-1.49-23.76-3.83-35.51-6.39-6.09-1.33-12.11-2.99-18.14-4.58-2.05-.54-4.04-1.34-6.29-2.1,1.13-1.35,2.38-.91,3.46-.94Zm90.33,27.54c-.24-2.11,.42-2.79,2.68-2.62,5.52,.42,5.52,.29,4.38,5.76-.22,1.05-.35,2.12-.56,3.17-.63,3.17-2.06,4.03-5.18,3.26-1.06-.26-1.39-.91-1.4-1.84-.03-1.5,0-3,0-4.5h.11c0-1.07,.1-2.16-.02-3.22Zm-68.45-11.29c-1.11,2.56-2.24,5.11-3.35,7.66-.52,1.21-1.45,1.47-2.57,1.18q-6.75-.44-4.64-6.5c2.19-6.29,3.4-6.81,9.54-4.23,.96,.4,1.48,.84,1.03,1.89Zm44.43,168.2c-16.87-3.05-33.74-6.04-50.61-9.08-.39-.07-.75-.35-1.12-.54-7.94-.52-15.61-2.71-23.44-3.84-8.46-1.23-16.44-4.09-24.48-6.77-.58-.19-1.08-.6-1.56-1.47,3.64,0,7.29-.15,10.92,.03,10.73,.52,21.33,2.29,31.97,3.62,1.84,.23,3.56,.75,5.29,1.33,7.2,.33,14.17,2.09,21.21,3.42,12.45,2.35,24.74,5.41,36.91,8.91,3.93,1.13,7.86,2.37,11.47,4.58-5.57,.48-11.05,.81-16.55-.18Zm-45.49-25.22c1.14-3.7,2.21-7.43,3.28-11.15,.5-1.72,1.24-2.54,3.26-1.77,2.51,.95,5.16,1.52,7.74,2.27,1.22,.35,2.31,.84,1.92,1.95-.99,4.3-1.86,8.08-2.73,11.85-.29,1.25-.96,1.81-2.32,1.53-3.16-.65-6.32-1.33-9.52-1.77-2.07-.29-2.12-1.29-1.63-2.91Zm73.48,20.53c-.45,1.41-1.09,1.74-2.33,.84-8.84-6.39-19.42-8.2-29.59-10.95-6.26-1.69-12.59-3.2-19.04-4.11-2.15-.3-1.61-2.1-1.32-3.62,.98-5.17,1.23-10.47,2.87-15.52,.45-1.4-.55-2.15-1.83-2.54-6.8-2.03-13.63-3.97-20.37-6.17-2.48-.81-2.78,.68-3.24,2.27-1.67,5.78-3.36,11.56-4.93,17.36-.67,2.46-1.54,3.27-4.5,2.82-9.64-1.48-19.32-2.75-29.06-3.61-5.6-.49-11.18-.62-16.76-.43-3.11,.1-3.81-1.16-3.35-3.77,.91-5.17,1.9-10.34,2.81-15.51,2.98-16.98,5.9-33.98,8.93-50.96,2.3-12.88,4.82-25.73,7.11-38.61,2.24-12.56,4.31-25.14,6.47-37.71,.2-1.16,.48-2.32,.83-3.44,.42-1.36,1.34-2.01,2.71-1.23,4.44,2.52,9.43,3.62,14.15,5.38,2.32,.86,2.69,1.9,1.82,4.09-1.67,4.19-3.05,8.49-4.7,12.69-.74,1.88-.47,2.7,1.66,2.98,5.95,.8,11.87,1.75,17.8,2.66,1.58,.24,2.02-.83,2.49-1.95,1.5-3.57,3.03-7.13,4.53-10.7,.73-1.74,1.5-2.52,3.85-2.17,9.33,1.41,18.73,2.32,28.09,3.57,3.31,.44,6.29,2.06,9.83,2.22,3.35,.15,6.72,1.18,10.19,1.06,2.15-.07,3.1,1.17,3.08,3.26-.02,2.26,0,4.53,0,6.79,0,.32,0,.65,0,.97,0,8.62,0,8.55,8.59,9.02,3.1,.17,6.15-.31,9.24-.27,2.31,.03,3.37-2.64,3.22-4.55-.34-4.36,2.53-7.91,2.49-12.14-.01-1.08,1.38-1.36,2.35-1.16,3.83,.8,7.7,.55,11.57,.63,.78,.02,1.55,.2,1.74,1.11,.16,.75-.49,1.11-.9,1.6-3.18,3.82-6.35,7.65-9.5,11.49-.34,.41-.46,1.06-.86,1.34-5.25,3.7-7.46,9.66-10.95,14.66-3.72,5.34-5.84,11.54-8.3,17.47-1.59,3.83-2.61,8.06-3.84,12.08-1.49,4.85-2.33,9.75-3.21,14.66-2.1,11.7-2.25,23.36-.08,35.16,1.67,9.06,3.46,18.07,6.57,26.71,1.56,4.32,3.71,8.37,3.89,13.1,.04,1.09,.12,2.06-.22,3.12Zm199.48,13.02c-8.25,9.48-17.64,17.72-28.5,24.34-8.33,5.08-16.83,9.74-26.19,12.31-7.08,1.94-14.2,3.91-21.69,4.25-5.33,.24-10.66,.78-16,.6-21.57-.72-41.36-7.05-59.38-18.94-17.07-11.26-30.23-25.97-39.55-44.17-2.49-4.86-3.3-10.21-4.79-15.35-1.83-6.29-3.22-12.7-4.95-19.02-1.37-5.02-1.99-10.11-1.93-15.32,1.06-22.51,5.82-44.02,17.48-63.62,2.82-4.73,7.08-8.35,10.36-12.75,9.54-12.8,22.05-21.96,36.26-28.84,13.68-6.62,28.1-10.37,43.39-11.3,9-.55,17.83-.02,26.59,1.53,11.7,2.07,23.08,5.4,33.57,11.19,5.78,3.19,11.18,6.92,16.42,11.03,4.31,3.38,8.46,6.93,12.54,10.54,6.15,5.46,11.23,11.93,14.75,19.38,1.66,3.51,4.19,6.38,5.84,9.85,5.37,11.32,9.65,23.06,11.09,35.49,1.38,11.83,1.61,23.89-.68,35.6-2.4,12.26-6.08,24.22-12.6,35.15-3.71,6.24-7.29,12.62-12.02,18.05Zm39.87-98.31c-.13,2.79-.26,5.57-.4,8.36,.27,1.56,.76,3.13-.38,4.57-.1,2.35-.2,4.71-.3,7.06,.33,2.63,.66,5.27-.43,7.82l-.09,3.2c.16,1.97,.64,3.95-.4,5.84-.07,1.08-.14,2.16-.2,3.24,.24,.49,.17,.94-.12,1.39-.08,6.21-.41,12.4-1.14,18.57,.84,4.16-.48,7.35-3.69,10.24-5,4.51-9.63,9.42-14.74,14,4.06-7.99,7.24-16.31,10.21-24.72,.88-4.12,1.8-8.24,2.64-12.38,.34-1.67,.49-3.38,.73-5.07-.14-.91-.28-1.83,.47-2.58,.1-.85,.19-1.7,.29-2.55-.35-1.34-.64-2.68,.35-3.9,.22-5.43,.27-10.85-.04-16.28-.81-.81-.68-1.7-.25-2.63-.12-1.07-.23-2.14-.35-3.21-.66-.59-.62-1.27-.23-1.98l-.42-3.18c-.71-.54-.67-1.23-.37-1.97-.1-.64-.2-1.27-.3-1.91-.5-.38-.55-.84-.23-1.36-.14-.62-.29-1.24-.43-1.86-.56-.33-.62-.79-.37-1.34-.5-1.93-.99-3.86-1.49-5.79-.68-.95-1.3-1.92-.92-3.18l.15-.77c2.79-2.16,6.27-1.58,9.41-2.33,4.41-1.06,5.02-.2,3.64,4.34-.14,2.18-.29,4.36-.43,6.54,.63,1.3,.64,2.57-.15,3.81Zm46.2-29.23c-7.14,.97-14.14,2.82-21.25,3.85-4.23,.61-8.47,1.27-12.72,1.78-5.07,.75-10.12,1.65-15.21,2.16-2.07,.21-3.74,1.33-5.84,1.52-4.56,.41-6.68-.28-8.8-4.4-1.61-3.13-2.61-6.56-4.73-9.46-1.61-2.2-.54-4.43,.53-6.35,2.32-4.18,4.77-8.27,6.68-12.67,.52-1.2,1.59-2.41,3.08-2.68,8.74-1.6,17.48-3.23,26.36-3.88,1.61-.12,2.82-.9,4.23-1.32,4.9-1.47,6.78,2.24,9.08,5.24,2.6,3.39,5.18,6.81,7.8,10.19,.38,.49,.78,1.17,1.53,.96,.85-.25,.95-1.12,1.07-1.84,.28-1.67-.23-3.48,.89-5.01,.04-.65-.19-1.38,.48-1.87-.36-2.92,.14-5.78,.53-8.66,.19-1.39,.42-2.56,2.16-2.63,1.63-.06,2.76,.69,3.08,2.24,.89,4.41,1.75,8.83,2.46,13.27,.8,4.97,1.4,9.97,2.16,14.95,.44,2.86-.92,4.24-3.57,4.6Z"/><path class="ab" d="M1080.3,560.99c-.89-.61-1.75-1.26-2.66-1.84-37.09-23.81-74.19-47.58-111.24-71.45-6.13-3.95-12.58-7.44-18.26-12.08-6.11-2.98-11.53-7.1-17.28-10.67-7.59-4.71-15.06-9.64-22.66-14.34-1.68-1.04-1.97-2.17-1.76-3.96,2.07-17.66,4-35.33,6.13-52.98,.48-3.96-1.12-7.41-1.99-11.02-2.09-8.66-4.4-17.26-6.82-25.83-2.27,.23-4.53,.51-6.79,.8,.15,.31,.28,.67,.4,1.12,2.12,8.34,4.1,16.74,6.64,24.95,1.88,6.07,1.66,12,.89,18.13-1.87,14.84-3.5,29.72-5.31,44.57-.46,3.79,.56,6.83,3.8,8.93,14.16,9.17,28.33,18.3,42.5,27.45,4.34,2.13,8.23,4.97,11.97,7.97,2.14,1.72,2.99,4.17,2.91,7.17-.62,26.26-1.07,52.53-1.59,78.79-.42,21.2-.93,42.4-1.26,63.61-.08,5.09-1.18,9.39-4.7,13.47-7.64,8.88-14.72,18.26-22.02,27.44-.67,.84-1.14,1.86-2.37,2.02-.28,1.18-.98,2.11-1.72,3.04-10.23,12.97-20.39,25.99-30.7,38.89-1.61,2.01-1.47,3.34,.31,4.89,1.95,1.69,3.63,1.54,5.15-.56,.63-.87,1.27-1.73,1.93-2.57,8.04-10.18,15.94-20.48,24.21-30.47,3.4-4.1,6.22-8.69,10.19-12.32,1.2-4.32,2.8-4.85,6.05-1.98,.72,.64,1.4,1.31,2.1,1.97,2.57,2.26,4.98,4.74,7.76,6.7,2.22,1.56,2.81,3.47,2.42,5.82-1.08,6.62-.25,13.29-.55,19.92-.12,2.67,1.84,3.12,3.9,3.17,2.09,.05,3.18-1.04,3.15-3.17-.1-6.43,.62-12.86,.49-19.27-.1-4.7,1.55-7.51,5.63-9.27,.57-2.47,3.01-3.12,4.58-4.61,.87-.82,1.53,.06,1.95,.86,.73,1.41,1.38,2.85,1.61,4.44,5.09,7.48,8.42,15.92,12.85,23.77,3.6,6.36,6.88,12.91,10.07,19.48,1.36,2.8,3.18,2.04,5.06,1.19,2.12-.96,2.73-2.47,1.31-4.64-1.23-1.89-2.26-3.91-3.29-5.92-3.09-6.02-6.41-11.93-9.4-17.98-2.37-4.79-5.5-9.26-6.92-14.51-1.37-.52-1.74-1.84-2.33-2.97-6.34-12.13-12.63-24.28-19.03-36.38-.9-1.69-1.33-3.33-1.27-5.22,.23-6.89,.39-13.78,.54-20.68,.43-19.82,.85-39.65,1.27-59.47,.44-21.01,.89-42.02,1.32-63.04,.08-3.96,1.46-4.77,4.96-2.68,2.86,1.71,5.62,3.6,8.43,5.4,23.05,14.76,46.1,29.51,69.15,44.26,8.8,5.64,17.61,11.26,26.38,16.95,1.87,1.21,3.36,1.18,4.75-.64,1.44-1.89,.97-3.37-.86-4.63Zm-122.92,111.25h-.32c0,2.79,0,5.58,0,8.36,0,2.35-1.04,2.65-2.75,1.29-2.59-2.08-5.13-4.22-7.7-6.32-.88-.72-1.18-1.48-.38-2.46,2.76-3.41,5.5-6.85,8.28-10.25,.53-.65,1.17-1.5,2.11-1.17,1.23,.42,.72,1.63,.74,2.52,.05,2.68,.02,5.36,.02,8.04Zm8.45-6.97c1.69,3.23,3.33,6.48,5.08,9.68,.64,1.18,.44,1.99-.56,2.77-1.35,1.06-2.66,2.16-4,3.23-.65,.52-1.23,1.48-2.17,1.07-1.11-.48-.71-1.65-.77-2.52,.57-4.54,.29-9.05,.36-13.55,.01-.69-.39-1.69,.53-1.99,.92-.3,1.2,.66,1.53,1.3Z"/><g id="r"><path class="aq" d="M419.14,255.86c-.48,2.08-2.29,1.37-3.45,1.36-3.66-.04-6.95,1.03-10.14,2.63-4.16,2.08-4.68,4.94-1.48,8.37,3.78,4.05,8.38,7.05,13.11,9.82,9.01,5.28,18.54,9.37,28.64,12.13,.68,.19,1.31,.55,2.23,.95-1.25,1.23-2.69,.68-3.79,1.19-1.97-.36-3.86-1.24-5.93-.99-.57-.18-1.14-.37-1.71-.55-.65-.72-1.43-1.09-2.43-.84-1.03-.32-2.06-.64-3.09-.95-.82-.85-1.84-1.13-2.98-1.11-.36-.13-.72-.27-1.08-.4-1.36-.75-2.77-1.34-4.35-1.45-1.28-.45-2.57-.89-3.85-1.34-.41-.53-.93-.77-1.61-.57-.22-.08-.44-.16-.67-.25-1.65-1.25-3.56-1.86-5.58-2.17-.65-.24-1.29-.48-1.94-.73-1.2-1.11-2.65-1.57-4.25-1.68-.37-.16-.75-.31-1.12-.47-1.06-.92-2.28-1.47-3.7-1.52-1.78-.86-3.47-1.91-5.44-2.29-.33-.57-.79-.87-1.47-.71-1.37-.6-2.74-1.21-4.11-1.81-.32-.56-.78-.85-1.45-.76-.2-.1-.39-.19-.59-.28-.35-.58-.85-.84-1.53-.66-.21-.09-.42-.17-.63-.26-.3-.61-.76-.92-1.46-.78-.2-.1-.41-.19-.61-.29-.96-1.04-2.18-1.6-3.56-1.83-.13-.18-.31-.29-.54-.31-.35-.55-.84-.82-1.51-.72-.2-.13-.41-.25-.61-.38-.57-.75-1.27-1.26-2.27-1.21-.46-.25-.92-.51-1.37-.76-.29-.61-.75-.91-1.44-.82-.71-.44-1.42-.89-2.12-1.33-.27-.59-.72-.88-1.38-.79-.32-.24-.65-.48-.97-.72-.88-1.02-1.92-1.81-3.24-2.19-.29-.22-.57-.43-.86-.65-.71-1.18-1.7-2.03-2.95-2.59l-.18-.16c-.1-.63-.45-1.05-1.06-1.25-.15-.17-.3-.35-.45-.52-1.01-3.03,1.39-3.15,3.17-3.46,7.92-1.38,15.83-.52,23.73,.28,10.99,1.1,21.76,3.56,32.63,5.37l1.44,.45Z"/><path class="am" d="M466.93,269.55c1.35-.48,2.54,.19,3.73,.6,6.59,2.27,13.35,4.11,19.52,7.48,.62,2.99,3.23,4.68,4.7,7.12,3.88,6.42,2.38,12.27-4.01,16-1.91,1.12-4.26,1.42-5.82,3.15-13.48-2.25-26.4-6.57-39.43-10.5-.46-.36-.91-.72-1.37-1.09,1.09-.52,2.54,.03,3.79-1.19-.93-.4-1.56-.76-2.23-.95-10.09-2.75-19.63-6.85-28.64-12.13-4.73-2.77-9.32-5.77-13.11-9.82-3.2-3.43-2.68-6.29,1.48-8.37,3.2-1.6,6.48-2.67,10.14-2.63,1.16,.01,2.97,.73,3.45-1.36,10.33,2.34,20.61,4.91,30.75,7.97,3.01,.91,6.35,1.02,8.86,3.29-2.03,.93-4.01,.04-5.98-.21-3.42-.43-6.83-.78-10.28-.43-.85,.09-1.87,.24-1.83,1.39,.03,.97,.96,1,1.69,1.13,1.27,.22,2.55,.42,3.82,.67,9.52,1.88,19.61,2.17,27.08,9.78,.61,.63,1.47,1.15,2.17,.09,.63-.95,.3-1.87-.46-2.62-1.99-1.97-3.98-3.94-6.46-5.31-.85-.47-1.86-.76-1.58-2.07Z"/><path class="ar" d="M485.06,303.9c1.56-1.74,3.91-2.04,5.82-3.15,6.39-3.73,7.89-9.58,4.01-16-1.48-2.44-4.08-4.13-4.7-7.12,6.05,.87,11.42,3.73,16.91,6.1,11.24,4.85,22.47,9.74,32.74,16.57,3.11,2.07,5.66,4.58,8.21,7.18,1.57,1.61,.18,2.18-1.07,2.73-3.68,1.62-7.6,1.3-11.44,1.19-17.11-.52-33.9-3.3-50.47-7.5Z"/><path class="ab" d="M350.85,248.36c-1.07,3.73,1.94,7.23,4.44,9.59,4.14,3.9,9.07,7.02,13.94,9.92,15.03,8.92,31.27,15.94,47.56,22.19,18.03,6.93,36.5,12.58,55.33,16.88,16.86,3.85,34.02,6.96,51.28,8.4,6.08,.51,12.26,.87,18.35,.32,3.66-.33,8.43-.8,11.08-3.71,2.84-3.12,1.16-7.02-1.15-9.84-3-3.67-7.17-6.47-11.11-9.03-13.5-8.8-28.49-15.44-43.38-21.49-18.43-7.49-37.39-13.79-56.71-18.55-16.81-4.15-33.92-7.36-51.12-9.38-6.95-.82-13.97-1.46-20.97-1.41-4.62,.03-9.86,.11-14.08,2.25-1.62,.82-2.89,2.15-3.45,3.88-.5,1.54,.58,3.28,2.1,3.69,1.63,.45,3.19-.55,3.69-2.1,.18-.55-.29,.7-.14,.31,.04-.11,.12-.21,.19-.31,.16-.23-.61,.57-.17,.24,.08-.06,.29-.23,.33-.31-.04,.08-.69,.43-.18,.15,.13-.07,.26-.16,.39-.24,.14-.08,.29-.15,.44-.22,.68-.36-.45,.13-.05,.02,.83-.23,1.62-.52,2.46-.7,.47-.1,.95-.18,1.43-.25,.13-.02,.25-.03,.38-.06,.4-.08-.62,.06-.21,.03,.31-.02,.61-.07,.91-.1,5.87-.59,11.85-.25,17.71,.21,15.99,1.27,31.8,4.06,47.61,7.5,18.28,3.98,36.24,9.28,53.81,15.71,15.91,5.83,31.65,12.47,46.5,20.66,2.83,1.56,5.63,3.19,8.36,4.93,1.15,.73,2.29,1.48,3.41,2.26,.52,.36,1.03,.72,1.54,1.09,.24,.18,.49,.36,.73,.54,.12,.09,.23,.18,.35,.27,.6,.45-.5-.4,.07,.06,1.54,1.24,3.06,2.5,4.38,3.98,.13,.15,.26,.3,.39,.45,.08,.09,.5,.67,.16,.19s.06,.08,.12,.18c.1,.16,.21,.31,.31,.47,.16,.26,.28,.55,.44,.8,.22,.35-.23-.82-.1-.24,.03,.14,.09,.28,.13,.42,.29,.88-.02-.59,.01,0,.04,.89,.2-.68,.02-.03s.46-.73,0-.02c-.29,.44,.45-.4,.2-.25-.09,.06-.22,.22-.29,.31-.35,.42,.16-.13,.22-.15-.12,.05-.24,.18-.36,.24-.29,.17-.6,.3-.89,.47-.38,.23,.78-.27,.11-.05-.18,.06-.35,.13-.53,.18-.41,.13-.82,.25-1.24,.35s-.82,.19-1.23,.26c-.23,.04-.47,.08-.7,.12s-1.27,.14-.32,.05c-1.11,.1-2.22,.23-3.34,.3-2.78,.16-5.57,.15-8.36,.05-15.61-.52-30.77-3.07-46.08-6.14-17.92-3.59-35.59-8.26-52.87-14.21-16.96-5.83-33.67-12.63-49.63-20.85-6-3.09-11.95-6.38-17.52-10.2-1.09-.75-2.15-1.52-3.2-2.31-.34-.26,.41,.32,.08,.06-.11-.09-.23-.18-.34-.27-.22-.18-.44-.35-.66-.53-.44-.36-.86-.73-1.28-1.1-.71-.64-1.41-1.31-2.05-2.02-.14-.15-.27-.31-.4-.47-.08-.09-.52-.68-.18-.21,.32,.44-.02-.03-.09-.14-.12-.18-.24-.36-.35-.54-.04-.06-.48-.8-.44-.83,.04-.03,.27,.87,.11,.22-.03-.12-.07-.26-.11-.38-.05-.14-.09-.61-.02,.03,.1,.79-.02,.06,.02,0,.02-.03,.1-.83-.03,.02-.1,.67-.01,.14,.03,0,1.07-3.72-4.72-5.31-5.79-1.6Z"/></g><g id="s"><path class="am" d="M858.15,328.45c6.81-2.43,13.95-2.51,20.98-3.25,20.64-2.18,41.32-3.07,62.02-2.19,2.41,.1,4.8,.49,7.19,.74,.02,.81,.05,1.61,1.02,1.86,1.04,1.48,.71,3.21,.81,4.87-1.19,1.79-1.71,3.76-1.6,5.91-.3,.71-.61,1.41-.91,2.12-1.5,.54-2.22,1.65-2.29,3.25-.24,.41-.49,.83-.73,1.24-2.04,.41-2.97,2.01-3.78,3.74-2.37,1.32-4.45,3.23-7.19,3.77-3.96,.17-7.85,.64-11.35,2.86-.5,.07-1.01,.13-1.51,.2-.44-.13-.9-.45-1.3-.38-6.97,1.27-13.93,2.59-20.9,3.89-2.83-.67-5.56-.58-8.8,1.19,3.25,1.3,5.84,1.47,8.49,.18,1.2,.04,2.41,.08,3.61,.12l.9-.3c1.32,.3,2.63,.07,3.96,.02,5.58-.19,11.16-1.61,16.75-.4-5.53,2.51-11.5,2.49-17.3,3.23-16.62,2.13-33.32,3.16-50.04,3.41-1.31,.02-2.62-.32-3.93-.49-1.6-2.73-4.78-3.99-6-7.17-2.57-6.7-.1-12.17,3.58-17.62,2.56-3.79,6.3-6.59,8.32-10.8Zm16.74,11.08c15.1-1.68,29.43-5.02,44.14-5.2-10.75-2.07-21.48-3.09-32.27-.96-4.33,.85-8.57,1.93-11.87,6.16Z"/><path class="ar" d="M868.81,327.02c-1.91,4.17-5.33,7-7.71,10.78-3.42,5.43-5.77,10.85-3.63,17.35,1.02,3.09,3.83,4.24,5.2,6.88-7.61,1.21-15.1,.33-22.59-.08-8.19-.45-16.26-1.69-24.13-4.04-2.47-.74-4.41-2.22-6.34-3.82-1.86-1.53-1.87-3.24,.07-5.06,3.92-3.69,8.33-6.38,12.96-8.52,14.58-6.74,29.8-10.13,44.95-13.81,.38-.09,.82,.21,1.23,.32Z"/><path class="ab" d="M922.35,324.87c17.96,0,34.33,1.59,46.1,4.48,14.06,3.45,16.25,7.27,16.43,7.63-.23,1.29-4.7,6.99-23.4,13.29-16.96,5.72-39.6,9.93-63.72,11.86-9.34,.75-18.59,1.13-27.49,1.13-17.96,0-34.33-1.59-46.1-4.48-14.07-3.45-16.25-7.27-16.43-7.63,.23-1.29,4.7-6.99,23.4-13.29,16.96-5.72,39.6-9.93,63.72-11.86,9.34-.75,18.59-1.13,27.49-1.13m0-7c-8.9,0-18.32,.37-28.05,1.15-52.77,4.23-94.65,18.87-93.54,32.7,.9,11.28,30.13,18.54,69.51,18.54,8.9,0,18.32-.37,28.05-1.15,52.77-4.23,94.65-18.87,93.54-32.7-.9-11.28-30.13-18.54-69.51-18.54h0Z"/></g><g id="t"><g id="u"><path id="v" class="al" d="M754.16,401.61c-1.94,4.61-3.19,9.22-1.82,13.79-11.35,1.75-22.33,.59-33.42,.37-4.98-.1-9.9-.64-14.83-1.1-1.06-.1-2.71,.12-2.79-1.51-.1-2.19,1.82-2.88,2.91-3.17,4.94-1.31,9.89-2.4,14.84-3.32,10.48-1.97,20.95-3.76,31.43-5.69,1.37-.25,2.59-.2,3.67,.64Z"/><path id="w" class="ai" d="M845.61,498.8c-.89,5.83-4.75,9.65-10.49,10.89-13.13,2.84-26.28,5.57-39.37,8.55-2.51,.57-3.72-.23-5.17-2.06-6.53-8.23-12.36-16.97-18.58-25.42-.57-.78-.88-2.13-2.21-1.83-1.07,.24-1,1.41-1.31,2.26-3.3,8.86-6.67,17.69-9.88,26.58-.6,1.67-1.28,2.46-3.13,2.45-9.2-.03-18.4,.1-27.6,.07-3.6-.01-7.18,.86-10.79-.91-3.26-1.6-5.49-4-6.26-7.23-.81-3.37-1.71-6.72-1.81-10.4-.14-4.97-.46-10.14-1.55-15.03-1.16-5.16-.56-10.34-1.2-15.47-.55-4.42-.83-8.88-1.25-13.32-.92-9.7-1.83-19.4-2.8-29.09-.23-2.33,.65-4.71-.94-7.03-.85-1.24,.06-2.72,1.94-2.72,2.97,0,5.94,.05,8.91,.06,9.05,.03,18.07-.18,27.11-1.1,5.19-.53,10.47-.49,15.69-1.11,1.68-.2,2.7,.86,3.65,2.15,4.23,5.76,8.53,11.47,12.82,17.18,.66,.88,1.13,2.25,2.57,1.91,1.21-.28,1.15-1.58,1.52-2.53,2.46-6.34,4.98-12.66,7.4-19.02,.88-2.31,2.36-3.31,4.84-3.68,13.75-2.03,27.39-4.66,40.86-8.13,.67-.17,1.32-.4,1.98-.6,5.64-1.73,6.28-1.28,6.85,4.66,2.08,21.95,4.18,43.89,6.24,65.84,.69,7.33,1.3,14.66,1.93,22,.08,.91,.02,1.84,.02,2.07Zm-16.83-83.5c-.63,9.4-1.66,18.01-1.67,26.63-.01,11.04,.81,22.08,1.26,33.12,.3,7.36,.58,14.72,.81,22.08,.05,1.71,.64,3.13,2.23,3.55,1.68,.45,2.83-.85,3.62-2.17,.48-.81,.71-1.81,.88-2.75,.6-3.44,.53-6.93,.25-10.38-1.83-22.02-3.73-44.04-5.64-66.05-.1-1.14-.01-2.39-1.73-4.03Zm-30.91,7.32c-.72-.27-1.18,.09-1.49,.5-4.46,5.84-8.95,11.71-11.5,18.71-3.36,9.24-.53,17.65,3.79,25.78,.37,.69,.85,1.32,1.76,1.09,.9-.23,1.05-1.05,1.08-1.81,.07-2.16,0-4.3-.4-6.45-.87-4.7-1.51-9.43-.13-14.15,1.96-6.74,3.69-13.56,6.35-20.08,.47-1.15,1.09-2.33,.54-3.6Z"/><path id="x" class="ao" d="M731.12,401.57c12.56-4.19,24.87-4.1,37.29-5.83,23.26-3.24,45.41,.53,67.94,1.91,.6,.04,1.17,.31,1.78,.48-.48,2.62-1.89,2.58-3.08,2.88-34.95,8.84-69.73,14.42-104.32,16.68-.47,.03-.91-.17-1.36-.27-1.6-5.16-.3-10.49,1.75-15.87Z"/></g><g id="y"><polyline class="an" points="759.96 419.03 775.68 438.26 787.98 416.15"/><polyline class="an" points="756.79 523.23 771.64 486.56 795.45 519.82"/><path class="ah" d="M700.22,409.88c0,.09-.03,4.73,0,4.66,.01-.02,0-.05,.01-.07,.03-.05,.02-.12,.05-.17,.06-.11,.1-.24,.16-.35,.15-.26,.36-.49,.58-.7,.62-.59,1.4-1.03,2.16-1.42,2.45-1.25,5.13-2.07,7.77-2.82,8.61-2.44,17.51-3.93,26.35-5.26,11.37-1.71,22.81-2.97,34.27-3.9s23.32-1.57,35-1.62c5.1-.02,10.21,.07,15.31,.36,2.5,.14,5.01,.33,7.5,.6,2.78,.3,5.73,.59,8.38,1.55,.55,.2,1.17,.44,1.61,.85,.13,.12,.22,.26,.33,.39,.05,.06,.05,.15,.09,.21,.02,.02,0,.07,.02,.09-.02-.03,.06-4.68,0-4.58-.55,.85-1.04,1.39-1.95,1.94-3.25,1.98-7.12,3.1-10.73,4.2-7.88,2.41-15.92,4.29-23.97,6-13.72,2.91-27.67,4.82-41.67,5.59-9.53,.53-19.11,.54-28.64-.17-6.19-.46-12.38-1-18.56-1.64-2.6-.27-5.2-.56-7.77-1.01-1.57-.27-3.22-.56-4.69-1.21-.67-.29-1.5-.73-1.62-1.53,.23,1.63-.23,3.36,0,5,.12,.88,1.12,1.34,1.85,1.63,1.59,.64,3.34,.93,5.02,1.21,6.5,1.06,13.11,1.5,19.67,2.05,9.21,.78,18.38,1.21,27.63,.96,15.79-.42,31.53-2.35,47-5.52,7.48-1.53,14.94-3.28,22.29-5.36,4.2-1.19,8.48-2.42,12.44-4.29,1.12-.53,2.41-1.13,3.24-2.08,.26-.29,.42-.58,.49-.97,.14-.82,.03-1.73,.03-2.55s.14-1.81-.03-2.6c-.22-1.01-1.46-1.43-2.32-1.72-2.96-.99-6.2-1.28-9.29-1.58-4.9-.48-9.83-.7-14.75-.79-11.71-.22-23.43,.25-35.11,1.06s-24.14,2.05-36.13,3.71c-9.61,1.33-19.25,2.86-28.66,5.27-3.05,.78-6.12,1.64-9.01,2.88-1.38,.59-3.5,1.42-4.19,2.9-.14,.31-.16,.6-.17,.93-.07,1.59-.13,3.27,.02,4.85-.15-1.65,.15-3.34,0-5Z"/><path class="af" d="M708.5,416.07c16.35,1.94,36.3,2.98,58.9,1.3,27.48-2.04,50.75-7.49,68.71-13.08,1.81,13.34,4.08,32.03,5.91,54.57,2.52,30.98,1.58,36.8-1.86,42.39-9.62,15.66-31.73,17.93-60.85,20.92-32.5,3.34-46.64,.99-59.33-3.12-12.63-4.09-14.76-106.91-14.76-106.91"/></g></g></g><g id="a`"><path class="ai" d="M615.52,534c-5-1.48-11.39-.23-17.73-2.32-3.27-1.08-7.53-.79-11.34-.93-2.75-.1-3.28-1.89-3.74-4.06-2.47-11.64-4.93-23.29-7.39-34.94-.21-1,.16-2.37-1.15-2.67-1.03-.24-1.49,.88-2.08,1.55-7.65,8.68-15.35,17.3-22.86,26.12-1.94,2.27-3.68,2.42-6.15,1.42-7.07-2.85-14.19-5.55-21.32-8.2-7.34-2.73-10.03-7.97-8.2-16.21,4.46-20.09,8.89-40.18,13.35-60.27,1.8-8.12,3.74-16.2,5.48-24.34,.67-3.15,1.96-3.79,4.7-2.54,10.86,4.94,22.21,8.22,33.7,10.95,2.24,.53,3.59,1.73,4.36,4.25,1.73,5.68,3.9,11.2,5.76,16.83,.84,2.54,1.98,2.69,3.96,1.35,6.66-4.53,13.41-8.91,20.08-13.44,1.31-.89,2.43-1.21,4.01-.85,9.52,2.14,19.15,3.35,28.9,3.37,2.55,0,5.01,.89,7.6,.8,1.85-.07,2.48,1.51,2.64,3.44,.22,2.68-.12,5.38-.84,7.78-1.55,5.14-1.75,10.54-3.16,15.7-1.8,6.6-3.02,13.39-4.55,20.08-1.82,7.94-4.05,15.8-5.46,23.82-1.39,7.94-3.5,15.67-4.93,23.59-1.14,6.28-5.89,9.74-13.62,9.72Zm-76.86-110.71c0-1.51,.05-3.02-.02-4.52-.04-.93,.03-2.2-1.24-2.27-1.2-.07-.96,1.23-1.14,1.98-2.15,8.77-4.31,17.55-6.37,26.34-3.54,15.08-7.06,30.16-10.52,45.26-.73,3.17-.15,6.27,1.8,8.88,1.65,2.21,3.25,1.96,4.28-.57,1.02-2.5,1.35-5.18,1.61-7.87,1.04-10.38,2.48-20.65,5.35-30.76,3.37-11.89,5.83-24.03,6.25-36.47Zm11.43,64.25l.82,.05c.35-.64,.8-1.26,1.04-1.94,4.3-12.05,9.24-23.91,10.91-36.72,.92-7.04,1.54-14.11,2.37-21.16,.33-2.78-1.56-4.02-3.55-4.63-2.17-.67-2.96,1.34-3.42,3.02-.45,1.65-.77,3.38-.8,5.08-.22,12.27-3.19,24.06-6,35.89-1.6,6.74-1.45,13.59-1.38,20.42Z"/><path class="al" d="M596.05,419.92c1.83-3.42,.13-6.5-.95-9.63,5.51-.27,10.48,2.18,15.68,3.34,11.32,2.53,21.74,7.88,32.65,11.71,.35,.12,.61,.49,1.57,1.32-4.81,1.05-8.94-.3-12.95-.78-10.39-1.22-20.71-2.99-31.07-4.48-1.74-.25-3.45-.44-4.93-1.47Z"/><path class="ao" d="M605.18,422.77c-1.91-.24-3.82-.48-5.73-.71-1.48-1.34-3.14-1.94-5.06-1.33-18.82-3.92-37.33-9.13-55.41-16.02-1.18-.45-3.31-.3-2.93-2.31,.32-1.71,2.31-1.43,3.6-1.28,7.66,.87,15.33,1.68,22.95,2.87,10.61,1.66,21.4,1.99,31.8,5.15,3.27,.99,6.54,1.98,9.81,2.96,1.11,3.47,2.83,6.87,.97,10.66Z"/><polyline class="ag" points="575.31 419.67 583 439 601 427"/><polygon class="ae" points="512.53 493.23 533.64 407.02 566.27 416.49 612.5 426.5 652.11 428.58 647.05 454.18 628.01 530.17 616.79 533.35 570.27 524.98 514.5 504.5 512.53 493.23"/><path class="ag" d="M651.11,428.58l-1.61-2.08s-16-9-57.47-19.48-57.89-2.74-57.89-2.74c-3.14,5.71,67.87,19.39,69.87,20.05"/><polyline class="ag" points="547.68 516.68 572 492 580.53 527.42"/></g></svg>