<?xml version="1.0" encoding="UTF-8"?><svg xmlns="http://www.w3.org/2000/svg" viewBox="0 0 1407 1080"><defs><style>.ac{fill:#f5e6e2;}.ad{fill:#212529;}.ae{fill:#bc6857;}.af{fill:#ff922b;}.ag{fill:#c92a2a;}.ah{fill:#d6c0bd;}.ai{fill:#f6e7e4;}.aj{fill:#adb5bd;}.ak{fill:#ffab97;}.al{fill:#f59f00;}.am{fill:#e9ecef;}.an{fill:#8b2e0d;}.ao{fill:#fefefe;}.ap{fill:#e67700;}</style></defs><g id="a"><rect class="ak" width="1407" height="1080" rx="12" ry="12"/></g><g id="b"><g id="c"><g><circle class="ai" cx="651.12" cy="323.9" r="285.5"/><path class="ai" d="M888.22,167.36c16.48,24.63,29.19,51.71,37.38,80.2s12.1,57.78,10.73,87.05c-1.33,28.43-6.94,56.66-16.55,83.45s-23.42,52.46-40.68,75.33c-17.78,23.56-39.25,44.27-63.37,61.28-24.3,17.13-51.22,30.49-79.61,39.36-27.34,8.54-55.95,12.88-84.59,12.9-28.29,.02-56.57-4.19-83.64-12.42-27.23-8.28-53.21-20.63-76.79-36.58-24.35-16.46-46.08-36.72-64.25-59.83s-33.31-49.88-43.67-77.92-15.86-55.81-17.26-84.71c-1.39-28.98,2.5-58.35,10.32-86.26s19.44-53.59,34.83-77.5,35.4-46.6,57.91-65.19c23.09-19.07,49.15-34.56,76.99-45.61,26.79-10.64,55.18-17.15,83.92-19.26,28.36-2.09,57,.09,84.72,6.41,27.67,6.31,54.38,16.73,78.98,30.87,25.15,14.45,48.04,32.77,67.65,54.14,9.85,10.73,18.85,22.22,26.98,34.31-.76-1.13,.78-3.84,0-5-16.84-25.04-37.51-47.42-61.29-66.01-22.93-17.92-48.63-32.26-75.9-42.43s-55.51-16.02-84.27-17.62-58.26,1.21-86.41,8.42c-29.11,7.45-56.97,19.56-82.32,35.69s-48.51,36.49-67.72,59.9-33.46,47.93-44.27,75-17.29,55.13-19.56,83.85-.81,56.44,4.77,83.98c5.91,29.22,16.48,57.46,31.14,83.42s34,50.47,56.41,70.92c21.7,19.81,46.49,36.18,73.2,48.42s54.03,19.95,82.52,23.64c28.81,3.74,58.18,3.07,86.78-2.02,29.15-5.19,57.44-14.97,83.58-28.87,26.92-14.32,51.58-32.92,72.67-54.94,20.29-21.19,37.24-45.53,50.11-71.9s21.32-53.76,25.69-82.27,4.57-56.14,1.09-83.86c-3.67-29.3-11.94-57.98-24.43-84.74-6.25-13.4-13.56-26.29-21.78-38.57,.76,1.13-.78,3.83,0,5Z"/></g><path class="ah" d="M887.98,179.5c21.48,32.11,36.46,68.37,43.57,106.35,1.95,10.4,3.3,20.9,4.09,31.45l-.04-.54c.21,2.94,.39,5.89,.51,8.83,.06,1.47,.11,2.94,.15,4.42,.02,.71,.02,.84,0,.38,0,.42,.02,.84,.02,1.26-.01-1.29-.02-1.45,0-.45-.03-3.08-.04-6.16-.02-9.25,0-2.1,0-4.2,.02-6.29,.02-1.3,.02-1.45,0-.46-.02,.83-.02,1.09-.03,1.32-.04,1.47-.09,2.94-.15,4.4-.13,3.04-.31,6.07-.53,9.11l.04-.54c-2.05,27.17-7.92,54.01-17.49,79.53s-22.94,49.9-39.47,71.75c-17.06,22.56-37.51,42.51-60.44,59.07s-49.01,30.15-76.2,39.32c-26.19,8.83-53.65,13.8-81.27,14.73-27.14,.91-54.39-2.06-80.69-8.79-26.39-6.75-51.8-17.26-75.22-31.18-24.03-14.28-45.92-32.12-64.75-52.79s-35.58-45.5-47.82-71.56-19.99-52.33-23.99-79.99c-.95-6.59-1.67-13.21-2.16-19.84l.04,.54c-.21-2.94-.39-5.89-.51-8.83-.06-1.47-.11-2.94-.15-4.42-.02-.71-.02-.84,0-.38,0-.42-.02-.84-.02-1.26,.01,1.29,.02,1.45,0,.45,.03,3.08,.04,6.16,.02,9.25,0,2.1,0,4.2-.02,6.29-.02,1.3-.02,1.45,0,.46,.02-.83,.02-1.09,.03-1.32,.04-1.47,.09-2.94,.15-4.4,.13-3.04,.31-6.07,.53-9.11l-.04,.54c1.69-22.46,5.99-44.7,12.85-66.16s16.35-42.3,28.13-61.63,26.55-38.09,43.06-54.36c17.02-16.78,36.15-31.39,56.78-43.46s41.95-21.2,64.48-27.73c21.91-6.35,44.58-10.04,67.37-10.98,22.53-.93,45.16,.81,67.28,5.17,22.12,4.36,43.72,11.33,64.21,20.74s40.3,21.53,58.17,35.72,34.9,31.47,49.14,50.12c3.61,4.72,7.07,9.56,10.38,14.5-.25-.38,.11-4.53,.11-4.39,.04-3.54,.05-7.07,.04-10.61s0-7.07-.04-10.61c-.01-.98,.42-3.62-.11-4.39-16.84-25.04-37.51-47.42-61.29-66.01s-48.63-32.26-75.9-42.43c-27-10.06-55.51-16.02-84.27-17.62-29.01-1.61-58.26,1.21-86.41,8.42s-56.97,19.56-82.32,35.69-48.51,36.49-67.72,59.9-33.46,47.93-44.27,75c-10.68,26.76-17.29,55.13-19.56,83.85-.63,7.95-.89,15.91-.97,23.88-.15,13.91-.29,27.88,.38,41.78,.7,14.55,2.47,29.04,5.36,43.31,5.91,29.22,16.48,57.46,31.14,83.42,14.92,26.41,34,50.47,56.41,70.92,21.7,19.81,46.49,36.18,73.2,48.42,26.12,11.96,54.03,19.95,82.52,23.64,28.81,3.74,58.18,3.07,86.78-2.02,29.15-5.19,57.44-14.97,83.58-28.87,26.92-14.32,51.58-32.92,72.67-54.94,20.29-21.19,37.24-45.53,50.11-71.9,12.64-25.93,21.32-53.76,25.69-82.27,2.3-15.05,3.25-30.2,3.4-45.42,.21-21.17,.33-42.4-2.31-63.44-3.67-29.3-11.94-57.98-24.43-84.74-6.25-13.4-13.56-26.29-21.78-38.57,.26,.38-.11,4.53-.11,4.39-.04,3.54-.05,7.07-.04,10.61s0,7.07,.04,10.61c.01,.99-.42,3.61,.11,4.39Z"/></g><ellipse id="d" class="ae" cx="634.5" cy="720" rx="424" ry="59.5"/><g id="e"><path class="ac" d="M449.07,545.49c-.16,11.79-2.67,23.26-4.84,34.77-1.71,9.09-3.65,18.15-7.04,26.8-.75,1.91-1.42,5.07-3.82,4.52-2.81-.65-1.7-3.9-1.39-5.91,1.29-8.29,2.95-16.52,4.39-24.78,1.87-10.8,2.76-21.8,6.48-32.23,1.33-3.75,2.69-7.48,4.09-11.21,.24-.65,.42-1.67,1.43-1.4,.66,.18,.7,1.02,.71,1.67,0,2.59,0,5.17,0,7.76Z"/><path class="ac" d="M766.15,392.58c1.96,1.33,2.08,2.56,2.36,3.66,5.46,21.25,10.93,42.5,16.32,63.78,.84,3.33,1.47,6.73,1.45,10.2,0,.95-.07,1.97-.42,2.84-.56,1.43-1.48,2.88-3.21,2.71-1.64-.16-2.45-1.46-2.78-3.12-1.42-7.17-2.9-14.34-4.39-21.5-2.23-10.74-4.85-21.41-6.63-32.23-1.4-8.44-1.78-17.05-2.69-26.35Z"/><path class="ac" d="M736.84,404.74c.75,1.16,.33,2.41,.05,3.62-1.56,6.82-2.16,13.77-3,20.69-.58,4.84,.81,9.38,2.44,13.83,.74,2.04,1.17,4.12,1.45,6.25,.1,.75,.09,1.57-.77,1.94-.86,.37-1.44-.17-1.91-.78-5.59-7.26-9.75-15.04-7.94-24.64,1.37-7.27,4.84-13.74,8.29-20.18,.24-.45,.63-.88,1.39-.73Z"/><path class="ac" d="M481.66,411.29c-.42,12.43-2.88,24.58-6.25,36.47-2.87,10.11-4.31,20.38-5.35,30.76-.27,2.69-.6,5.37-1.61,7.87-1.03,2.53-2.63,2.78-4.28,.57-1.95-2.61-2.53-5.71-1.8-8.88,3.46-15.1,6.97-30.18,10.52-45.26,2.07-8.79,4.22-17.57,6.37-26.34,.18-.74-.06-2.05,1.14-1.98,1.26,.07,1.19,1.35,1.24,2.27,.07,1.5,.02,3.01,.02,4.52Z"/><path class="ac" d="M493.09,475.54c-.08-6.83-.23-13.68,1.38-20.42,2.81-11.83,5.78-23.62,6-35.89,.03-1.7,.35-3.43,.8-5.08,.45-1.67,1.24-3.69,3.42-3.02,1.99,.61,3.88,1.85,3.55,4.63-.83,7.05-1.45,14.13-2.37,21.16-1.67,12.81-6.62,24.68-10.91,36.72-.24,.68-.69,1.29-1.04,1.94l-.82-.05Z"/><path class="ac" d="M407.3,526.66c-.08,6.49-1.35,12.83-2.64,19.15-2.47,12.02-3.64,24.24-5.62,36.33-1.98,12.1-3.55,24.26-5.43,36.37-1.79,11.47-3.75,22.92-5.67,34.38-.32,1.9-.46,3.9-1.53,5.57-.96,1.49-2.17,2.84-4.24,1.97-2.05-.85-3.33-2.06-2.86-4.69,6.25-34.94,12.42-69.9,18.63-104.85,1.71-9.64,3.48-19.26,5.2-28.9,.23-1.3,.3-2.78,2.09-2.67,1.63,.1,1.99,1.47,2.06,2.82,.08,1.5,.02,3.01,.02,4.52Z"/><path class="ac" d="M819.45,318.25c2.09-4.94,5.91-7.09,9.86-9.03,9.87-4.86,20.5-6.67,31.41-7.46-14.17,4-27.13,10.95-41.28,16.5Z"/><path class="ac" d="M503.66,539.2c0-1.07,.1-2.16-.02-3.22-.24-2.11,.42-2.79,2.68-2.62,5.52,.42,5.52,.29,4.38,5.76-.22,1.05-.35,2.12-.56,3.17-.63,3.17-2.06,4.03-5.18,3.26-1.06-.26-1.39-.91-1.4-1.84-.03-1.5,0-3,0-4.5h.11Z"/><path class="ac" d="M429.26,533.54q-6.75-.44-4.64-6.5c2.19-6.29,3.4-6.81,9.54-4.23,.96,.4,1.48,.84,1.03,1.89-1.11,2.56-2.24,5.11-3.35,7.66-.52,1.21-1.45,1.47-2.57,1.18Z"/><path class="ac" d="M502.98,505.19c-.33-.13-.66-.25-.98-.38-.67-2.03-.34-3.55,2-4.17,.46-.12,1.13-.53,1.21-.9,.73-3.57,3.97-5.2,5.9-7.83,.49-.67,.97-1.19,1.83-.78,.7,.33,1.37,.83,1.36,1.65-.05,3.99,1.77,7.57,2.4,11.41,.13,.8,.44,1.44,1.39,1.46,.08,.31,.16,.62,.24,.93-1.7,1.24-3.49,3.15-4.56-.59-.04-.14-.37-.36-.46-.32-3.21,1.58-5.71-1.25-8.65-1.37-.84-.04-1.48-.12-1.66,.89Z"/><path class="ac" d="M722.91,502.49c-1.83,.15-2.24-.41-1.97-1.7,.91-4.31,1.78-8.63,2.6-12.96,.31-1.65,.92-1.76,2.05-.65,3.67,3.61,7.36,7.21,11.05,10.8,.86,.84,1.32,1.68-.3,2-4.64,.92-9.29,1.74-13.43,2.51Z"/><path class="ac" d="M759.19,579.31c.65-1.56,2.09-1.98,3.5-2.55,7.06-2.85,13.77-6.38,20.2-10.46,3.76-2.39,5.7-5.33,4.29-9.92-.37-1.2-.3-2.54-.43-3.82,.32-.95,.5-1.88-.4-2.65-.36-2.92,.14-5.78,.53-8.66,.19-1.39,.42-2.56,2.16-2.63,1.63-.06,2.76,.69,3.08,2.24,.89,4.41,1.75,8.83,2.46,13.27,.8,4.97,1.4,9.97,2.16,14.95,.44,2.86-.92,4.24-3.57,4.6-7.14,.97-14.14,2.82-21.25,3.85-4.23,.61-8.47,1.27-12.72,1.78Z"/></g><g id="f"><path class="ag" d="M495.8,543.19c0,.32,0,.65,0,.97,0,8.62,0,8.55,8.59,9.02,3.1,.17,6.15-.31,9.24-.27,2.31,.03,3.37-2.64,3.22-4.55-.34-4.36,2.53-7.91,2.49-12.14-.01-1.08,1.38-1.36,2.35-1.16,3.83,.8,7.7,.55,11.57,.63,.78,.02,1.55,.2,1.74,1.11,.16,.75-.49,1.11-.9,1.6-3.18,3.82-6.35,7.65-9.5,11.49-.34,.41-.46,1.06-.86,1.34-5.25,3.7-7.46,9.66-10.95,14.66-3.72,5.34-5.84,11.54-8.3,17.47-1.59,3.83-2.61,8.06-3.84,12.08-1.49,4.85-2.33,9.75-3.21,14.66-2.1,11.7-2.25,23.36-.08,35.16,1.67,9.06,3.46,18.07,6.57,26.71,1.56,4.32,3.71,8.37,3.89,13.1,.04,1.09,.12,2.06-.22,3.12-.45,1.41-1.09,1.74-2.33,.84-8.84-6.39-19.42-8.2-29.59-10.95-6.26-1.69-12.59-3.2-19.04-4.11-2.15-.3-1.61-2.1-1.32-3.62,.98-5.17,1.23-10.47,2.87-15.52,.45-1.4-.55-2.15-1.83-2.54-6.8-2.03-13.63-3.97-20.37-6.17-2.48-.81-2.78,.68-3.24,2.27-1.67,5.78-3.36,11.56-4.93,17.36-.67,2.46-1.54,3.27-4.5,2.82-9.64-1.48-19.32-2.75-29.06-3.61-5.6-.49-11.18-.62-16.76-.43-3.11,.1-3.81-1.16-3.35-3.77,.91-5.17,1.9-10.34,2.81-15.51,2.98-16.98,5.9-33.98,8.93-50.96,2.3-12.88,4.82-25.73,7.11-38.61,2.24-12.56,4.31-25.14,6.47-37.71,.2-1.16,.48-2.32,.83-3.44,.42-1.36,1.34-2.01,2.71-1.23,4.44,2.52,9.43,3.62,14.15,5.38,2.32,.86,2.69,1.9,1.82,4.09-1.67,4.19-3.05,8.49-4.7,12.69-.74,1.88-.47,2.7,1.66,2.98,5.95,.8,11.87,1.75,17.8,2.66,1.58,.24,2.02-.83,2.49-1.95,1.5-3.57,3.03-7.13,4.53-10.7,.73-1.74,1.5-2.52,3.85-2.17,9.33,1.41,18.73,2.32,28.09,3.57,3.31,.44,6.29,2.06,9.83,2.22,3.35,.15,6.72,1.18,10.19,1.06,2.15-.07,3.1,1.17,3.08,3.26-.02,2.26,0,4.53,0,6.79Zm-88.5-16.53c0-1.51,.06-3.02-.02-4.52-.07-1.35-.43-2.72-2.06-2.82-1.79-.11-1.86,1.37-2.09,2.67-1.72,9.64-3.49,19.26-5.2,28.9-6.21,34.95-12.38,69.91-18.63,104.85-.47,2.62,.81,3.83,2.86,4.69,2.07,.86,3.28-.48,4.24-1.97,1.07-1.67,1.21-3.67,1.53-5.57,1.92-11.45,3.88-22.9,5.67-34.38,1.89-12.11,3.45-24.27,5.43-36.37,1.98-12.09,3.15-24.31,5.62-36.33,1.3-6.32,2.57-12.66,2.64-19.15Zm41.76,18.83c0-2.59,0-5.17,0-7.76,0-.66-.05-1.49-.71-1.67-1-.27-1.18,.75-1.43,1.4-1.39,3.72-2.75,7.46-4.09,11.21-3.72,10.43-4.61,21.43-6.48,32.23-1.43,8.27-3.09,16.49-4.39,24.78-.31,2.01-1.42,5.26,1.39,5.91,2.4,.55,3.07-2.61,3.82-4.52,3.38-8.65,5.32-17.71,7.04-26.8,2.17-11.51,4.68-22.98,4.84-34.77Z"/><path class="ag" d="M791.58,470.86c.06,5.49-2.92,9.58-8.04,11.58-11.7,4.59-23.45,9.09-35.1,13.81-2.23,.91-3.47,.35-5.09-1.11-7.3-6.56-14.02-13.7-21.06-20.52-.65-.63-1.14-1.82-2.32-1.34-.95,.38-.71,1.45-.87,2.28-1.7,8.63-3.47,17.25-5.08,25.89-.3,1.62-.81,2.45-2.52,2.72-8.51,1.36-17,2.88-25.51,4.25-3.33,.53-6.51,1.88-10.12,.8-3.26-.98-5.68-2.84-6.89-5.69-1.26-2.97-2.61-5.9-3.26-9.27-.89-4.54-1.97-9.23-3.73-13.56-1.86-4.56-2.1-9.4-3.47-14.02-1.18-3.98-2.12-8.02-3.19-12.03-2.33-8.76-4.65-17.52-7.03-26.27-.57-2.1-.12-4.42-1.94-6.31-.98-1.01-.36-2.51,1.38-2.79,2.74-.46,5.5-.85,8.25-1.3,8.37-1.35,16.69-2.9,24.9-5.12,4.72-1.27,9.61-2.03,14.34-3.39,1.53-.44,2.63,.38,3.7,1.42,4.79,4.64,9.64,9.23,14.48,13.83,.75,.71,1.39,1.89,2.67,1.37,1.08-.44,.83-1.62,1.02-2.55,1.3-6.19,2.67-12.38,3.94-18.58,.46-2.26,1.67-3.4,3.91-4.11,12.4-3.95,24.61-8.43,36.54-13.65,.59-.26,1.16-.57,1.74-.85,4.95-2.44,5.62-2.13,7.04,3.24,5.27,19.82,10.56,39.64,15.82,59.47,1.76,6.62,3.44,13.26,5.14,19.89,.21,.83,.3,1.68,.34,1.9Zm-25.44-78.28c.91,9.3,1.3,17.91,2.69,26.35,1.79,10.81,4.4,21.49,6.63,32.23,1.49,7.16,2.97,14.32,4.39,21.5,.33,1.66,1.14,2.96,2.78,3.12,1.73,.17,2.65-1.29,3.21-2.71,.34-.87,.41-1.89,.42-2.84,.03-3.47-.6-6.87-1.45-10.2-5.39-21.27-10.86-42.52-16.32-63.78-.28-1.1-.4-2.34-2.36-3.66Zm-29.31,12.16c-.76-.15-1.15,.28-1.39,.73-3.45,6.45-6.92,12.91-8.29,20.18-1.81,9.59,2.35,17.37,7.94,24.64,.47,.61,1.06,1.15,1.91,.78,.85-.37,.87-1.2,.77-1.94-.28-2.13-.71-4.21-1.45-6.25-1.63-4.46-3.02-9-2.44-13.83,.84-6.92,1.44-13.87,3-20.69,.28-1.2,.7-2.46-.05-3.62Z"/><path class="ag" d="M557.41,514.27c-4.85-1.33-11.05-.2-17.19-2.09-3.17-.97-7.3-.71-10.99-.84-2.67-.09-3.18-1.7-3.63-3.65-2.4-10.47-4.78-20.94-7.16-31.41-.2-.9,.15-2.13-1.12-2.4-1-.22-1.45,.79-2.02,1.39-7.42,7.8-14.88,15.56-22.16,23.48-1.88,2.04-3.57,2.17-5.97,1.28-6.85-2.56-13.76-4.99-20.67-7.38-7.11-2.45-9.72-7.17-7.95-14.57,4.32-18.06,8.62-36.13,12.95-54.18,1.75-7.3,3.63-14.57,5.31-21.88,.65-2.83,1.9-3.41,4.56-2.28,10.53,4.44,21.53,7.39,32.67,9.84,2.18,.48,3.48,1.55,4.23,3.82,1.68,5.1,3.78,10.07,5.58,15.13,.81,2.28,1.92,2.41,3.84,1.21,6.46-4.07,13.01-8.01,19.47-12.08,1.27-.8,2.35-1.09,3.89-.76,9.23,1.92,18.57,3.01,28.02,3.03,2.48,0,4.85,.8,7.36,.72,1.8-.06,2.4,1.35,2.56,3.09,.21,2.41-.11,4.84-.82,7-1.5,4.62-1.7,9.47-3.07,14.12-1.75,5.94-2.93,12.04-4.41,18.05-1.76,7.14-3.93,14.2-5.29,21.42-1.35,7.13-3.39,14.09-4.78,21.21-1.1,5.65-5.71,8.76-13.2,8.74Zm-75.75-102.98c0-1.51,.05-3.02-.02-4.52-.04-.93,.03-2.2-1.24-2.27-1.2-.07-.96,1.23-1.14,1.98-2.15,8.77-4.31,17.55-6.37,26.34-3.54,15.08-7.06,30.16-10.52,45.26-.73,3.17-.15,6.27,1.8,8.88,1.65,2.21,3.25,1.96,4.28-.57,1.02-2.5,1.35-5.18,1.61-7.87,1.04-10.38,2.48-20.65,5.35-30.76,3.37-11.89,5.83-24.03,6.25-36.47Zm11.43,64.25l.82,.05c.35-.64,.8-1.26,1.04-1.94,4.3-12.05,9.24-23.91,10.91-36.72,.92-7.04,1.54-14.11,2.37-21.16,.33-2.78-1.56-4.02-3.55-4.63-2.17-.67-2.96,1.34-3.42,3.02-.45,1.65-.77,3.38-.8,5.08-.22,12.27-3.19,24.06-6,35.89-1.6,6.74-1.45,13.59-1.38,20.42Z"/><path class="ag" d="M504.1,629.93c1.06-22.51,5.82-44.02,17.48-63.62,2.82-4.73,7.08-8.35,10.36-12.75,9.54-12.8,22.05-21.96,36.26-28.84,13.68-6.62,28.1-10.37,43.39-11.3,9-.55,17.83-.02,26.59,1.53,11.7,2.07,23.08,5.4,33.57,11.19,5.78,3.19,11.18,6.92,16.42,11.03,4.31,3.38,8.46,6.93,12.54,10.54,6.15,5.46,11.23,11.93,14.75,19.38,1.66,3.51,4.19,6.38,5.84,9.85,5.37,11.32,9.65,23.06,11.09,35.49,1.38,11.83,1.61,23.89-.68,35.6-2.4,12.26-6.08,24.22-12.6,35.15-3.71,6.24-7.29,12.62-12.02,18.05-8.25,9.48-17.64,17.72-28.5,24.34-8.33,5.08-16.83,9.74-26.19,12.31-7.08,1.94-14.2,3.91-21.69,4.25-5.33,.24-10.66,.78-16,.6-21.57-.72-41.36-7.05-59.38-18.94-17.07-11.26-30.23-25.97-39.55-44.17-2.49-4.86-3.3-10.21-4.79-15.35-1.83-6.29-3.22-12.7-4.95-19.02-1.37-5.02-1.99-10.11-1.93-15.32Zm116.56,99.15c.08,0,1.05-.02,2.02,0,8.17,.22,16.14-.77,23.94-3.4,4.33-1.46,8.56-3.16,12.85-4.66,7.66-2.68,14.16-7.31,20.6-11.78,4.9-3.41,9.57-7.56,13.42-12.38,3.38-4.24,7.02-8.29,10.38-12.54,1.38-1.75,2.83-3.7,3.37-5.79,.89-3.41,3.02-6.18,4.14-9.51,1.42-4.21,3.86-8.05,4.99-12.54,1.65-6.56,3.03-13.17,3.29-19.89,.5-12.66,.35-25.33-3.54-37.6-.42-1.33,.05-2.78-.85-4.05-3.35-4.78-4.94-10.45-7.47-15.64-3.51-7.18-8.26-13.36-13.36-19.28-9.3-10.78-20.98-18.46-33.69-24.72-4.18-2.06-8.66-3.13-12.97-4.72-2.77-1.02-5.91-.98-8.84-1.62-13.75-3.05-27.55-2.99-41.24-.05-27,5.82-48.5,20.17-63.68,43.25-15.91,24.18-20.61,50.71-14.14,78.94,6,26.16,20.65,46.65,42.86,61.48,17.16,11.46,36.26,17.08,57.91,16.52Z"/><path class="an" d="M620.66,729.08c-21.65,.56-40.75-5.06-57.91-16.52-22.21-14.83-36.86-35.32-42.86-61.48-6.48-28.23-1.77-54.77,14.14-78.94,15.18-23.07,36.67-37.43,63.68-43.25,13.69-2.95,27.49-3,41.24,.05,2.93,.65,6.07,.6,8.84,1.62,4.31,1.59,8.8,2.67,12.97,4.72,12.71,6.26,24.39,13.94,33.69,24.72,5.1,5.92,9.85,12.1,13.36,19.28,2.54,5.19,4.12,10.86,7.47,15.64,.89,1.27,.42,2.72,.85,4.05,3.89,12.27,4.04,24.94,3.54,37.6-.26,6.72-1.64,13.32-3.29,19.89-1.13,4.49-3.57,8.33-4.99,12.54-1.13,3.33-3.25,6.1-4.14,9.51-.55,2.09-1.99,4.04-3.37,5.79-3.36,4.26-7,8.3-10.38,12.54-3.85,4.82-8.52,8.98-13.42,12.38-6.44,4.48-12.94,9.1-20.6,11.78-4.29,1.5-8.52,3.2-12.85,4.66-7.81,2.64-15.77,3.62-23.94,3.4-.97-.03-1.94,0-2.02,0Zm-1.9-6.99c2.84,1.14,5.61,.23,8.39-.27,2.24-.16,4.5-.14,6.7-.51,17.85-2.97,33.79-10.31,47.09-22.47,24.6-22.5,35.19-50.53,31.05-83.78-2.57-20.67-11.68-38.32-26.05-53.22-10.94-11.35-24.14-19.32-39.17-24.02-6.11-1.91-12.32-3.93-18.92-3.38-6.99-2.27-14.12-1.3-21.11-.38-24.52,3.25-44.98,14.28-60.78,33.36-19.55,23.62-26.77,50.9-19.83,80.65,8.91,38.18,33.4,62.2,71.34,72.18,5.65,1.49,11.56,2.42,17.52,1.59,1.25,.08,2.51,.16,3.76,.24Z"/></g><g id="g"><path class="am" d="M685.49,396.73c7.64-3.6,15.92-5.17,23.93-7.61,15-4.56,30.58-5.71,45.96-8.02,.41-.06,.84,0,1.29,0,.17,1.28-.78,1.45-1.52,1.75-21.79,8.7-44.08,15.87-66.87,21.46-.31,.08-.64,.04-.96,.05-2.05-2.2-2.18-4.85-1.82-7.63Z"/><path class="am" d="M469.8,522.45c-11.95-1.49-23.76-3.83-35.51-6.39-6.09-1.33-12.11-2.99-18.14-4.58-2.05-.54-4.04-1.34-6.29-2.1,1.13-1.35,2.38-.91,3.46-.94,10.35-.22,20.69,.18,30.93,1.56,7.96,1.07,15.99,2.12,23.74,4.43,.18,2.77,3.16,4.9,1.82,8.02Z"/><path class="aj" d="M469.8,522.45c1.34-3.11-1.64-5.25-1.82-8.02,5.63-.09,10.97,1.69,16.45,2.59,13.19,2.16,26.34,4.62,39.5,6.98,1.89,.34,3.8,.64,5.41,1.87,.51,.39,1.27,.64,1.16,1.37-.13,.84-.96,.72-1.58,.69-6.97-.27-13.95-.36-20.91-.89-7.46-.57-14.9-1.5-22.33-2.39-5.31-.63-10.59-1.46-15.89-2.2Z"/><path class="am" d="M537.94,407.67c-1.49-.17-2.98-.34-4.47-.51-1.16-.96-2.45-1.39-3.94-.95-14.68-2.82-29.12-6.57-43.23-11.52-.92-.32-2.58-.22-2.29-1.66,.25-1.23,1.8-1.03,2.81-.92,5.97,.62,11.96,1.21,17.9,2.07,8.28,1.19,16.7,1.43,24.81,3.71,2.55,.71,5.1,1.42,7.66,2.13,.86,2.5,2.21,4.94,.76,7.67Z"/><path class="aj" d="M420.57,674c8.32,.42,16.38,2.64,24.52,4.33,14.39,2.98,28.59,6.86,42.65,11.29,4.54,1.43,9.08,3.01,13.26,5.8-6.43,.61-12.77,1.03-19.12-.23-19.49-3.87-39-7.66-58.49-11.5-.46-.09-.87-.45-1.3-.68,.59-3.22-.76-6.05-1.51-9Z"/><path class="am" d="M425.57,675.17c.65,2.33,1.82,4.56,1.31,7.1-7.94-.52-15.61-2.71-23.44-3.84-8.46-1.23-16.44-4.09-24.48-6.77-.58-.19-1.08-.6-1.56-1.47,3.64,0,7.29-.15,10.92,.03,10.73,.52,21.33,2.29,31.97,3.62,1.84,.23,3.56,.75,5.29,1.33Z"/><path class="ac" d="M449.33,657.97c-.99,4.3-1.86,8.08-2.73,11.85-.29,1.25-.96,1.81-2.32,1.53-3.16-.65-6.32-1.33-9.52-1.77-2.07-.29-2.12-1.29-1.63-2.91,1.14-3.7,2.21-7.43,3.28-11.15,.5-1.72,1.24-2.54,3.26-1.77,2.51,.95,5.16,1.52,7.74,2.27,1.22,.35,2.31,.84,1.92,1.95Z"/><path class="aj" d="M684.49,395.73c-.36,2.77-.22,5.43,1.82,7.63-7.88,2.82-16.15,4.03-24.29,5.75-3.66,.78-7.37,1.31-11.06,1.88-.8,.12-1.95,.52-2.38-.34-.58-1.15,.67-1.83,1.4-2.17,3.3-1.52,6.67-2.92,10.06-4.23,7.19-2.79,14.42-5.48,21.62-8.25,.94-.36,1.85-.53,2.82-.27Z"/><path class="aj" d="M536.94,406.67c1.45-2.73,.11-5.17-.76-7.67,4.38-.21,8.34,1.73,12.48,2.66,9.01,2.01,17.31,6.27,26,9.32,.28,.1,.48,.39,1.25,1.05-3.83,.84-7.12-.24-10.31-.62-8.27-.97-16.49-2.38-24.74-3.57-1.38-.2-2.75-.35-3.93-1.17Z"/><path class="am" d="M626.15,720.82c-2.78,.5-5.55,1.41-8.39,.27,3.07-1.86,3.18-2.76,.1-4.77-2.42-1.58-5.04-2.89-7.68-4.08-16.29-7.31-32.79-14.24-46.85-25.61-7.51-6.07-13.68-13.2-15.91-22.88-1.9-8.26-3.72-16.53-4.28-25.07-.72-10.93-.52-21.72,2.59-32.28,5.19-17.64,16.19-31.04,30.65-41.99,5.84-4.42,12.63-6.9,18.94-10.34,3.79-2.06,7.57-4.14,10.7-7.15,2.17-2.09,1.89-3.1-.79-4.11-3.21-1.2-6.23-.84-9.36,.47-16.6,6.95-31.58,16.26-43.56,29.88-7.18,8.17-12.89,17.34-15.38,28.02-3.7,15.9-4.89,31.97-2.85,48.32,3.05,24.42,15.94,42.41,36.09,55.32,12.05,7.72,25.95,11.38,39.78,14.81,1.35,.34,3.12-.6,4.05,1.19-5.96,.83-11.88-.1-17.52-1.59-37.94-9.98-62.43-34.01-71.34-72.18-6.94-29.75,.28-57.03,19.83-80.65,15.79-19.08,36.26-30.11,60.78-33.36,6.98-.92,14.12-1.89,21.11,.38,.15,1.85,1.75,2.65,2.87,3.72,14.91,14.36,28.71,29.61,39.21,47.6,10.79,18.48,18.2,37.82,16.29,59.8-.61,7.04-2.12,13.83-4.75,20.27-8.24,20.23-23.27,34.7-40.82,46.91-4.45,3.1-9.28,5.63-13.5,9.08Z"/><path class="aj" d="M626.15,720.82c4.21-3.45,9.05-5.98,13.5-9.08,17.55-12.21,32.57-26.68,40.82-46.91,2.62-6.44,4.13-13.23,4.75-20.27,1.92-21.98-5.49-41.32-16.29-59.8-10.5-17.99-24.3-33.24-39.21-47.6-1.12-1.08-2.71-1.87-2.87-3.72,6.6-.55,12.81,1.47,18.92,3.38,15.03,4.7,28.23,12.67,39.17,24.02,14.36,14.9,23.47,32.55,26.05,53.22,4.14,33.25-6.46,61.28-31.05,83.78-13.29,12.16-29.24,19.5-47.09,22.47-2.2,.37-4.47,.35-6.7,.51Z"/><path class="ao" d="M614,720.85c-.93-1.79-2.69-.86-4.05-1.19-13.83-3.43-27.72-7.09-39.78-14.81-20.15-12.92-33.04-30.9-36.09-55.32-2.04-16.35-.86-32.42,2.85-48.32,2.49-10.68,8.19-19.85,15.38-28.02,11.98-13.62,26.97-22.93,43.56-29.88,3.13-1.31,6.15-1.68,9.36-.47,2.68,1,2.96,2.02,.79,4.11-3.13,3.01-6.91,5.09-10.7,7.15-6.32,3.43-13.11,5.92-18.94,10.34-14.46,10.95-25.46,24.35-30.65,41.99-3.11,10.56-3.31,21.35-2.59,32.28,.56,8.54,2.38,16.81,4.28,25.07,2.23,9.68,8.4,16.81,15.91,22.88,14.06,11.37,30.56,18.29,46.85,25.61,2.64,1.19,5.26,2.5,7.68,4.08,3.08,2.01,2.96,2.91-.1,4.77-1.25-.08-2.51-.16-3.76-.24Z"/></g><path id="h" class="af" d="M759.19,579.31c-5.07,.75-10.12,1.65-15.21,2.16-2.07,.21-3.74,1.33-5.84,1.52-4.56,.41-6.68-.28-8.8-4.4-1.61-3.13-2.61-6.56-4.73-9.46-1.61-2.2-.54-4.43,.53-6.35,2.32-4.18,4.77-8.27,6.68-12.67,.52-1.2,1.59-2.41,3.08-2.68,8.74-1.6,17.48-3.23,26.36-3.88,1.61-.12,2.82-.9,4.23-1.32,4.9-1.47,6.78,2.24,9.08,5.24,2.6,3.39,5.18,6.81,7.8,10.19,.38,.49,.78,1.17,1.53,.96,.85-.25,.95-1.12,1.07-1.84,.28-1.67-.23-3.48,.89-5.01,.29,.26,.59,.52,.88,.78,.13,1.28,.06,2.62,.44,3.82,1.42,4.59-.53,7.53-4.29,9.92-6.43,4.08-13.14,7.62-20.2,10.46-1.41,.57-2.85,.99-3.5,2.55Z"/></g><g id="i"><path class="ad" d="M334.23,349.68c15.47-16.06,30.7-32.37,46.52-48.09,7.25-7.2,13.4-14.69,15.71-24.71-2.06-1.07-4.08-2.19-6.08-3.34-1.25,3.66-2.46,7.33-3.73,10.99-.31,.9-.73,1.86-1.37,2.52-15.94,16.47-31.92,32.9-47.89,49.34-5.57,5.84-11.12,11.7-16.73,17.5-25.25,26.11-50.52,52.21-75.79,78.31-7.87,8.13-15.72,16.29-23.65,24.37-1.64,1.67-2.17,3.09-.4,4.95,1.97,2.08,3.52,1.64,5.39-.31,11.68-12.19,23.46-24.3,35.19-36.44,19.69-20.39,39.37-40.8,59.09-61.17,.61-.63,1.01-2.05,2.15-1.54,1.04,.46,.47,1.74,.47,2.65,.02,83.02,.01,166.05,.01,249.07,0,3.9,.09,7.42-3.02,10.89-4.98,5.55-8.78,12.14-13.42,18.02-8.27,10.47-15.78,21.5-23.95,32.03-2.76,3.56-4.72,7.87-8.77,10.37-1.02,3.52-3.71,5.96-5.79,8.78-1.36,1.85-1.83,3.46,.41,4.79,1.76,1.05,3.66,2.2,5.06-.63,.42-.85,1.11-1.57,1.73-2.3,3.65-4.3,6.39-9.31,10.42-13.32,1.37-3.69,4.33-6.3,6.47-9.46,.57-.84,1.39-1.01,2.16-.18,2.03,2.19,4.7,3.74,6.26,6.38,1.39,.28,2.06,1.5,2.99,2.35,3.9,3.53,7.6,7.3,11.68,10.61,5.02,4.08,9.26,8.29,7.76,15.58-.32,1.55,.05,3.23-.07,4.83-.14,2.02,.4,3.38,2.66,3.56,2.19,.18,3.84-.39,4.24-2.86,.26-1.61,.25-3.19-.05-4.8-.95-5.06-.64-9.73,3.58-13.51,1.74-1.55,3.01-3.62,4.54-5.42,4.15-4.91,8.34-9.8,12.48-14.72,1.35-1.6,2.28-1.57,3.29,.4,1.32,2.57,2.88,5.03,4.36,7.52,3.44,5.82,6.93,11.62,10.32,17.47,1.25,2.16,2.89,1.57,4.36,.64,1.35-.85,2.84-2.12,1.64-3.96-5.57-8.51-9.72-17.87-15.67-26.14-6.48-11.04-13.01-22.06-19.43-33.14-2.99-5.17-6.32-10.16-8.77-15.65-.64-1.44-.92-2.81-.92-4.34,.01-86.98,.01-173.97,0-260.95,0-3.34,1.71-5.46,4.53-6.91Zm-13.14,292.37c-.03,12.57-.13,25.13-.2,37.7,.07,3.43,.13,6.87,.2,10.3,.04,1.99-.76,2.83-2.43,1.33-3.63-3.27-8.17-5.46-11.13-9.5-3.86-2.58-6.68-6.26-9.99-9.43-1.1-1.05-1.11-2.23-1.05-3.52-.82-.95-.15-1.13,.64-1.25,3.88-6.52,8.91-12.2,13.25-18.39,2.08-2.97,4.36-5.79,6.58-8.66,.81-1.04,1.8-2.1,3.23-1.65,1.56,.49,.91,2.01,.9,3.08Zm7.16-2.58c.67-.02,1.04,.45,1.11,1.13,.68,1.06,1.36,2.12,2.04,3.17,.94,.09,1.34,.54,.96,1.48,4.05,7.03,8.09,14.06,12.14,21.08,2.36,2.62,2.32,4.94-.13,7.09-1.43,1.41-2.38,3.32-4.39,4.11-.2,2.56-2.55,3.58-3.87,5.33-1.86,2.47-3.95,4.76-5.98,7.1-.48,.55-1.08,1.14-1.93,.73-.73-.35-.58-1.09-.56-1.7,.14-3.52-.34-7.07,.27-10.58-.06-11.12-.12-22.24-.18-33.36,0-1.5-.03-2.99-.05-4.49-.07-.51-.09-1.08,.59-1.09Z"/><path class="ad" d="M750.72,663.23c-.1,1.28-.03,2.61-.35,3.83-.49,1.86,.03,3.32,1.07,4.83,8.55,12.38,17.03,24.8,25.6,37.16,1.03,1.48,1.2,2.59-.07,3.98-2.39,2.6-4.15,2.46-6.41-.84-3.83-5.58-7.59-11.21-11.39-16.81-2.71-3.99-5.44-7.96-9.04-11.9,0,2.67-.1,5.35,.03,8.02,.12,2.51-.26,4.15-3.42,4.03-2.86-.11-3.78-1.37-3.69-4.03,.11-3.65,.03-7.3,.03-10.94-1.27-.32-1.66,.65-2.21,1.21-8.8,8.88-17.79,17.56-26.25,26.77-1.71,1.86-1.71,3.17,.04,4.89,1.68,1.66,3.08,3.59,4.66,5.35,2.34,2.62,3.27,5.56,3.07,9.14-.28,5.16-.16,10.35-.03,15.52,.06,2.51-1.1,3.75-3.38,3.65-2.13-.09-3.93-.74-3.76-3.67,.22-3.76-.32-7.59,.13-11.31,.63-5.15-1.37-9.05-4.46-12.82-4.97-6.06-5.06-6.32-10.76-1.17-7.48,6.75-15.62,12.47-24.46,17.22-13,6.99-26.81,11.42-41.49,13.21-6.31,.77-12.61,1.52-18.95,1.19-18.77-.97-36.66-5.12-53.39-14.08-11.6-6.21-21.87-14.02-31.14-23.25-1.67-1.66-3.18-3.5-4.71-5.3-1.03-1.22-1.83-1.34-3.17-.18-8.61,7.45-17.29,14.82-25.99,22.16-2.11,1.78-3.33,3.7-3.02,6.65,.29,2.77,.06,5.6,.05,8.4-.01,2.43-1.5,3.06-3.63,3.05-2.03,0-3.39-.72-3.4-2.93-.03-4.53-.04-9.06,0-13.59,.01-1.63,1.03-2.86,2.16-3.83,9.23-7.88,18.49-15.72,27.77-23.53,3.66-3.08,3.73-3.37,.82-7.19-.07-.09-.15-.16-.22-.24-2.6-3.45-2.41-3.27-5.35-.27-5.16,5.27-11.4,8.13-18.92,6.51-9.99-2.15-20.17-2.77-30.26-4.15-12.96-1.78-25.82-4.08-38.65-6.63-13.49-2.67-26.77-6.19-40.05-9.66-5.88-1.54-11.42-4.4-16.3-8.22-1.52-2.41-1.71-5.07-1.23-7.77,4.57-25.49,9.2-50.96,13.76-76.45,1.95-10.89,3.77-21.79,5.65-32.69,1.96-10.66,3.92-21.32,5.86-31.98,.56-3.06,1.16-6.13,1.52-9.22,.69-5.93,4.2-9.65,9.23-12.27,.55,.21,.99,.09,1.3-.42,.42-.09,.84-.18,1.26-.27,.75,.27,1.45,.32,1.96-.46,.64-.11,1.29-.21,1.93-.32,1.11,.41,2.21,.56,3.24-.23,.91,0,1.81,.01,2.72,.02,.99,.74,2.04,.73,3.12,.24,3.48,.12,6.97,.23,10.45,.35,1.66,1.07,3.44,.65,5.21,.42,1.06,.07,2.12,.15,3.19,.22,1.46,.88,3.01,.69,4.57,.39,1.07,.1,2.14,.2,3.21,.3,1.23,.85,2.56,.72,3.91,.41l1.92,.22c2.75,.9,5.56,1.29,8.45,1.03,.63,.08,1.27,.16,1.9,.23,1,.87,2.14,.7,3.29,.44,.63,.08,1.25,.16,1.88,.24,.59,.67,1.28,.65,2.02,.27,.84,.12,1.69,.24,2.53,.36,2.06,.99,4.22,1.29,6.48,1.04l1.31,.22c.55,.74,1.23,.67,1.96,.34,.84,.12,1.69,.24,2.53,.36,.6,.64,1.29,.67,2.04,.31,.62,.11,1.23,.22,1.85,.33,.54,.68,1.23,.72,1.98,.44,.43,.19,.86,.39,1.29,.58,1.93,.33,3.85,.67,5.78,1,1.02,.82,2,.85,3.07,.02-.79-1.19-1.8-1.42-2.89-1.47l-5.11-1.42c-9.01-3.1-18.01-6.22-27.02-9.3-5.83-1.99-10.08-5.51-11.7-11.69,.29-.6,.22-1.11-.4-1.46-.7-2.36-.69-4.71,0-7.07,.84-.53,.73-1.27,.46-2.05,.1-.43,.2-.85,.3-1.28,.59-.28,.68-.64,.18-1.1,.11-.45,.23-.91,.34-1.36,.67-.41,.71-.96,.36-1.6,.09-.36,.18-.71,.27-1.07,1.02-1.17,1.19-2.55,1.04-4.02,.48-2.09,.96-4.17,1.44-6.26,.94-.51,.87-1.3,.57-2.14,0-.5,.07-.97,.55-1.26,1.35-4.59,2.77-9.16,3.15-13.97,.11-.47,.22-.93,.33-1.4,1.42-3.05,2.18-6.26,2.22-9.63,.1-.45,.2-.89,.31-1.34,2.46-5.11,2.92-10.78,4.49-16.15,.59-2.02,1.67-4.14,.98-6.43,.1-.47,.19-.94,.29-1.41,1.36-2.28,1.97-4.74,1.82-7.4,.07-.35,.14-.71,.21-1.06,1.36-2.75,.51-5.65,.58-8.49,.11-.19,.22-.37,.33-.56,.98-.13,1.58-.68,1.81-1.63,.36-.2,.73-.4,1.09-.61,3.3-.15,6.59-.32,9.89-.44,3.74-.14,7.49,.42,11.23-.18,.37,.03,.75,.06,1.12,.1,1.58,1.24,3.29,.9,5.01,.42,.48,.05,.96,.1,1.45,.15,5.86,1.83,11.89,2.39,17.99,2.41,.47,.07,.93,.14,1.4,.21,.99,1.29,2.27,.84,3.52,.57,.35,.05,.7,.1,1.05,.15,.43,.89,1.29,1.14,2.13,1.27,9.78,1.41,19.39,3.69,29,5.93,10.48,2.44,20.86,5.26,30.92,9.13,2.18,.84,4.1,2.35,6.55,2.49,1.12,.88,2.23,1.77,3.35,2.65,1.82,5.82-1.12,10.59-3.56,15.39-1.43,2.82-2.3,5.65-2.07,8.8-.1,.39-.21,.77-.31,1.16-.64,.28-.77,.65-.23,1.16-.15,.65-.3,1.3-.46,1.96-.62,.39-.72,.91-.41,1.55l-.26,1.16c-.91,1.18-1.4,2.47-1,3.98-.27,1.22-.55,2.44-.82,3.66-.66,.4-.75,.94-.41,1.6-.02,.93-.05,1.87-.07,2.8-.28,.65-.18,1.18,.49,1.52,.11,.46,.23,.92,.34,1.37-.55,.52-.35,.87,.26,1.12,.1,.38,.19,.76,.29,1.14-.16,1.96,.46,3.69,1.54,5.29,.33,1.28,.65,2.57,.98,3.85-.28,.55-.23,1.02,.35,1.35,.11,.39,.23,.78,.34,1.17-.3,1.29,.09,2.39,.94,3.36,.1,.43,.2,.85,.3,1.28-.29,.59-.2,1.08,.42,1.4,.14,.48,.28,.96,.42,1.43-.37,1.23,.02,2.26,.88,3.15,.13,.45,.26,.9,.39,1.34-.53,.52-.34,.88,.27,1.14,.09,.38,.18,.76,.27,1.14-.35,.65-.23,1.17,.45,1.53,.11,.46,.22,.92,.32,1.38-.14,2.09,.39,4,1.55,5.74,.29,1,.58,1.99,.87,2.99-.31,.64-.24,1.17,.42,1.55,.14,.46,.27,.92,.41,1.37-.53,.51-.34,.85,.25,1.1,.09,.39,.18,.78,.28,1.17-.34,.67-.23,1.19,.47,1.55,.37,.99,.75,1.98,1.12,2.96,.77,1.23,1.63,1.16,2.56,.17,.84-.07,1.68-.14,2.52-.2,5.91,.39,11.83,.32,17.75,.05,.84,.04,1.67,.09,2.5,.13,1.13,1.08,2.38,.92,3.68,.38,.47,.08,.94,.16,1.41,.23,2.94,1.3,3.38,.97,3.56-2.65,.11-.62,.22-1.24,.33-1.85,.81-.55,.71-1.27,.38-2.04,.1-.4,.19-.8,.29-1.2,.62-.36,.61-.85,.27-1.4l.43-2.5c.57-.25,.74-.59,.21-1.06,.1-.47,.21-.93,.31-1.4,.82-.48,.92-1.1,.35-1.84,.13-.68,.26-1.37,.38-2.05,.81-.56,.72-1.29,.39-2.06,.09-.43,.18-.85,.27-1.28,.59-.27,.73-.62,.19-1.09,.14-.68,.27-1.36,.41-2.04,.65-.39,.7-.92,.32-1.53,.1-.6,.21-1.2,.31-1.79,.77-.46,.86-1.05,.3-1.74,.11-.46,.21-.93,.32-1.39,.91-.58,.77-1.37,.42-2.19,.11-.59,.23-1.19,.34-1.78,.62-.42,.59-.94,.25-1.52l.36-1.71c.81-.56,.68-1.3,.39-2.07,.07-.39,.14-.79,.21-1.18,.81-.54,.73-1.26,.41-2.03,.09-.4,.17-.8,.26-1.2,.62-.26,.78-.61,.24-1.12,.14-.68,.27-1.35,.41-2.03,.85-.56,.74-1.33,.45-2.14,.08-.39,.15-.78,.23-1.17,.61-.3,.77-.67,.2-1.17,.03-.71,.05-1.42,.08-2.12,.51-.5,.35-.86-.24-1.12-.11-.38-.21-.77-.32-1.15,.32-.62,.28-1.15-.37-1.53-.13-.47-.26-.93-.39-1.4,.54-.56,.26-.91-.3-1.2-.29-1-.58-2-.87-3,.31-.65,.2-1.18-.44-1.55-.17-.65-.34-1.31-.51-1.96,1.06-1.15,.07-2.3-.21-3.29-1.43-5.17-2.13-10.58-4.87-15.34-.59-1.06-1.18-2.12-1.77-3.18,.14-.33,.03-.52-.33-.55-.45-.52-.9-1.03-1.35-1.55,.03-.79,.07-1.59-.93-1.87-.27-.67-.21-1.33,.09-1.97,.69-.25,.85-.76,.66-1.42,2.23-3.33,5.59-5.11,9.14-6.62,1.66,.05,2.98-.62,4.03-1.89,.56-.24,1.12-.48,1.68-.72,.52-.04,1.09,.04,1.54-.15,7.04-3.08,14.28-5.63,21.5-8.25,2.32-.84,5.03-.94,6.93-2.85,.23-.06,.46-.13,.69-.19,1.12,.35,2,.1,2.54-1.01,.38-.17,.76-.34,1.15-.5,5.24-.51,10.14-2.46,15.14-3.88,4.77-1.36,9.85-1.81,14.25-4.37,.44-.12,.88-.24,1.32-.35,3.19-.02,6.26-.56,9.04-2.25,.99-.24,1.99-.47,2.98-.71,.64,.31,1.16,.2,1.55-.42,.67-.14,1.33-.27,2-.41,.78,.6,1.4,.47,1.84-.43,.46-.11,.92-.21,1.38-.32,.52,.61,.87,.39,1.13-.24,.4-.06,.79-.12,1.19-.17,1.71,.38,3.33,.36,4.65-1.02,.39-.07,.79-.14,1.18-.21,.76,.26,1.49,.4,2.02-.42,.61-.13,1.22-.25,1.83-.38,.75,.35,1.48,.48,2.06-.3,.62-.1,1.23-.19,1.85-.29,2.77,.44,5.46,.26,7.97-1.11,.47-.06,.93-.13,1.4-.19,1.48,.48,2.94,.63,4.31-.34,1.56,.03,3.12,.06,4.69,.09,.35,.57,.83,.58,1.38,.33,1.42,.19,2.56,.84,3.34,2.07-.19,.73,.01,1.22,.81,1.38,.18,.57,.36,1.14,.54,1.71-.34,.61-.3,1.15,.31,1.57,.52,1.28,.57,2.61,.46,3.96-.64,.86-.61,1.67,.2,2.41,.11,.59,.22,1.18,.33,1.78-.35,.65-.29,1.19,.42,1.56,.13,.45,.25,.89,.38,1.34-.48,1.3,.01,2.31,.93,3.2,.14,.66,.27,1.33,.41,1.99-.26,2.13,.39,4.03,1.49,5.81,.9,2.08,1.44,4.25,1.73,6.5-.76,1.57-.27,2.8,1.06,3.79,.2,.79,.4,1.59,.6,2.38-.29,.66-.16,1.19,.49,1.56,.27,1.2,.54,2.4,.82,3.6-.11,1.74,0,3.42,1.31,4.77,.66,2.52,1.33,5.05,1.99,7.57-.33,.63-.27,1.15,.41,1.5,.3,1.2,.6,2.39,.91,3.59-.35,.66-.27,1.21,.42,1.59,.27,1.01,.54,2.03,.8,3.04-.33,.62-.22,1.13,.42,1.47,.31,1.2,.62,2.41,.93,3.61-.3,.6-.26,1.12,.38,1.49,.08,.37,.15,.74,.23,1.11-.02,2.64-.06,5.29,2.06,7.33,.19,.78,.37,1.57,.56,2.35-.34,.67-.24,1.22,.44,1.61,.11,.44,.23,.88,.34,1.31-.63,.6-.29,.96,.31,1.27,.12,.43,.25,.87,.37,1.3-.72,.63-.3,.97,.33,1.26,.12,.45,.24,.9,.36,1.36-.69,.6-.34,.94,.3,1.22,.11,.46,.22,.92,.33,1.38-.6,.45-.47,.81,.13,1.11,.27,2.9,.41,5.79-1.04,8.48-1.05,.59-1.43,1.52-1.33,2.68-1.63,3.22-4.36,5.29-7.38,7.06-.71-.11-1.18,.25-1.56,.79-2.28,.83-4.55,1.66-6.83,2.5-.72-.17-1.2,.16-1.58,.73-1.25,.5-2.51,1-3.76,1.5-1.05-.01-1.98,.26-2.7,1.08-.56,.2-1.11,.41-1.67,.61-1.31,.12-2.56,.37-3.52,1.4-6.59,2.55-13.18,5.09-19.77,7.64-1.21-.05-2.25,.38-3.2,1.1-.43,.11-.86,.23-1.28,.34-.5-.24-.93-.17-1.26,.31-1.12,.25-2.25,.51-3.37,.76-1.98,.01-3.89,.39-5.71,1.2-.66,.11-1.32,.21-1.98,.32-.71-.33-1.35-.26-1.9,.33-.66,.1-1.32,.2-1.98,.29-.69-.26-1.34-.28-1.89,.32-.46,.08-.92,.17-1.39,.25-2.21-.11-4.37,.12-6.39,1.09-.44,.09-.88,.17-1.32,.26-.7-.3-1.35-.29-1.92,.28-1.09,.16-2.18,.31-3.27,.47-.47-.29-.89-.27-1.23,.22-.67,.11-1.33,.21-2,.32-2.01-.09-3.97,.1-5.79,1.02-.44,.08-.89,.15-1.33,.23-.92-.25-1.81-.34-2.57,.42-.86,.13-1.72,.27-2.57,.4-.49-.3-.92-.25-1.28,.21-.67,.1-1.34,.21-2.02,.31-2.01-.24-3.92,.18-5.77,.95-.45,.08-.91,.15-1.36,.23-.9-.2-1.78-.27-2.49,.51-2.2-.02-4.39-.05-6.59-.07-.48-.67-1.15-.65-1.85-.48-5.77-2.06-9.76-5.93-11.9-11.69,.21-.52,.13-.97-.37-1.29-.1-.44-.2-.88-.29-1.32,.15-1.2-.18-2.25-.93-3.19-.13-.64-.26-1.29-.4-1.93,.23-.55,.12-.99-.4-1.3-.22-.9-.45-1.81-.67-2.71,.17-.49,.11-.91-.35-1.21-.8-3.03-1.59-6.06-2.38-9.09,.23-.51,.15-.94-.35-1.24-.1-.44-.21-.87-.31-1.31,.21-.52,.17-.96-.36-1.27-.26-.94-.52-1.87-.77-2.81,.04-.07,.12-.15,.11-.2-.05-.14-.14-.26-.22-.39-.12-.43-.25-.87-.37-1.3,.02-1.13,.1-2.28-1.14-2.98-.9,.96-1.04,1.96-.8,3.05-.09,.46-.18,.91-.27,1.37-.48,.37-.5,.83-.25,1.34-.14,.85-.28,1.7-.42,2.55-.47,.37-.53,.8-.23,1.3-.14,.65-.28,1.29-.42,1.94-.5,.33-.52,.77-.29,1.26-.11,.67-.23,1.34-.34,2.01-.6,.51-.63,1.14-.37,1.82-.08,.47-.17,.94-.25,1.41-.49,.32-.53,.75-.28,1.24-.57,3.04-1.14,6.08-1.71,9.12-.64,.49-.63,1.14-.43,1.83-.09,.46-.18,.93-.26,1.39-.44,.35-.49,.77-.22,1.24l-.37,2c-.49,.33-.53,.76-.3,1.26-.08,.67-.17,1.33-.25,2-.05,1.03,.51,1.2,1.36,.99l1.32,.27c.46,.7,1.12,.74,1.85,.54,1.75,.48,3.51,.95,5.26,1.43,.94,.72,1.99,1.14,3.2,1.08,.77,.27,1.55,.53,2.32,.79,.22,.09,.45,.19,.67,.28,.83,.28,1.66,.57,2.49,.85,.39,.55,.9,.84,1.59,.68,4.27,2.07,8.54,4.14,12.81,6.2,.67,.95,1.6,1.46,2.75,1.57,9.39,5.79,18.11,12.45,25.73,20.46,1.04,1.09,2.06,1.48,3.42,.78,1.09,.17,2.18,.41,3.16-.36,.66-.11,1.33-.22,1.99-.33,.71,.32,1.35,.28,1.89-.34,.67-.09,1.34-.18,2.01-.27,.89,.23,1.77,.36,2.51-.39,.45-.09,.9-.18,1.34-.27,.71,.33,1.36,.28,1.93-.32,.67-.1,1.33-.19,2-.29,.89,.25,1.75,.34,2.48-.4,.47-.08,.93-.16,1.39-.24,.69,.31,1.33,.29,1.88-.3,.67-.1,1.34-.2,2.01-.3,.92,.25,1.8,.27,2.52-.49,.65-.09,1.3-.19,1.94-.28,.71,.31,1.37,.31,1.94-.3,.45-.07,.91-.13,1.36-.2,.9,.25,1.75,.25,2.48-.43,.88-.12,1.77-.24,2.65-.37,1.8,.15,3.55-.02,5.16-.94,.66-.08,1.31-.16,1.97-.24,.91,.21,1.8,.34,2.55-.42,.66-.12,1.31-.24,1.96-.36,.71,.35,1.35,.3,1.91-.3,.88-.12,1.77-.24,2.65-.36,.71,.31,1.36,.3,1.9-.33,.65-.1,1.29-.2,1.94-.3,2,.14,3.95-.05,5.78-.97,.48-.09,.95-.17,1.43-.26,.9,.34,1.75,.31,2.49-.38,.67-.08,1.33-.17,1.99-.25,.69,.27,1.33,.24,1.86-.34,.88-.12,1.77-.24,2.65-.35,.7,.29,1.35,.3,1.91-.3,.46-.08,.92-.17,1.37-.25,1.91,.02,3.82,.04,5.74,.05,3.81,1.31,6.13,3.87,6.64,7.94-.9,.55-.61,.9,.2,1.16,.15,.46,.3,.92,.45,1.38-.24,.69-.22,1.33,.36,1.87,.12,.66,.23,1.33,.35,1.99-.27,.69-.28,1.35,.3,1.91,.12,.86,.25,1.73,.37,2.59-.05,.43-.09,.87-.14,1.3-.72,1.03-1.08,1.99,.52,2.55h.25c-.06,.45-.11,.89-.17,1.33-.73,.83-.8,1.51,.43,1.9,.12,.24,.23,.49,.35,.73-.03,.64-.06,1.28-.1,1.93-.86,.93-.78,1.59,.54,1.89l.32,.63c-.06,.45-.12,.9-.17,1.34-.82,.67-.49,1.05,.33,1.3,.1,.21,.21,.43,.31,.64-.01,.64-.02,1.29-.03,1.93-.85,1.09-.85,2.18,.02,3.26,.02,.42,.05,.84,.07,1.26-1.34,3.42-3.72,5.7-7.31,6.65-.41-.03-.83-.07-1.25-.1-1.04-.7-2-1.04-2.55,.54v.25c-.45-.05-.89-.09-1.34-.14-.87-.81-1.54-.74-1.99,.42l.04,.25c-.65-.01-1.29-.03-1.94-.04-.9-.79-1.57-.77-1.89,.52-.68,.1-1.36,.2-2.03,.29-.59-.9-.98-.65-1.26,.22-.22,.12-.44,.24-.67,.35-.64-.02-1.29-.03-1.93-.04-.7-.79-1.07-.5-1.27,.38-.44,.13-.88,.26-1.32,.39-.42-.04-.85-.08-1.27-.12-.64-.68-1.07-.58-1.27,.34-.68,.13-1.36,.26-2.04,.39-.98-.94-1.83-1.1-2.41,.39-.26,.11-.52,.23-.78,.34-.41-.05-.82-.1-1.23-.14-1.99-.95-3.68-.4-5.19,1.04-.23,.11-.45,.21-.68,.32-.64-.02-1.27-.05-1.91-.07-1.83-1-3.31-.52-4.53,1.06-.15,.16-.32,.26-.53,.31-.96-.1-1.42,.13-.69,1.1,.02,1.34-.28,2.69,.2,4-.15,1.71-.31,3.41-.46,5.12-1.5,1.44-1.4,2.95-.18,4.5,.17,2.2-.04,4.37-.4,6.54-1.54,.93-1.47,1.99-.25,3.14-.11,2.41-.22,4.83-.33,7.24-1.98,1.73-1.11,3.74-.56,5.72-.06,1.53-.33,3.06,.13,4.58l-.2,.05c-2,1.74-1.07,3.75-.55,5.73l.1,4.54c0,8.01-1.18,15.99-.89,24.01Zm-6.09-18.83c.28-.44,.36-.9,.12-1.39,.07-1.08,.14-2.16,.2-3.24,1.04-1.88,.56-3.87,.4-5.84l.09-3.2c1.1-2.56,.76-5.19,.43-7.82l.3-7.06c1.14-1.44,.66-3.01,.38-4.57l.4-8.36c.8-1.24,.78-2.51,.15-3.81,.14-2.18,.29-4.36,.43-6.54,1.38-4.54,.77-5.4-3.64-4.34-3.14,.75-6.62,.17-9.41,2.33l-.15,.77c-.37,1.26,.24,2.23,.92,3.18,.5,1.93,.99,3.86,1.49,5.79-.26,.55-.19,1.02,.37,1.34l.43,1.86c-.32,.52-.27,.98,.23,1.36,.1,.64,.2,1.27,.3,1.91-.3,.73-.34,1.42,.37,1.97l.42,3.18c-.39,.72-.43,1.39,.23,1.98,.12,1.07,.23,2.14,.35,3.21-.42,.92-.56,1.82,.25,2.63,.31,5.42,.25,10.85,.04,16.28-.99,1.22-.7,2.56-.35,3.9-.1,.85-.19,1.7-.29,2.55-.75,.75-.61,1.66-.47,2.58-.24,1.69-.39,3.4-.73,5.07-.83,4.13-1.75,8.25-2.64,12.38-2.97,8.4-6.16,16.72-10.21,24.72,5.11-4.58,9.74-9.49,14.74-14,3.21-2.89,4.53-6.08,3.69-10.24,.73-6.17,1.06-12.36,1.14-18.57Zm-226.55-138.74c-.53-5.71-2.47-11.12-3.5-16.72-.41-2.26-1.5-1.52-2.59-.37-3.84,4.06-7.72,8.09-11.54,12.17-.77,.82-2.36,1.48-1.85,2.74,.5,1.22,2.08,1.31,3.39,1.33,.33,.13,.66,.25,.99,.38,4.08,2.11,8.54,3.1,12.91,4.34,.97,.28,2.18,1.03,2.96,0,.7-.93-.01-2.01-.53-2.94l-.24-.93Zm11.45-99.46c1.17,.93,2.42,1.49,3.94,.95l4.47,.51c1.18,.82,2.55,.97,3.93,1.17,8.25,1.19,16.47,2.59,24.74,3.57,3.2,.38,6.48,1.46,10.31,.62-.77-.66-.98-.95-1.25-1.05-8.69-3.05-16.98-7.31-26-9.32-4.14-.92-8.1-2.87-12.48-2.66-2.55-.71-5.11-1.42-7.66-2.13-8.11-2.27-16.53-2.52-24.81-3.71-5.94-.86-11.93-1.44-17.9-2.07-1-.1-2.56-.31-2.81,.92-.29,1.44,1.36,1.34,2.29,1.66,14.11,4.96,28.55,8.71,43.23,11.52Zm-61.54,108.23c-7.76-2.31-15.78-3.35-23.74-4.43-10.23-1.38-20.58-1.78-30.93-1.56-1.08,.02-2.32-.41-3.46,.94,2.25,.76,4.24,1.56,6.29,2.1,6.03,1.59,12.05,3.25,18.14,4.58,11.76,2.57,23.56,4.9,35.51,6.39,5.29,.74,10.58,1.57,15.89,2.2,7.43,.89,14.87,1.81,22.33,2.39,6.95,.53,13.94,.62,20.91,.89,.62,.02,1.44,.14,1.58-.69,.12-.73-.65-.99-1.16-1.37-1.6-1.23-3.51-1.53-5.41-1.87-13.16-2.36-26.31-4.82-39.5-6.98-5.47-.9-10.82-2.68-16.45-2.58Zm318.35,35.48c-.67,.49-.44,1.22-.48,1.87-1.12,1.53-.61,3.34-.89,5.01-.12,.72-.22,1.59-1.07,1.84-.75,.22-1.16-.47-1.53-.96-2.61-3.38-5.19-6.8-7.8-10.19-2.3-2.99-4.18-6.7-9.08-5.24-1.41,.42-2.62,1.2-4.23,1.32-8.87,.65-17.62,2.28-26.36,3.88-1.49,.27-2.56,1.48-3.08,2.68-1.91,4.4-4.36,8.49-6.68,12.67-1.06,1.92-2.14,4.15-.53,6.35,2.12,2.9,3.12,6.33,4.73,9.46,2.12,4.12,4.23,4.81,8.8,4.4,2.1-.19,3.77-1.32,5.84-1.52,5.09-.51,10.14-1.42,15.21-2.16,4.25-.51,8.49-1.16,12.72-1.78,7.12-1.03,14.11-2.88,21.25-3.85,2.65-.36,4-1.74,3.57-4.6-.76-4.98-1.36-9.98-2.16-14.95-.72-4.44-1.57-8.86-2.46-13.27-.31-1.55-1.44-2.3-3.08-2.24-1.74,.06-1.98,1.24-2.16,2.63-.39,2.88-.89,5.74-.53,8.66Zm-358.45,133.36c.37,.18,.73,.47,1.12,.54,16.87,3.03,33.75,6.02,50.61,9.08,5.5,.99,10.98,.67,16.55,.18-3.61-2.2-7.54-3.45-11.47-4.58-12.17-3.5-24.46-6.56-36.91-8.91-7.04-1.33-14.01-3.08-21.21-3.42-1.73-.58-3.45-1.1-5.29-1.33-10.64-1.33-21.24-3.1-31.97-3.62-3.63-.18-7.28-.03-10.92-.03,.48,.87,.98,1.28,1.56,1.47,8.04,2.68,16.02,5.54,24.48,6.77,7.84,1.14,15.5,3.33,23.44,3.84Zm257.61-286.54c-.97-.26-1.88-.09-2.82,.27-7.2,2.77-14.43,5.46-21.62,8.25-3.39,1.31-6.76,2.71-10.06,4.23-.73,.34-1.98,1.02-1.4,2.17,.43,.85,1.58,.46,2.38,.34,3.7-.57,7.41-1.11,11.06-1.88,8.14-1.73,16.4-2.94,24.29-5.75,.32-.02,.66,.02,.97-.05,22.79-5.59,45.08-12.76,66.87-21.46,.74-.29,1.69-.47,1.52-1.75-.44,0-.87-.05-1.29,0-15.38,2.31-30.96,3.46-45.96,8.02-8.01,2.43-16.29,4.01-23.93,7.61Zm-189.69,146.46c0-2.26-.02-4.53,0-6.79,.02-2.09-.93-3.33-3.08-3.26-3.47,.12-6.84-.91-10.19-1.06-3.54-.16-6.52-1.77-9.83-2.22-9.36-1.25-18.76-2.15-28.09-3.57-2.35-.36-3.12,.43-3.85,2.17-1.5,3.57-3.03,7.13-4.53,10.7-.47,1.13-.91,2.2-2.49,1.95-5.93-.92-11.86-1.86-17.8-2.66-2.13-.29-2.4-1.1-1.66-2.98,1.65-4.2,3.03-8.5,4.7-12.69,.87-2.18,.5-3.22-1.82-4.09-4.73-1.76-9.71-2.86-14.15-5.38-1.37-.78-2.29-.14-2.71,1.23-.35,1.13-.63,2.28-.83,3.44-2.16,12.57-4.23,25.16-6.47,37.71-2.29,12.88-4.81,25.73-7.11,38.61-3.03,16.98-5.95,33.97-8.93,50.96-.91,5.18-1.9,10.34-2.81,15.51-.46,2.62,.24,3.88,3.35,3.77,5.58-.18,11.16-.06,16.76,.43,9.74,.85,19.42,2.13,29.06,3.61,2.96,.46,3.83-.36,4.5-2.82,1.57-5.81,3.27-11.58,4.93-17.36,.46-1.59,.76-3.07,3.24-2.27,6.74,2.2,13.57,4.14,20.37,6.17,1.29,.38,2.29,1.13,1.83,2.54-1.64,5.06-1.89,10.35-2.87,15.52-.29,1.52-.83,3.31,1.32,3.62,6.45,.91,12.79,2.42,19.04,4.11,10.17,2.75,20.75,4.56,29.59,10.95,1.24,.89,1.87,.56,2.33-.84,.34-1.06,.26-2.03,.22-3.12-.18-4.74-2.34-8.78-3.89-13.1-3.11-8.64-4.9-17.65-6.57-26.71-2.18-11.8-2.02-23.46,.08-35.16,.88-4.91,1.72-9.81,3.21-14.66,1.23-4.02,2.25-8.25,3.84-12.08,2.46-5.93,4.58-12.13,8.3-17.47,3.48-5,5.7-10.97,10.95-14.66,.4-.28,.52-.93,.86-1.34,3.15-3.84,6.32-7.67,9.5-11.49,.4-.49,1.06-.85,.9-1.6-.2-.91-.96-1.09-1.74-1.11-3.86-.08-7.73,.17-11.57-.63-.97-.2-2.36,.07-2.35,1.16,.04,4.23-2.84,7.79-2.49,12.14,.15,1.91-.91,4.58-3.22,4.55-3.09-.05-6.15,.44-9.24,.27-8.59-.47-8.59-.4-8.59-9.02,0-.32,0-.65,0-.97Zm295.78-72.33c-.04-.21-.12-1.07-.34-1.9-1.7-6.63-3.39-13.27-5.14-19.89-5.26-19.83-10.55-39.65-15.82-59.47-1.43-5.36-2.09-5.67-7.04-3.24-.58,.29-1.15,.59-1.74,.85-11.93,5.22-24.14,9.7-36.54,13.65-2.24,.71-3.45,1.86-3.91,4.11-1.27,6.2-2.64,12.38-3.94,18.58-.2,.93,.06,2.11-1.02,2.55-1.28,.53-1.92-.66-2.67-1.37-4.84-4.59-9.69-9.18-14.48-13.83-1.07-1.04-2.17-1.86-3.7-1.42-4.73,1.36-9.62,2.12-14.34,3.39-8.22,2.22-16.53,3.77-24.9,5.12-2.75,.44-5.5,.84-8.25,1.3-1.74,.29-2.36,1.78-1.38,2.79,1.82,1.89,1.37,4.2,1.94,6.31,2.37,8.75,4.7,17.51,7.03,26.27,1.07,4.01,2.01,8.06,3.19,12.03,1.37,4.62,1.61,9.46,3.47,14.02,1.76,4.32,2.84,9.01,3.73,13.56,.65,3.36,2,6.29,3.26,9.27,1.21,2.85,3.63,4.71,6.89,5.69,3.61,1.08,6.79-.26,10.12-.8,8.51-1.37,17-2.89,25.51-4.25,1.71-.27,2.22-1.1,2.52-2.72,1.61-8.64,3.38-17.26,5.08-25.89,.16-.83-.08-1.89,.87-2.28,1.18-.47,1.67,.72,2.32,1.34,7.04,6.82,13.77,13.96,21.06,20.52,1.62,1.46,2.86,2.01,5.09,1.11,11.65-4.72,23.39-9.22,35.1-13.81,5.12-2.01,8.11-6.09,8.04-11.58Zm-234.17,43.41c7.49,.01,12.1-3.09,13.2-8.74,1.39-7.12,3.43-14.07,4.78-21.21,1.36-7.21,3.53-14.28,5.29-21.42,1.48-6.01,2.66-12.11,4.41-18.05,1.37-4.65,1.56-9.5,3.07-14.12,.7-2.16,1.03-4.58,.82-7-.15-1.74-.76-3.15-2.56-3.09-2.51,.08-4.89-.71-7.36-.72-9.45-.02-18.78-1.11-28.02-3.03-1.54-.32-2.62-.04-3.89,.76-6.46,4.07-13,8.01-19.47,12.08-1.91,1.21-3.02,1.07-3.84-1.21-1.8-5.07-3.9-10.03-5.58-15.13-.75-2.27-2.05-3.35-4.23-3.82-11.14-2.45-22.14-5.4-32.67-9.84-2.66-1.12-3.91-.55-4.56,2.28-1.68,7.31-3.56,14.58-5.31,21.88-4.33,18.06-8.63,36.12-12.95,54.18-1.77,7.4,.84,12.12,7.95,14.57,6.92,2.39,13.82,4.82,20.67,7.38,2.4,.9,4.09,.77,5.97-1.28,7.28-7.93,14.75-15.68,22.16-23.48,.57-.6,1.02-1.61,2.02-1.39,1.27,.28,.91,1.51,1.12,2.4,2.38,10.47,4.77,20.94,7.16,31.41,.45,1.95,.96,3.56,3.63,3.65,3.7,.13,7.83-.13,10.99,.84,6.14,1.88,12.35,.75,17.19,2.09Zm-53.31,115.66c-.06,5.21,.56,10.3,1.93,15.32,1.72,6.32,3.11,12.73,4.95,19.02,1.5,5.14,2.3,10.49,4.79,15.35,9.32,18.2,22.49,32.91,39.55,44.17,18.02,11.89,37.82,18.22,59.38,18.94,5.34,.18,10.66-.36,16-.6,7.49-.34,14.62-2.31,21.69-4.25,9.37-2.57,17.86-7.23,26.19-12.31,10.86-6.62,20.25-14.86,28.5-24.34,4.73-5.43,8.31-11.81,12.02-18.05,6.51-10.94,10.2-22.9,12.6-35.15,2.29-11.71,2.06-23.77,.68-35.6-1.45-12.43-5.73-24.17-11.09-35.49-1.65-3.47-4.18-6.34-5.84-9.85-3.51-7.45-8.6-13.92-14.75-19.38-4.07-3.61-8.22-7.16-12.54-10.54-5.25-4.11-10.64-7.84-16.42-11.03-10.48-5.78-21.87-9.12-33.57-11.19-8.76-1.55-17.59-2.08-26.59-1.53-15.29,.93-29.71,4.68-43.39,11.3-14.21,6.88-26.72,16.04-36.26,28.84-3.28,4.4-7.54,8.01-10.36,12.75-11.66,19.6-16.43,41.11-17.48,63.62Zm82.88-161.34c-5.22,15.27-7.42,31.03-12.76,45.95,.1,.02,.33,.16,.49,.1,6.82-2.7,13.86-4.65,21.07-5.98,1.89-.35,1.77-1.36,1.37-2.82-1.83-6.52-3.58-13.06-5.36-19.6-1.6-5.88-3.2-11.77-4.8-17.65Zm-136.65,190.38c.39-1.11-.7-1.59-1.92-1.95-2.58-.75-5.23-1.32-7.74-2.27-2.02-.77-2.76,.05-3.26,1.77-1.07,3.72-2.14,7.44-3.28,11.15-.49,1.61-.45,2.62,1.63,2.91,3.19,.44,6.36,1.12,9.52,1.77,1.37,.28,2.04-.28,2.32-1.53,.87-3.77,1.74-7.55,2.73-11.85Zm272.59-156.48c4.14-.77,8.79-1.59,13.43-2.51,1.62-.32,1.16-1.16,.3-2-3.69-3.59-7.38-7.19-11.05-10.8-1.13-1.11-1.74-1-2.05,.65-.82,4.33-1.69,8.65-2.6,12.96-.27,1.3,.14,1.85,1.97,1.7Zm-293.65,31.05c1.12,.29,2.05,.02,2.57-1.18,1.11-2.56,2.24-5.1,3.35-7.66,.45-1.05-.06-1.48-1.03-1.89-6.14-2.58-7.35-2.06-9.54,4.23q-2.11,6.06,4.64,6.5Zm74.4,5.67h-.11c0,1.5-.02,3,0,4.5,.02,.93,.34,1.58,1.4,1.84,3.12,.77,4.55-.08,5.18-3.26,.21-1.05,.34-2.12,.56-3.17,1.14-5.46,1.13-5.33-4.38-5.76-2.26-.17-2.92,.51-2.68,2.62,.12,1.06,.02,2.15,.02,3.22Zm219.71,9.81c-3.08,.45-6.16,.88-9.23,1.37-.85,.13-1.61,.79-.89,1.53,2.07,2.1,3.07,4.91,4.97,7.09,.92,1.05,1.61,.66,2.19-.45,1.34-2.57,2.72-5.12,4.09-7.67,.69-1.28,.51-2.06-1.13-1.87Zm-194.08-127.98c2.77-1.75,5.84-3.5,8.68-5.58,.88-.64-.17-1.19-.97-1.34-3.37-.63-6.73-1.28-10.1-1.9-1.35-.25-2.2,.09-1.6,1.69,.75,2.01,1.55,4,2.35,5.99,.24,.61,.56,1.18,1.64,1.15Zm185.16-16.4c.05-.51-.63-.63-1.84-.25-1.94,.61-3.91,1.11-5.87,1.63-1.68,.44-2.33,1.11-.75,2.54,1.58,1.44,3.1,2.94,4.64,4.42,1,.96,1.91,1.15,2.28-.48,.52-2.29,.92-4.61,1.55-7.85Zm66.08,136.94c-.06-.91-.3-1.76-1.41-1.72-.71,.02-1.16,.62-1.09,1.32,.11,1.02,.69,1.89,1.77,1.91,.87,.01,.64-.91,.73-1.51Z"/><path class="ad" d="M1023.3,548.99c-.89-.61-1.75-1.26-2.66-1.84-37.09-23.81-74.19-47.58-111.24-71.45-6.13-3.95-12.58-7.44-18.26-12.08-6.11-2.98-11.53-7.1-17.28-10.67-7.59-4.71-15.06-9.64-22.66-14.34-1.68-1.04-1.97-2.17-1.76-3.96,2.07-17.66,4-35.33,6.13-52.98,.48-3.96-1.12-7.41-1.99-11.02-2.09-8.66-4.4-17.26-6.82-25.83-2.27,.23-4.53,.51-6.79,.8,.15,.31,.28,.67,.4,1.12,2.12,8.34,4.1,16.74,6.64,24.95,1.88,6.07,1.66,12,.89,18.13-1.87,14.84-3.5,29.72-5.31,44.57-.46,3.79,.56,6.83,3.8,8.93,14.16,9.17,28.33,18.3,42.5,27.45,4.34,2.13,8.23,4.97,11.97,7.97,2.14,1.72,2.99,4.17,2.91,7.17-.62,26.26-1.07,52.53-1.59,78.79-.42,21.2-.93,42.4-1.26,63.61-.08,5.09-1.18,9.39-4.7,13.47-7.64,8.88-14.72,18.26-22.02,27.44-.67,.84-1.14,1.86-2.37,2.02-.28,1.18-.98,2.11-1.72,3.04-10.23,12.97-20.39,25.99-30.7,38.89-1.61,2.01-1.47,3.34,.31,4.89,1.95,1.69,3.63,1.54,5.15-.56,.63-.87,1.27-1.73,1.93-2.57,8.04-10.18,15.94-20.48,24.21-30.47,3.4-4.1,6.22-8.69,10.19-12.32,1.2-4.32,2.8-4.85,6.05-1.98,.72,.64,1.4,1.31,2.1,1.97,2.57,2.26,4.98,4.74,7.76,6.7,2.22,1.56,2.81,3.47,2.42,5.82-1.08,6.62-.25,13.29-.55,19.92-.12,2.67,1.84,3.12,3.9,3.17,2.09,.05,3.18-1.04,3.15-3.17-.1-6.43,.62-12.86,.49-19.27-.1-4.7,1.55-7.51,5.63-9.27,.57-2.47,3.01-3.12,4.58-4.61,.87-.82,1.53,.06,1.95,.86,.73,1.41,1.38,2.85,1.61,4.44,5.09,7.48,8.42,15.92,12.85,23.77,3.6,6.36,6.88,12.91,10.07,19.48,1.36,2.8,3.18,2.04,5.06,1.19,2.12-.96,2.73-2.47,1.31-4.64-1.23-1.89-2.26-3.91-3.29-5.92-3.09-6.02-6.41-11.93-9.4-17.98-2.37-4.79-5.5-9.26-6.92-14.51-1.37-.52-1.74-1.84-2.33-2.97-6.34-12.13-12.63-24.28-19.03-36.38-.9-1.69-1.33-3.33-1.27-5.22,.23-6.89,.39-13.78,.54-20.68,.43-19.82,.85-39.65,1.27-59.47,.44-21.01,.89-42.02,1.32-63.04,.08-3.96,1.46-4.77,4.96-2.68,2.86,1.71,5.62,3.6,8.43,5.4,23.05,14.76,46.1,29.51,69.15,44.26,8.8,5.64,17.61,11.26,26.38,16.95,1.87,1.21,3.36,1.18,4.75-.64,1.44-1.89,.97-3.37-.86-4.63Zm-122.92,111.25h-.32c0,2.79,0,5.58,0,8.36,0,2.35-1.04,2.65-2.75,1.29-2.59-2.08-5.13-4.22-7.7-6.32-.88-.72-1.18-1.48-.38-2.46,2.76-3.41,5.5-6.85,8.28-10.25,.53-.65,1.17-1.5,2.11-1.17,1.23,.42,.72,1.63,.74,2.52,.05,2.68,.02,5.36,.02,8.04Zm8.45-6.97c1.69,3.23,3.33,6.48,5.08,9.68,.64,1.18,.44,1.99-.56,2.77-1.35,1.06-2.66,2.16-4,3.23-.65,.52-1.23,1.48-2.17,1.07-1.11-.48-.71-1.65-.77-2.52,.57-4.54,.29-9.05,.36-13.55,.01-.69-.39-1.69,.53-1.99,.92-.3,1.2,.66,1.53,1.3Z"/></g><g id="j"><path id="k" class="ad" d="M900.88,402.31c-3.32-2.06-5.53-5.3-8.26-7.98-1.47-1.44-2.7-2.08-4.8-1.55-3.02,.76-6.13,1.12-9.2,1.67-.63,.11-1.31,.42-1.78-.23-.47-.65,.08-1.22,.37-1.77,1.4-2.67,2.67-5.42,4.25-7.97,1.33-2.15,1-4.05-.09-6.06-1.39-2.55-2.72-5.14-4.19-7.64-1.13-1.92-.27-2.36,1.44-2.08,3.18,.53,6.35,1.14,9.51,1.82,1.74,.37,3.14,.11,4.32-1.33,1.98-2.4,4.7-4.12,6.28-6.88,1.85-1.26,2.77-1.15,2.91,1.46,.18,3.2,.88,6.36,1.2,9.55,.14,1.4,.87,2.07,2.01,2.63,2.9,1.41,5.78,2.87,8.65,4.34,.64,.33,1.55,.48,1.6,1.41,.06,1.03-.92,1.02-1.56,1.32-.77,.38-1.52,.89-2.34,1.09-7.93,1.89-9.45,7.9-9.65,14.81-.03,1.15,.21,2.4-.68,3.39Z"/></g><g id="l"><path id="m" class="ad" d="M653.2,243.96c-6.08,.05-10.34-5.15-8.95-11.05,.56-2.41,2.08-3.96,4.72-4.16,1.75-.13,3.44,.1,5.08,.72,4.68,1.75,3.71,2.29,6.39-2.64,1.79-3.3,3.28-6.77,5.02-10.11,.79-1.51,.69-2.33-1.1-2.8-5.41-1.39-10.85-2.7-16.16-4.37-2.78-.88-3.75,.18-4.82,2.49-2.68,5.75-5.56,11.41-8.51,17.03-1.71,3.25-5.73,4.66-10.07,3.84-3.85-.73-7.95-4.42-8.42-7.59-.61-4.15,3.72-8.27,8.19-7.72,1.83,.22,3.68,.65,5.13,1.8,2.15,1.71,2.97,.74,3.95-1.31,3.14-6.6,6.55-13.08,9.69-19.68,1.16-2.44,2.58-2.6,4.85-1.65,8.34,3.48,16.71,6.91,25.14,10.19,2.47,.96,3.05,1.91,1.84,4.47-4.19,8.85-8.07,17.85-12.46,26.62-2.03,4.06-5.09,5.95-9.49,5.94Z"/></g><g id="n"><path id="o" class="ad" d="M445.96,422.61c.49-5.12,.84-9.95,1.47-14.75,.29-2.2-.39-3.71-2-5.06-3.71-3.11-7.37-6.27-11.04-9.42-.54-.46-1.46-.77-1.18-1.72,.26-.89,1.14-.83,1.87-.99,4.63-1,9.23-2.11,13.88-2.96,2.26-.41,3.63-1.4,4.45-3.58,1.71-4.52,3.64-8.97,5.46-13.45,.27-.67,.21-1.65,1.18-1.71,.88-.06,1.2,.8,1.56,1.43,2.43,4.18,4.88,8.36,7.25,12.58,1.03,1.84,2.38,2.83,4.59,2.93,4.84,.2,9.66,.6,14.49,.94,.71,.05,1.63-.28,2.03,.58,.45,.97-.33,1.57-.91,2.2-3.2,3.49-6.36,7.01-9.59,10.47-1.52,1.63-2.1,3.29-1.45,5.55,1.3,4.55,2.36,9.16,3.49,13.75,.19,.79,.69,1.75-.19,2.38-.71,.51-1.43-.07-2.11-.37-4.13-1.84-8.33-3.53-12.36-5.55-2.69-1.35-4.83-.88-7.17,.72-3.64,2.48-7.42,4.75-11.16,7.09-.62,.39-1.27,.98-2.06,.62-.9-.41-.45-1.31-.49-1.7Z"/></g><g id="p"><path id="q" class="ad" d="M516.53,194.51c-4.27,.01-6.7-1.66-7.49-5.01-.75-3.19,1.49-6.96,5.01-8.94,1.69-.95,4.56-.26,4.98-2.81,.31-1.88-1.05-3.67-1.66-5.5-1.97-5.92-3.82-11.89-5.84-17.79-.58-1.7-.19-2.62,1.41-3.29,8.93-3.75,17.87-7.49,26.77-11.33,1.78-.77,2.76-.6,3.45,1.3,3.61,10.03,7.8,19.85,10.62,30.15,1.12,4.1-1.09,8.61-5.29,11.12-3.14,1.88-7.45,1.22-10.42-1.59-3.75-3.54-3.18-7.1,1.47-10.34,1.78-1.24,5.01-1.02,5.22-3.65,.16-1.99-1.11-4.09-1.78-6.14-.9-2.75-1.89-5.47-2.75-8.23-.5-1.6-1.1-2.08-2.74-1.1-4.99,2.97-10.05,5.85-15.15,8.65-1.72,.94-1.78,2.03-1.2,3.71,2.04,6.01,4.1,12.02,5.84,18.12,1.56,5.46-1.16,10.18-6.52,12.04-1.34,.46-2.71,.7-3.92,.63Z"/></g><g id="r"><path class="ad" d="M696.62,272.95c.1,5.54-2.19,9.58-7.4,11.73-1.68,.69-2.42,1.76-2.63,3.61-1.11,9.61-2.35,19.2-3.57,28.79-.25,2,.75,2.5,2.49,2.25,4.3-.62,9.67-7.28,9.24-11.61-.09-.91-.55-1.88-1.09-2.64-.51-.73-1.21-1.82-2.33-1.14-.99,.59-1.31,1.67-.88,2.84,.22,.61,.55,1.18,.72,1.8,.41,1.44,.05,2.56-1.47,3.11-1.35,.49-2.54,.03-2.95-1.2-.91-2.67-2.52-5.34-.47-8.26,1.54-2.19,3.39-3.76,6.18-3.21,3.34,.66,5.6,2.72,6.43,6.08,1.82,7.36-3.74,18.96-13.59,19.12-2.34,.04-3.32,.87-3.94,3.2-2.7,10.11-9.07,15.08-18.25,14.3-5.2-.44-9.27-3.04-11.41-7.85-1.75-3.92-1.02-7.88,1.49-11.31,2.37-3.24,6.01-3.51,9.63-3.39,2.9,.09,4.31,2.17,5.34,4.54,1.28,2.95-1.15,7.27-4.29,7.69-1.37,.18-2.67-.01-3.31-1.4-.64-1.37,.27-2.23,1.3-2.92,.79-.53,1.96-.91,1.5-2.12-.49-1.31-1.77-1-2.81-.87-2.07,.26-3.66,1.26-4.42,3.29-.82,2.18-.64,4.24,.93,6.05,4.94,5.71,14.45,4.44,17.57-2.44,.93-2.04,1.39-4.3,2.05-6.46,.58-1.86-.86-2.48-2.06-3.16-2.15-1.23-4.45-2.21-6.52-3.56-7.8-5.07-9.31-17.3-3.05-24.21,4.05-4.47,9.17-7.47,14.45-10.17,1.85-.94,2.74-2.13,3.04-4.13,.51-3.29,1.18-6.57,1.91-9.82,.94-4.2,2.74-5.8,6.16-5.69,2.94,.09,5.02,2.19,5.75,5.96,.2,1.05,.18,2.14,.26,3.21Zm-15.67,18.84c-.86-.75,2.27-4.55-1.85-2.89-5.51,2.22-10.04,5.98-11.91,11.96-.96,3.08-1.61,6.38,.61,9.28,2.13,2.78,5.02,4.69,8.05,6.37,1.62,.9,2.28,.41,2.47-1.43,.81-7.7,1.72-15.39,2.62-23.3Zm10.8-19.24c-.02-.33,0-.87-.07-1.4-.09-.74-.16-1.64-1.05-1.8-1.26-.23-1.3,.93-1.45,1.69-.44,2.2-.78,4.43-1.13,6.65-.08,.5-.17,1.12,.49,1.36,.6,.21,1.02-.21,1.37-.6,1.45-1.62,1.77-3.62,1.84-5.9Z"/></g><g id="s"><path id="t" class="ad" d="M399.33,386.69c0,11.22-8.9,20.25-19.97,20.28-10.94,.03-20.19-9.19-20.21-20.13-.02-10.8,9.47-20.26,20.26-20.19,10.88,.06,19.93,9.17,19.92,20.04Z"/></g><g id="u"><path id="v" class="ad" d="M855.41,542.39c3.74,5.35,3.9,9.21,.39,13.63-3.15,3.96-7.32,4.24-11.84,2.95l.03-.09c-.52-.91-.91-1.93-1.57-2.72-3.09-3.74-5.16-7.56-1.75-12.23,.36-.49,.47-1.17,.69-1.76,.14-.13,.29-.24,.46-.34,1.56,.63,2.61-.67,3.81-1.15,3.25-1.29,5.9,.56,8.77,1.33l1.01,.37Z"/></g><g id="w"><path id="x" class="ad" d="M875.31,475.95c-.1,7.7-6.87,14.31-14.6,14.25-8.33-.06-15.04-6.8-14.61-15.16,.45-8.84,6.79-13.66,14.67-14.07,7.92-.41,14.65,6.91,14.54,14.98Z"/></g><g id="y"><g id="a`"><path class="ao" d="M362.14,243.86c-.48,2.08-2.29,1.37-3.45,1.36-3.66-.04-6.95,1.03-10.14,2.63-4.16,2.08-4.68,4.94-1.48,8.37,3.78,4.05,8.38,7.05,13.11,9.82,9.01,5.28,18.54,9.37,28.64,12.13,.68,.19,1.31,.55,2.23,.95-1.25,1.23-2.69,.68-3.79,1.19-1.97-.36-3.86-1.24-5.93-.99-.57-.18-1.14-.37-1.71-.55-.65-.72-1.43-1.09-2.43-.84-1.03-.32-2.06-.64-3.09-.95-.82-.85-1.84-1.13-2.98-1.11-.36-.13-.72-.27-1.08-.4-1.36-.75-2.77-1.34-4.35-1.45-1.28-.45-2.57-.89-3.85-1.34-.41-.53-.93-.77-1.61-.57-.22-.08-.44-.16-.67-.25-1.65-1.25-3.56-1.86-5.58-2.17-.65-.24-1.29-.48-1.94-.73-1.2-1.11-2.65-1.57-4.25-1.68-.37-.16-.75-.31-1.12-.47-1.06-.92-2.28-1.47-3.7-1.52-1.78-.86-3.47-1.91-5.44-2.29-.33-.57-.79-.87-1.47-.71-1.37-.6-2.74-1.21-4.11-1.81-.32-.56-.78-.85-1.45-.76-.2-.1-.39-.19-.59-.28-.35-.58-.85-.84-1.53-.66-.21-.09-.42-.17-.63-.26-.3-.61-.76-.92-1.46-.78-.2-.1-.41-.19-.61-.29-.96-1.04-2.18-1.6-3.56-1.83-.13-.18-.31-.29-.54-.31-.35-.55-.84-.82-1.51-.72-.2-.13-.41-.25-.61-.38-.57-.75-1.27-1.26-2.27-1.21-.46-.25-.92-.51-1.37-.76-.29-.61-.75-.91-1.44-.82-.71-.44-1.42-.89-2.12-1.33-.27-.59-.72-.88-1.38-.79-.32-.24-.65-.48-.97-.72-.88-1.02-1.92-1.81-3.24-2.19-.29-.22-.57-.43-.86-.65-.71-1.18-1.7-2.03-2.95-2.59l-.18-.16c-.1-.63-.45-1.05-1.06-1.25-.15-.17-.3-.35-.45-.52-1.01-3.03,1.39-3.15,3.17-3.46,7.92-1.38,15.83-.52,23.73,.28,10.99,1.1,21.76,3.56,32.63,5.37l1.44,.45Z"/><path class="al" d="M409.93,257.55c1.35-.48,2.54,.19,3.73,.6,6.59,2.27,13.35,4.11,19.52,7.48,.62,2.99,3.23,4.68,4.7,7.12,3.88,6.42,2.38,12.27-4.01,16-1.91,1.12-4.26,1.42-5.82,3.15-13.48-2.25-26.4-6.57-39.43-10.5-.46-.36-.91-.72-1.37-1.09,1.09-.52,2.54,.03,3.79-1.19-.93-.4-1.56-.76-2.23-.95-10.09-2.75-19.63-6.85-28.64-12.13-4.73-2.77-9.32-5.77-13.11-9.82-3.2-3.43-2.68-6.29,1.48-8.37,3.2-1.6,6.48-2.67,10.14-2.63,1.16,.01,2.97,.73,3.45-1.36,10.33,2.34,20.61,4.91,30.75,7.97,3.01,.91,6.35,1.02,8.86,3.29-2.03,.93-4.01,.04-5.98-.21-3.42-.43-6.83-.78-10.28-.43-.85,.09-1.87,.24-1.83,1.39,.03,.97,.96,1,1.69,1.13,1.27,.22,2.55,.42,3.82,.67,9.52,1.88,19.61,2.17,27.08,9.78,.61,.63,1.47,1.15,2.17,.09,.63-.95,.3-1.87-.46-2.62-1.99-1.97-3.98-3.94-6.46-5.31-.85-.47-1.86-.76-1.58-2.07Z"/><path class="ap" d="M428.06,291.9c1.56-1.74,3.91-2.04,5.82-3.15,6.39-3.73,7.89-9.58,4.01-16-1.48-2.44-4.08-4.13-4.7-7.12,6.05,.87,11.42,3.73,16.91,6.1,11.24,4.85,22.47,9.74,32.74,16.57,3.11,2.07,5.66,4.58,8.21,7.18,1.57,1.61,.18,2.18-1.07,2.73-3.68,1.62-7.6,1.3-11.44,1.19-17.11-.52-33.9-3.3-50.47-7.5Z"/><path class="ad" d="M293.85,236.36c-1.07,3.73,1.94,7.23,4.44,9.59,4.14,3.9,9.07,7.02,13.94,9.92,15.03,8.92,31.27,15.94,47.56,22.19,18.03,6.93,36.5,12.58,55.33,16.88,16.86,3.85,34.02,6.96,51.28,8.4,6.08,.51,12.26,.87,18.35,.32,3.66-.33,8.43-.8,11.08-3.71,2.84-3.12,1.16-7.02-1.15-9.84-3-3.67-7.17-6.47-11.11-9.03-13.5-8.8-28.49-15.44-43.38-21.49-18.43-7.49-37.39-13.79-56.71-18.55-16.81-4.15-33.92-7.36-51.12-9.38-6.95-.82-13.97-1.46-20.97-1.41-4.62,.03-9.86,.11-14.08,2.25-1.62,.82-2.89,2.15-3.45,3.88-.5,1.54,.58,3.28,2.1,3.69,1.63,.45,3.19-.55,3.69-2.1,.18-.55-.29,.7-.14,.31,.04-.11,.12-.21,.19-.31,.16-.23-.61,.57-.17,.24,.08-.06,.29-.23,.33-.31-.04,.08-.69,.43-.18,.15,.13-.07,.26-.16,.39-.24,.14-.08,.29-.15,.44-.22,.68-.36-.45,.13-.05,.02,.83-.23,1.62-.52,2.46-.7,.47-.1,.95-.18,1.43-.25,.13-.02,.25-.03,.38-.06,.4-.08-.62,.06-.21,.03,.31-.02,.61-.07,.91-.1,5.87-.59,11.85-.25,17.71,.21,15.99,1.27,31.8,4.06,47.61,7.5,18.28,3.98,36.24,9.28,53.81,15.71,15.91,5.83,31.65,12.47,46.5,20.66,2.83,1.56,5.63,3.19,8.36,4.93,1.15,.73,2.29,1.48,3.41,2.26,.52,.36,1.03,.72,1.54,1.09,.24,.18,.49,.36,.73,.54,.12,.09,.23,.18,.35,.27,.6,.45-.5-.4,.07,.06,1.54,1.24,3.06,2.5,4.38,3.98,.13,.15,.26,.3,.39,.45,.08,.09,.5,.67,.16,.19s.06,.08,.12,.18c.1,.16,.21,.31,.31,.47,.16,.26,.28,.55,.44,.8,.22,.35-.23-.82-.1-.24,.03,.14,.09,.28,.13,.42,.29,.88-.02-.59,.01,0,.04,.89,.2-.68,.02-.03s.46-.73,0-.02c-.29,.44,.45-.4,.2-.25-.09,.06-.22,.22-.29,.31-.35,.42,.16-.13,.22-.15-.12,.05-.24,.18-.36,.24-.29,.17-.6,.3-.89,.47-.38,.23,.78-.27,.11-.05-.18,.06-.35,.13-.53,.18-.41,.13-.82,.25-1.24,.35s-.82,.19-1.23,.26c-.23,.04-.47,.08-.7,.12s-1.27,.14-.32,.05c-1.11,.1-2.22,.23-3.34,.3-2.78,.16-5.57,.15-8.36,.05-15.61-.52-30.77-3.07-46.08-6.14-17.92-3.59-35.59-8.26-52.87-14.21s-33.67-12.63-49.63-20.85c-6-3.09-11.95-6.38-17.52-10.2-1.09-.75-2.15-1.52-3.2-2.31-.34-.26,.41,.32,.08,.06-.11-.09-.23-.18-.34-.27-.22-.18-.44-.35-.66-.53-.44-.36-.86-.73-1.28-1.1-.71-.64-1.41-1.31-2.05-2.02-.14-.15-.27-.31-.4-.47-.08-.09-.52-.68-.18-.21,.32,.44-.02-.03-.09-.14-.12-.18-.24-.36-.35-.54-.04-.06-.48-.8-.44-.83,.04-.03,.27,.87,.11,.22-.03-.12-.07-.26-.11-.38-.05-.14-.09-.61-.02,.03,.1,.79-.02,.06,.02,0,.02-.03,.1-.83-.03,.02-.1,.67-.01,.14,.03,0,1.07-3.72-4.72-5.31-5.79-1.6Z"/></g></g><g id="aa"><g id="ab"><path class="al" d="M801.15,316.45c6.81-2.43,13.95-2.51,20.98-3.25,20.64-2.18,41.32-3.07,62.02-2.19,2.41,.1,4.8,.49,7.19,.74,.02,.81,.05,1.61,1.02,1.86,1.04,1.48,.71,3.21,.81,4.87-1.19,1.79-1.71,3.76-1.6,5.91-.3,.71-.61,1.41-.91,2.12-1.5,.54-2.22,1.65-2.29,3.25-.24,.41-.49,.83-.73,1.24-2.04,.41-2.97,2.01-3.78,3.74-2.37,1.32-4.45,3.23-7.19,3.77-3.96,.17-7.85,.64-11.35,2.86-.5,.07-1.01,.13-1.51,.2-.44-.13-.9-.45-1.3-.38-6.97,1.27-13.93,2.59-20.9,3.89-2.83-.67-5.56-.58-8.8,1.19,3.25,1.3,5.84,1.47,8.49,.18,1.2,.04,2.41,.08,3.61,.12l.9-.3c1.32,.3,2.63,.07,3.96,.02,5.58-.19,11.16-1.61,16.75-.4-5.53,2.51-11.5,2.49-17.3,3.23-16.62,2.13-33.32,3.16-50.04,3.41-1.31,.02-2.62-.32-3.93-.49-1.6-2.73-4.78-3.99-6-7.17-2.57-6.7-.1-12.17,3.58-17.62,2.56-3.79,6.3-6.59,8.32-10.8Zm16.74,11.08c15.1-1.68,29.43-5.02,44.14-5.2-10.75-2.07-21.48-3.09-32.27-.96-4.33,.85-8.57,1.93-11.87,6.16Z"/><path class="ap" d="M811.81,315.02c-1.91,4.17-5.33,7-7.71,10.78-3.42,5.43-5.77,10.85-3.63,17.35,1.02,3.09,3.83,4.24,5.2,6.88-7.61,1.21-15.1,.33-22.59-.08-8.19-.45-16.26-1.69-24.13-4.04-2.47-.74-4.41-2.22-6.34-3.82-1.86-1.53-1.87-3.24,.07-5.06,3.92-3.69,8.33-6.38,12.96-8.52,14.58-6.74,29.8-10.13,44.95-13.81,.38-.09,.82,.21,1.23,.32Z"/><path class="ad" d="M865.35,312.87c17.96,0,34.33,1.59,46.1,4.48,14.06,3.45,16.25,7.27,16.43,7.63-.23,1.29-4.7,6.99-23.4,13.29-16.96,5.72-39.6,9.93-63.72,11.86-9.34,.75-18.59,1.13-27.49,1.13-17.96,0-34.33-1.59-46.1-4.48-14.07-3.45-16.25-7.27-16.43-7.63,.23-1.29,4.7-6.99,23.4-13.29,16.96-5.72,39.6-9.93,63.72-11.86,9.34-.75,18.59-1.13,27.49-1.13m0-7c-8.9,0-18.32,.37-28.05,1.15-52.77,4.23-94.65,18.87-93.54,32.7,.9,11.28,30.13,18.54,69.51,18.54,8.9,0,18.32-.37,28.05-1.15,52.77-4.23,94.65-18.87,93.54-32.7-.9-11.28-30.13-18.54-69.51-18.54h0Z"/></g></g></svg>